{
.appVersion = "3151";
DisplayStrings = (
"/lacute/hcircumflex/fl/t_h/bdotaccent/ddotaccent/ldot",
"/lslash/lacute/hcircumflex/lcommaaccent/fl/t_h bb/bdotaccent d/ddotaccent/fdotaccent l·L/Ldot/ldot/ldot l",
"/Bhook/Dhook/Fhook/Hhook/Khook/Nhookleft/Phook/Qhooktail/Thook/Tretroflexhook/bhook/chook/dhook/ghook/hhook/khook/nhookleft/phook/qhooktail/thook/tretroflexhook/vhook/whook/yhook",
"/Ubar/Ohm/u_el-cy v/ie_el-cy/Gamma/Vturned/Ystroke/o_el-cy",
"E/tildebelowcomb/a_em-cy/Etildebelow I/Itildebelow U/Utildebelow/tildebelowcomb/etildebelow u/utildebelow/Che-cy/tse_u-cy/ie_em-cy/brevecomb/a_el-cy/circumflexcomb/wcircumflex/ycircumflex/acircumflexdotbelow/ecircumflexdotbelow/ocircumflexdotbelow/zcircumflex/u_em-cy/gravecomb/circumflexcomb/gravecomb/gravecomb/hookabovecomb/a_el-cy/circumflexbelowcomb \012/macroncomb ¯/emacron/amacron/idotless/imacron/omacron/umacron/dieresiscomb/adieresismacron/adotmacron/aemacron/gmacron/odieresismacron/dotaccentcomb/odotaccentmacron/oogonekmacron/tildecomb/otildemacron/rdotbelowmacron/dieresiscomb/udieresismacron/macroncomb/umacrondieresis/ymacron/macronbelowcomb/strokeshortcomb ¯/ie_em-cy",
"T/space/space/space/space/Thook/space/space/space/space/Tretroflexhook/space \012D/space/space/space/Dhook \012P/space/space/space/space/Phook/space \012W/space/space/space/space/Whook/space/space V/space/space/space \012H/space/Hhook/space \012/space br/bhook/space cr/chook/space dr/dhook/space gr/ghook/space hr/hhook/space kr/khook/space nr/nhookleft/space \012/space pr/phook/space qr/qhooktail/space rr/space tr/thook/space tr/tretroflexhook/space vr/vhook/space wr/whook/space yr/yhook",

glyphs = (
{
glyphname = A;
lastChange = "2023-07-05 18:36:09 +0000";
layers = (
{
anchors = (
{
name = bottom;
position = "{119, -58}";
},
{
name = ogonek;
position = "{545, -61}";
},
{
name = top;
position = "{723, 776}";
}
);
background = {
anchors = (
{
name = bottom;
position = "{238, 230}";
},
{
name = ogonek;
position = "{545, 255}";
},
{
name = top;
position = "{691, 1064}";
}
);
paths = (
{
closed = 1;
nodes = (
"602 224 OFFCURVE",
"658 264 OFFCURVE",
"693 310 CURVE SMOOTH",
"730 359 OFFCURVE",
"768 430 OFFCURVE",
"787 470 CURVE SMOOTH",
"789 475 OFFCURVE",
"790 479 OFFCURVE",
"790 482 CURVE SMOOTH",
"790 486 OFFCURVE",
"788 488 OFFCURVE",
"785 488 CURVE SMOOTH",
"781 488 OFFCURVE",
"774 483 OFFCURVE",
"769 474 CURVE SMOOTH",
"746 425 OFFCURVE",
"713 373 OFFCURVE",
"682 332 CURVE SMOOTH",
"644 284 OFFCURVE",
"601 254 OFFCURVE",
"570 254 CURVE SMOOTH",
"545 254 OFFCURVE",
"528 274 OFFCURVE",
"528 323 CURVE SMOOTH",
"528 338 OFFCURVE",
"529 357 OFFCURVE",
"533 378 CURVE SMOOTH",
"552 477 OFFCURVE",
"610 584 OFFCURVE",
"666 647 CURVE SMOOTH",
"684 666 OFFCURVE",
"691 687 OFFCURVE",
"691 703 CURVE SMOOTH",
"691 721 OFFCURVE",
"682 734 OFFCURVE",
"668 734 CURVE SMOOTH",
"653 734 OFFCURVE",
"631 718 OFFCURVE",
"608 675 CURVE SMOOTH",
"555 578 OFFCURVE",
"449 446 OFFCURVE",
"344 359 CURVE SMOOTH",
"273 300 OFFCURVE",
"206 271 OFFCURVE",
"156 271 CURVE SMOOTH",
"104 271 OFFCURVE",
"71 303 OFFCURVE",
"71 369 CURVE SMOOTH",
"71 405 OFFCURVE",
"81 451 OFFCURVE",
"103 507 CURVE SMOOTH",
"139 596 OFFCURVE",
"212 709 OFFCURVE",
"248 760 CURVE",
"312 740 OFFCURVE",
"376 731 OFFCURVE",
"445 731 CURVE SMOOTH",
"479 731 OFFCURVE",
"515 733 OFFCURVE",
"552 737 CURVE SMOOTH",
"787 758 OFFCURVE",
"864 863 OFFCURVE",
"864 937 CURVE SMOOTH",
"864 1012 OFFCURVE",
"799 1064 OFFCURVE",
"691 1064 CURVE SMOOTH",
"496 1064 OFFCURVE",
"328 943 OFFCURVE",
"201 803 CURVE",
"165 819 OFFCURVE",
"135 840 OFFCURVE",
"113 866 CURVE SMOOTH",
"96 884 OFFCURVE",
"86 902 OFFCURVE",
"86 921 CURVE SMOOTH",
"86 929 OFFCURVE",
"88 937 OFFCURVE",
"91 945 CURVE SMOOTH",
"94 951 OFFCURVE",
"95 956 OFFCURVE",
"95 960 CURVE SMOOTH",
"95 967 OFFCURVE",
"91 971 OFFCURVE",
"86 971 CURVE SMOOTH",
"83 971 OFFCURVE",
"78 969 OFFCURVE",
"74 963 CURVE",
"64 956 OFFCURVE",
"59 940 OFFCURVE",
"59 921 CURVE SMOOTH",
"59 897 OFFCURVE",
"67 869 OFFCURVE",
"83 851 CURVE SMOOTH",
"107 823 OFFCURVE",
"143 800 OFFCURVE",
"184 781 CURVE",
"149 742 OFFCURVE",
"119 698 OFFCURVE",
"95 654 CURVE SMOOTH",
"43 562 OFFCURVE",
"18 471 OFFCURVE",
"18 398 CURVE SMOOTH",
"18 326 OFFCURVE",
"42 272 OFFCURVE",
"91 252 CURVE SMOOTH",
"110 244 OFFCURVE",
"129 241 OFFCURVE",
"149 241 CURVE SMOOTH",
"281 241 OFFCURVE",
"432 396 OFFCURVE",
"504 481 CURVE",
"482 453 OFFCURVE",
"465 393 OFFCURVE",
"465 339 CURVE SMOOTH",
"465 278 OFFCURVE",
"486 224 OFFCURVE",
"545 224 CURVE SMOOTH"
);
},
{
closed = 1;
nodes = (
"370 755 OFFCURVE",
"316 763 OFFCURVE",
"264 780 CURVE",
"377 915 OFFCURVE",
"507 1039 OFFCURVE",
"694 1039 CURVE SMOOTH",
"768 1039 OFFCURVE",
"823 1008 OFFCURVE",
"823 949 CURVE SMOOTH",
"823 850 OFFCURVE",
"718 775 OFFCURVE",
"552 761 CURVE SMOOTH",
"509 757 OFFCURVE",
"471 755 OFFCURVE",
"436 755 CURVE SMOOTH"
);
}
);
};
layerId = "61E7180A-0B32-4047-B910-001D8BB62225";
paths = (
{
closed = 1;
nodes = (
"602 -64 OFFCURVE",
"658 -24 OFFCURVE",
"693 22 CURVE SMOOTH",
"730 71 OFFCURVE",
"768 142 OFFCURVE",
"787 182 CURVE SMOOTH",
"789 187 OFFCURVE",
"790 191 OFFCURVE",
"790 194 CURVE SMOOTH",
"790 198 OFFCURVE",
"788 200 OFFCURVE",
"785 200 CURVE SMOOTH",
"782 200 OFFCURVE",
"773 195 OFFCURVE",
"769 186 CURVE SMOOTH",
"744 134 OFFCURVE",
"713 85 OFFCURVE",
"681 43 CURVE SMOOTH",
"644 -4 OFFCURVE",
"601 -34 OFFCURVE",
"570 -34 CURVE SMOOTH",
"545 -34 OFFCURVE",
"528 -14 OFFCURVE",
"528 35 CURVE SMOOTH",
"528 50 OFFCURVE",
"529 69 OFFCURVE",
"533 90 CURVE SMOOTH",
"551 185 OFFCURVE",
"610 296 OFFCURVE",
"666 359 CURVE SMOOTH",
"683 378 OFFCURVE",
"691 396 OFFCURVE",
"691 415 CURVE SMOOTH",
"691 433 OFFCURVE",
"682 446 OFFCURVE",
"668 446 CURVE SMOOTH",
"653 446 OFFCURVE",
"631 430 OFFCURVE",
"608 387 CURVE SMOOTH",
"555 290 OFFCURVE",
"449 158 OFFCURVE",
"344 71 CURVE SMOOTH",
"273 12 OFFCURVE",
"206 -17 OFFCURVE",
"156 -17 CURVE SMOOTH",
"104 -17 OFFCURVE",
"71 15 OFFCURVE",
"71 81 CURVE SMOOTH",
"71 117 OFFCURVE",
"81 163 OFFCURVE",
"103 219 CURVE SMOOTH",
"138 306 OFFCURVE",
"212 421 OFFCURVE",
"248 472 CURVE",
"312 452 OFFCURVE",
"376 443 OFFCURVE",
"445 443 CURVE SMOOTH",
"482 443 OFFCURVE",
"512 445 OFFCURVE",
"553 449 CURVE SMOOTH",
"787 470 OFFCURVE",
"864 576 OFFCURVE",
"864 649 CURVE SMOOTH",
"864 724 OFFCURVE",
"799 776 OFFCURVE",
"691 776 CURVE SMOOTH",
"496 776 OFFCURVE",
"328 655 OFFCURVE",
"201 515 CURVE",
"165 531 OFFCURVE",
"135 552 OFFCURVE",
"113 578 CURVE SMOOTH",
"98 594 OFFCURVE",
"86 612 OFFCURVE",
"86 633 CURVE SMOOTH",
"86 641 OFFCURVE",
"88 649 OFFCURVE",
"91 657 CURVE SMOOTH",
"94 663 OFFCURVE",
"95 668 OFFCURVE",
"95 672 CURVE SMOOTH",
"95 679 OFFCURVE",
"91 683 OFFCURVE",
"86 683 CURVE SMOOTH",
"83 683 OFFCURVE",
"78 681 OFFCURVE",
"74 675 CURVE",
"64 668 OFFCURVE",
"59 652 OFFCURVE",
"59 633 CURVE SMOOTH",
"59 609 OFFCURVE",
"67 581 OFFCURVE",
"83 563 CURVE SMOOTH",
"107 535 OFFCURVE",
"143 512 OFFCURVE",
"184 493 CURVE",
"149 454 OFFCURVE",
"119 410 OFFCURVE",
"95 366 CURVE SMOOTH",
"44 275 OFFCURVE",
"18 186 OFFCURVE",
"18 110 CURVE SMOOTH",
"18 38 OFFCURVE",
"42 -16 OFFCURVE",
"91 -36 CURVE SMOOTH",
"110 -44 OFFCURVE",
"129 -47 OFFCURVE",
"149 -47 CURVE SMOOTH",
"281 -47 OFFCURVE",
"432 108 OFFCURVE",
"504 193 CURVE",
"482 165 OFFCURVE",
"465 105 OFFCURVE",
"465 51 CURVE SMOOTH",
"465 -10 OFFCURVE",
"486 -64 OFFCURVE",
"545 -64 CURVE SMOOTH"
);
},
{
closed = 1;
nodes = (
"370 467 OFFCURVE",
"316 475 OFFCURVE",
"264 492 CURVE",
"377 627 OFFCURVE",
"507 751 OFFCURVE",
"694 751 CURVE SMOOTH",
"768 751 OFFCURVE",
"823 720 OFFCURVE",
"823 661 CURVE SMOOTH",
"823 562 OFFCURVE",
"718 487 OFFCURVE",
"552 473 CURVE SMOOTH",
"509 469 OFFCURVE",
"471 467 OFFCURVE",
"436 467 CURVE SMOOTH"
);
}
);
width = 716;
}
);
note = A;
unicode = 0041;
},
{
color = 5;
glyphname = "Alpha-latin";
lastChange = "2023-07-04 22:52:45 +0000";
layers = (
{
anchors = (
{
name = bottom;
position = "{238, -58}";
},
{
name = ogonek;
position = "{545, -33}";
},
{
name = top;
position = "{723, 776}";
}
);
layerId = "61E7180A-0B32-4047-B910-001D8BB62225";
paths = (
{
closed = 1;
nodes = (
"912 765 OFFCURVE",
"895 762 OFFCURVE",
"867 752 CURVE SMOOTH",
"857 749 OFFCURVE",
"846 740 OFFCURVE",
"834 726 CURVE",
"805 757 OFFCURVE",
"756 776 OFFCURVE",
"691 776 CURVE SMOOTH",
"461 776 OFFCURVE",
"214 583 OFFCURVE",
"95 366 CURVE SMOOTH",
"44 275 OFFCURVE",
"18 186 OFFCURVE",
"18 110 CURVE SMOOTH",
"18 38 OFFCURVE",
"42 -16 OFFCURVE",
"91 -36 CURVE SMOOTH",
"110 -44 OFFCURVE",
"129 -47 OFFCURVE",
"149 -47 CURVE SMOOTH",
"300 -47 OFFCURVE",
"431 108 OFFCURVE",
"652 364 CURVE",
"604 236 OFFCURVE",
"568 112 OFFCURVE",
"568 53 CURVE SMOOTH",
"568 13 OFFCURVE",
"579 -19 OFFCURVE",
"606 -33 CURVE SMOOTH",
"617 -39 OFFCURVE",
"630 -42 OFFCURVE",
"642 -42 CURVE SMOOTH",
"671 -42 OFFCURVE",
"700 -26 OFFCURVE",
"720 -7 CURVE SMOOTH",
"778 48 OFFCURVE",
"799 94 OFFCURVE",
"842 182 CURVE SMOOTH",
"845 188 OFFCURVE",
"846 193 OFFCURVE",
"846 196 CURVE SMOOTH",
"846 201 OFFCURVE",
"844 203 OFFCURVE",
"841 203 CURVE SMOOTH",
"837 203 OFFCURVE",
"832 199 OFFCURVE",
"827 189 CURVE SMOOTH",
"795 125 OFFCURVE",
"753 46 OFFCURVE",
"701 8 CURVE SMOOTH",
"691 0 OFFCURVE",
"680 -4 OFFCURVE",
"670 -4 CURVE SMOOTH",
"661 -4 OFFCURVE",
"652 0 OFFCURVE",
"645 8 CURVE SMOOTH",
"636 18 OFFCURVE",
"632 36 OFFCURVE",
"632 58 CURVE SMOOTH",
"632 174 OFFCURVE",
"831 712 OFFCURVE",
"914 753 CURVE SMOOTH",
"924 758 OFFCURVE",
"928 761 OFFCURVE",
"928 763 CURVE SMOOTH",
"928 764 OFFCURVE",
"926 765 OFFCURVE",
"922 765 CURVE SMOOTH"
);
},
{
closed = 1;
nodes = (
"621 366 OFFCURVE",
"441 151 OFFCURVE",
"344 71 CURVE SMOOTH",
"273 12 OFFCURVE",
"206 -17 OFFCURVE",
"156 -17 CURVE SMOOTH",
"104 -17 OFFCURVE",
"71 15 OFFCURVE",
"71 81 CURVE SMOOTH",
"71 117 OFFCURVE",
"81 163 OFFCURVE",
"103 219 CURVE SMOOTH",
"132 290 OFFCURVE",
"222 445 OFFCURVE",
"264 492 CURVE SMOOTH",
"377 627 OFFCURVE",
"507 751 OFFCURVE",
"694 751 CURVE SMOOTH",
"750 751 OFFCURVE",
"795 742 OFFCURVE",
"814 708 CURVE",
"781 648 OFFCURVE",
"738 563 OFFCURVE",
"693 487 CURVE SMOOTH"
);
}
);
width = 772;
}
);
unicode = 2C6D;
},
{
color = 5;
glyphname = Astroke;
lastChange = "2023-09-25 18:06:14 +0000";
layers = (
{
anchors = (
{
name = bottom;
position = "{238, -58}";
},
{
name = ogonek;
position = "{545, -33}";
},
{
name = top;
position = "{723, 776}";
}
);
layerId = "61E7180A-0B32-4047-B910-001D8BB62225";
paths = (
{
closed = 1;
nodes = (
"602 -64 OFFCURVE",
"658 -24 OFFCURVE",
"693 22 CURVE SMOOTH",
"730 71 OFFCURVE",
"768 142 OFFCURVE",
"787 182 CURVE SMOOTH",
"789 187 OFFCURVE",
"790 191 OFFCURVE",
"790 194 CURVE SMOOTH",
"790 198 OFFCURVE",
"788 200 OFFCURVE",
"785 200 CURVE SMOOTH",
"782 200 OFFCURVE",
"773 195 OFFCURVE",
"769 186 CURVE SMOOTH",
"744 134 OFFCURVE",
"713 85 OFFCURVE",
"681 43 CURVE SMOOTH",
"644 -4 OFFCURVE",
"601 -34 OFFCURVE",
"570 -34 CURVE SMOOTH",
"545 -34 OFFCURVE",
"528 -14 OFFCURVE",
"528 35 CURVE SMOOTH",
"528 50 OFFCURVE",
"529 69 OFFCURVE",
"533 90 CURVE SMOOTH",
"551 185 OFFCURVE",
"610 296 OFFCURVE",
"666 359 CURVE SMOOTH",
"683 378 OFFCURVE",
"691 396 OFFCURVE",
"691 415 CURVE SMOOTH",
"691 433 OFFCURVE",
"682 446 OFFCURVE",
"668 446 CURVE SMOOTH",
"653 446 OFFCURVE",
"631 430 OFFCURVE",
"608 387 CURVE SMOOTH",
"555 290 OFFCURVE",
"449 158 OFFCURVE",
"344 71 CURVE SMOOTH",
"273 12 OFFCURVE",
"206 -17 OFFCURVE",
"156 -17 CURVE SMOOTH",
"104 -17 OFFCURVE",
"71 15 OFFCURVE",
"71 81 CURVE SMOOTH",
"71 117 OFFCURVE",
"81 163 OFFCURVE",
"103 219 CURVE SMOOTH",
"138 306 OFFCURVE",
"212 421 OFFCURVE",
"248 472 CURVE",
"312 452 OFFCURVE",
"376 443 OFFCURVE",
"445 443 CURVE SMOOTH",
"482 443 OFFCURVE",
"512 445 OFFCURVE",
"553 449 CURVE SMOOTH",
"787 470 OFFCURVE",
"864 576 OFFCURVE",
"864 649 CURVE SMOOTH",
"864 724 OFFCURVE",
"799 776 OFFCURVE",
"691 776 CURVE SMOOTH",
"496 776 OFFCURVE",
"328 655 OFFCURVE",
"201 515 CURVE",
"165 531 OFFCURVE",
"135 552 OFFCURVE",
"113 578 CURVE SMOOTH",
"98 594 OFFCURVE",
"86 612 OFFCURVE",
"86 633 CURVE SMOOTH",
"86 641 OFFCURVE",
"88 649 OFFCURVE",
"91 657 CURVE SMOOTH",
"94 663 OFFCURVE",
"95 668 OFFCURVE",
"95 672 CURVE SMOOTH",
"95 679 OFFCURVE",
"91 683 OFFCURVE",
"86 683 CURVE SMOOTH",
"83 683 OFFCURVE",
"78 681 OFFCURVE",
"74 675 CURVE",
"64 668 OFFCURVE",
"59 652 OFFCURVE",
"59 633 CURVE SMOOTH",
"59 609 OFFCURVE",
"67 581 OFFCURVE",
"83 563 CURVE SMOOTH",
"107 535 OFFCURVE",
"143 512 OFFCURVE",
"184 493 CURVE",
"149 454 OFFCURVE",
"119 410 OFFCURVE",
"95 366 CURVE SMOOTH",
"44 275 OFFCURVE",
"18 186 OFFCURVE",
"18 110 CURVE SMOOTH",
"18 38 OFFCURVE",
"42 -16 OFFCURVE",
"91 -36 CURVE SMOOTH",
"110 -44 OFFCURVE",
"129 -47 OFFCURVE",
"149 -47 CURVE SMOOTH",
"281 -47 OFFCURVE",
"432 108 OFFCURVE",
"504 193 CURVE",
"482 165 OFFCURVE",
"465 105 OFFCURVE",
"465 51 CURVE SMOOTH",
"465 -10 OFFCURVE",
"486 -64 OFFCURVE",
"545 -64 CURVE SMOOTH"
);
},
{
closed = 1;
nodes = (
"370 467 OFFCURVE",
"316 475 OFFCURVE",
"264 492 CURVE",
"377 627 OFFCURVE",
"507 751 OFFCURVE",
"694 751 CURVE SMOOTH",
"768 751 OFFCURVE",
"823 720 OFFCURVE",
"823 661 CURVE SMOOTH",
"823 562 OFFCURVE",
"718 487 OFFCURVE",
"552 473 CURVE SMOOTH",
"509 469 OFFCURVE",
"471 467 OFFCURVE",
"436 467 CURVE SMOOTH"
);
},
{
closed = 1;
nodes = (
"85 -44 OFFCURVE",
"601 599 OFFCURVE",
"760 792 CURVE",
"763 797 OFFCURVE",
"765 801 OFFCURVE",
"765 804 CURVE SMOOTH",
"765 813 OFFCURVE",
"754 819 OFFCURVE",
"742 819 CURVE SMOOTH",
"730 819 OFFCURVE",
"717 815 OFFCURVE",
"708 803 CURVE SMOOTH",
"442 450 OFFCURVE",
"52 -35 OFFCURVE",
"-30 -136 CURVE SMOOTH",
"-37 -144 OFFCURVE",
"-50 -158 OFFCURVE",
"-50 -167 CURVE SMOOTH",
"-50 -171 OFFCURVE",
"-46 -176 OFFCURVE",
"-41 -176 CURVE SMOOTH",
"-37 -176 OFFCURVE",
"-28 -177 OFFCURVE",
"-19 -167 CURVE SMOOTH"
);
}
);
width = 716;
}
);
unicode = 023A;
},
{
glyphname = AE;
lastChange = "2023-07-04 23:10:03 +0000";
layers = (
{
background = {
paths = (
{
closed = 1;
nodes = (
"1008 173 OFFCURVE",
"1185 230 OFFCURVE",
"1284 314 CURVE SMOOTH",
"1332 355 OFFCURVE",
"1359 398 OFFCURVE",
"1359 435 CURVE SMOOTH",
"1359 465 OFFCURVE",
"1341 490 OFFCURVE",
"1304 508 CURVE SMOOTH",
"1293 513 OFFCURVE",
"1284 515 OFFCURVE",
"1276 515 CURVE SMOOTH",
"1269 515 OFFCURVE",
"1264 513 OFFCURVE",
"1264 509 CURVE SMOOTH",
"1264 505 OFFCURVE",
"1273 499 OFFCURVE",
"1293 494 CURVE SMOOTH",
"1315 489 OFFCURVE",
"1324 476 OFFCURVE",
"1324 459 CURVE SMOOTH",
"1324 428 OFFCURVE",
"1295 383 OFFCURVE",
"1248 343 CURVE SMOOTH",
"1160 272 OFFCURVE",
"996 197 OFFCURVE",
"831 197 CURVE SMOOTH",
"640 197 OFFCURVE",
"562 294 OFFCURVE",
"562 396 CURVE SMOOTH",
"562 490 OFFCURVE",
"629 590 OFFCURVE",
"734 620 CURVE SMOOTH",
"779 633 OFFCURVE",
"825 636 OFFCURVE",
"866 636 CURVE SMOOTH",
"900 636 OFFCURVE",
"930 634 OFFCURVE",
"955 634 CURVE SMOOTH",
"988 634 OFFCURVE",
"1010 638 OFFCURVE",
"1014 654 CURVE",
"1024 722 OFFCURVE",
"804 685 OFFCURVE",
"775 803 CURVE",
"839 844 OFFCURVE",
"864 895 OFFCURVE",
"864 937 CURVE SMOOTH",
"864 951 OFFCURVE",
"862 965 OFFCURVE",
"856 978 CURVE",
"929 1034 OFFCURVE",
"1035 1070 OFFCURVE",
"1131 1070 CURVE SMOOTH",
"1143 1070 OFFCURVE",
"1156 1069 OFFCURVE",
"1168 1068 CURVE SMOOTH",
"1252 1060 OFFCURVE",
"1282 1021 OFFCURVE",
"1282 978 CURVE SMOOTH",
"1282 918 OFFCURVE",
"1224 851 OFFCURVE",
"1167 846 CURVE SMOOTH",
"1143 843 OFFCURVE",
"1128 834 OFFCURVE",
"1128 828 CURVE SMOOTH",
"1128 825 OFFCURVE",
"1133 823 OFFCURVE",
"1142 823 CURVE SMOOTH",
"1149 823 OFFCURVE",
"1159 824 OFFCURVE",
"1171 827 CURVE SMOOTH",
"1282 852 OFFCURVE",
"1346 916 OFFCURVE",
"1346 975 CURVE SMOOTH",
"1346 1029 OFFCURVE",
"1292 1080 OFFCURVE",
"1171 1093 CURVE SMOOTH",
"1158 1095 OFFCURVE",
"1143 1095 OFFCURVE",
"1129 1095 CURVE SMOOTH",
"1037 1095 OFFCURVE",
"923 1066 OFFCURVE",
"835 1014 CURVE",
"805 1045 OFFCURVE",
"756 1064 OFFCURVE",
"691 1064 CURVE SMOOTH",
"496 1064 OFFCURVE",
"328 943 OFFCURVE",
"201 803 CURVE",
"165 819 OFFCURVE",
"135 840 OFFCURVE",
"113 866 CURVE SMOOTH",
"96 884 OFFCURVE",
"86 902 OFFCURVE",
"86 921 CURVE SMOOTH",
"86 929 OFFCURVE",
"88 937 OFFCURVE",
"91 945 CURVE SMOOTH",
"94 951 OFFCURVE",
"95 956 OFFCURVE",
"95 960 CURVE SMOOTH",
"95 967 OFFCURVE",
"91 971 OFFCURVE",
"86 971 CURVE SMOOTH",
"83 971 OFFCURVE",
"78 969 OFFCURVE",
"74 963 CURVE",
"64 956 OFFCURVE",
"59 940 OFFCURVE",
"59 921 CURVE SMOOTH",
"59 897 OFFCURVE",
"67 869 OFFCURVE",
"83 851 CURVE SMOOTH",
"107 823 OFFCURVE",
"143 800 OFFCURVE",
"184 781 CURVE",
"149 742 OFFCURVE",
"119 698 OFFCURVE",
"95 654 CURVE SMOOTH",
"43 562 OFFCURVE",
"18 471 OFFCURVE",
"18 398 CURVE SMOOTH",
"18 326 OFFCURVE",
"42 272 OFFCURVE",
"91 252 CURVE SMOOTH",
"110 244 OFFCURVE",
"130 240 OFFCURVE",
"150 240 CURVE SMOOTH",
"278 240 OFFCURVE",
"424 388 OFFCURVE",
"497 474 CURVE",
"489 451 OFFCURVE",
"485 428 OFFCURVE",
"485 404 CURVE SMOOTH",
"485 285 OFFCURVE",
"596 173 OFFCURVE",
"829 173 CURVE SMOOTH"
);
},
{
closed = 1;
nodes = (
"104 271 OFFCURVE",
"71 303 OFFCURVE",
"71 369 CURVE SMOOTH",
"71 405 OFFCURVE",
"81 451 OFFCURVE",
"103 507 CURVE SMOOTH",
"139 596 OFFCURVE",
"212 709 OFFCURVE",
"248 760 CURVE",
"312 740 OFFCURVE",
"376 731 OFFCURVE",
"445 731 CURVE SMOOTH",
"479 731 OFFCURVE",
"515 733 OFFCURVE",
"552 737 CURVE SMOOTH",
"614 742 OFFCURVE",
"666 754 OFFCURVE",
"708 771 CURVE",
"734 730 OFFCURVE",
"788 698 OFFCURVE",
"833 683 CURVE",
"799 682 OFFCURVE",
"762 675 OFFCURVE",
"726 665 CURVE SMOOTH",
"702 658 OFFCURVE",
"681 650 OFFCURVE",
"661 639 CURVE",
"662 642 OFFCURVE",
"665 646 OFFCURVE",
"666 647 CURVE",
"684 666 OFFCURVE",
"691 687 OFFCURVE",
"691 703 CURVE SMOOTH",
"691 721 OFFCURVE",
"682 734 OFFCURVE",
"668 734 CURVE SMOOTH",
"653 734 OFFCURVE",
"631 718 OFFCURVE",
"608 675 CURVE SMOOTH",
"555 578 OFFCURVE",
"449 446 OFFCURVE",
"344 359 CURVE SMOOTH",
"273 300 OFFCURVE",
"206 271 OFFCURVE",
"156 271 CURVE SMOOTH"
);
},
{
closed = 1;
nodes = (
"370 755 OFFCURVE",
"316 763 OFFCURVE",
"264 780 CURVE",
"377 915 OFFCURVE",
"507 1039 OFFCURVE",
"694 1039 CURVE SMOOTH",
"745 1039 OFFCURVE",
"787 1024 OFFCURVE",
"807 997 CURVE",
"740 951 OFFCURVE",
"694 890 OFFCURVE",
"693 819 CURVE SMOOTH",
"693 809 OFFCURVE",
"694 801 OFFCURVE",
"697 793 CURVE",
"657 777 OFFCURVE",
"607 765 OFFCURVE",
"552 761 CURVE SMOOTH",
"509 757 OFFCURVE",
"471 755 OFFCURVE",
"436 755 CURVE SMOOTH"
);
},
{
closed = 1;
nodes = (
"773 844 LINE",
"775 883 OFFCURVE",
"795 917 OFFCURVE",
"823 947 CURVE",
"823 907 OFFCURVE",
"805 871 OFFCURVE",
"772 840 CURVE"
);
}
);
};
layerId = "61E7180A-0B32-4047-B910-001D8BB62225";
paths = (
{
closed = 1;
nodes = (
"1008 -115 OFFCURVE",
"1185 -58 OFFCURVE",
"1284 26 CURVE SMOOTH",
"1332 67 OFFCURVE",
"1359 110 OFFCURVE",
"1359 147 CURVE SMOOTH",
"1359 177 OFFCURVE",
"1341 202 OFFCURVE",
"1304 220 CURVE SMOOTH",
"1293 225 OFFCURVE",
"1284 227 OFFCURVE",
"1276 227 CURVE SMOOTH",
"1269 227 OFFCURVE",
"1264 225 OFFCURVE",
"1264 221 CURVE SMOOTH",
"1264 217 OFFCURVE",
"1273 211 OFFCURVE",
"1293 206 CURVE SMOOTH",
"1315 201 OFFCURVE",
"1324 188 OFFCURVE",
"1324 171 CURVE SMOOTH",
"1324 141 OFFCURVE",
"1294 93 OFFCURVE",
"1248 55 CURVE SMOOTH",
"1163 -15 OFFCURVE",
"995 -91 OFFCURVE",
"831 -91 CURVE SMOOTH",
"640 -91 OFFCURVE",
"562 6 OFFCURVE",
"562 108 CURVE SMOOTH",
"562 202 OFFCURVE",
"629 302 OFFCURVE",
"734 332 CURVE SMOOTH",
"779 345 OFFCURVE",
"825 348 OFFCURVE",
"866 348 CURVE SMOOTH",
"900 348 OFFCURVE",
"930 346 OFFCURVE",
"955 346 CURVE SMOOTH",
"988 346 OFFCURVE",
"1010 350 OFFCURVE",
"1014 366 CURVE",
"1024 434 OFFCURVE",
"804 397 OFFCURVE",
"775 515 CURVE",
"839 556 OFFCURVE",
"864 607 OFFCURVE",
"864 649 CURVE SMOOTH",
"864 663 OFFCURVE",
"862 677 OFFCURVE",
"856 690 CURVE",
"929 746 OFFCURVE",
"1035 782 OFFCURVE",
"1131 782 CURVE SMOOTH",
"1143 782 OFFCURVE",
"1156 781 OFFCURVE",
"1168 780 CURVE SMOOTH",
"1252 772 OFFCURVE",
"1282 733 OFFCURVE",
"1282 690 CURVE SMOOTH",
"1282 632 OFFCURVE",
"1227 564 OFFCURVE",
"1167 558 CURVE SMOOTH",
"1143 556 OFFCURVE",
"1128 545 OFFCURVE",
"1128 540 CURVE SMOOTH",
"1128 537 OFFCURVE",
"1133 535 OFFCURVE",
"1142 535 CURVE SMOOTH",
"1149 535 OFFCURVE",
"1159 536 OFFCURVE",
"1171 539 CURVE SMOOTH",
"1282 564 OFFCURVE",
"1346 628 OFFCURVE",
"1346 687 CURVE SMOOTH",
"1346 740 OFFCURVE",
"1292 792 OFFCURVE",
"1172 805 CURVE SMOOTH",
"1152 807 OFFCURVE",
"1143 807 OFFCURVE",
"1129 807 CURVE SMOOTH",
"1037 807 OFFCURVE",
"923 778 OFFCURVE",
"835 726 CURVE",
"805 757 OFFCURVE",
"756 776 OFFCURVE",
"691 776 CURVE SMOOTH",
"496 776 OFFCURVE",
"328 655 OFFCURVE",
"201 515 CURVE",
"165 531 OFFCURVE",
"135 552 OFFCURVE",
"113 578 CURVE SMOOTH",
"98 594 OFFCURVE",
"86 612 OFFCURVE",
"86 633 CURVE SMOOTH",
"86 641 OFFCURVE",
"88 649 OFFCURVE",
"91 657 CURVE SMOOTH",
"94 663 OFFCURVE",
"95 668 OFFCURVE",
"95 672 CURVE SMOOTH",
"95 679 OFFCURVE",
"91 683 OFFCURVE",
"86 683 CURVE SMOOTH",
"83 683 OFFCURVE",
"78 681 OFFCURVE",
"74 675 CURVE",
"64 668 OFFCURVE",
"59 652 OFFCURVE",
"59 633 CURVE SMOOTH",
"59 609 OFFCURVE",
"67 581 OFFCURVE",
"83 563 CURVE SMOOTH",
"107 535 OFFCURVE",
"143 512 OFFCURVE",
"184 493 CURVE",
"149 454 OFFCURVE",
"119 410 OFFCURVE",
"95 366 CURVE SMOOTH",
"44 275 OFFCURVE",
"18 186 OFFCURVE",
"18 110 CURVE SMOOTH",
"18 38 OFFCURVE",
"42 -16 OFFCURVE",
"91 -36 CURVE SMOOTH",
"110 -44 OFFCURVE",
"130 -48 OFFCURVE",
"150 -48 CURVE SMOOTH",
"278 -48 OFFCURVE",
"424 100 OFFCURVE",
"497 186 CURVE",
"489 163 OFFCURVE",
"485 140 OFFCURVE",
"485 116 CURVE SMOOTH",
"485 -3 OFFCURVE",
"596 -115 OFFCURVE",
"829 -115 CURVE SMOOTH"
);
},
{
closed = 1;
nodes = (
"104 -17 OFFCURVE",
"71 15 OFFCURVE",
"71 81 CURVE SMOOTH",
"71 117 OFFCURVE",
"81 163 OFFCURVE",
"103 219 CURVE SMOOTH",
"138 306 OFFCURVE",
"212 421 OFFCURVE",
"248 472 CURVE",
"312 452 OFFCURVE",
"376 443 OFFCURVE",
"445 443 CURVE SMOOTH",
"483 443 OFFCURVE",
"495 444 OFFCURVE",
"552 449 CURVE SMOOTH",
"605 454 OFFCURVE",
"656 462 OFFCURVE",
"708 483 CURVE",
"734 442 OFFCURVE",
"788 410 OFFCURVE",
"833 395 CURVE",
"799 394 OFFCURVE",
"762 387 OFFCURVE",
"726 377 CURVE SMOOTH",
"705 371 OFFCURVE",
"681 362 OFFCURVE",
"661 351 CURVE",
"662 354 OFFCURVE",
"665 358 OFFCURVE",
"666 359 CURVE SMOOTH",
"684 378 OFFCURVE",
"691 399 OFFCURVE",
"691 415 CURVE SMOOTH",
"691 433 OFFCURVE",
"682 446 OFFCURVE",
"668 446 CURVE SMOOTH",
"653 446 OFFCURVE",
"631 430 OFFCURVE",
"608 387 CURVE SMOOTH",
"555 290 OFFCURVE",
"449 158 OFFCURVE",
"344 71 CURVE SMOOTH",
"273 12 OFFCURVE",
"206 -17 OFFCURVE",
"156 -17 CURVE SMOOTH"
);
},
{
closed = 1;
nodes = (
"370 467 OFFCURVE",
"316 475 OFFCURVE",
"264 492 CURVE",
"377 627 OFFCURVE",
"507 751 OFFCURVE",
"694 751 CURVE SMOOTH",
"745 751 OFFCURVE",
"787 736 OFFCURVE",
"807 709 CURVE",
"740 663 OFFCURVE",
"693 602 OFFCURVE",
"693 531 CURVE SMOOTH",
"693 521 OFFCURVE",
"694 513 OFFCURVE",
"697 505 CURVE",
"657 489 OFFCURVE",
"607 477 OFFCURVE",
"552 473 CURVE SMOOTH",
"509 469 OFFCURVE",
"471 467 OFFCURVE",
"436 467 CURVE SMOOTH"
);
},
{
closed = 1;
nodes = (
"773 556 LINE",
"775 595 OFFCURVE",
"795 629 OFFCURVE",
"823 659 CURVE",
"823 619 OFFCURVE",
"805 583 OFFCURVE",
"772 552 CURVE"
);
}
);
width = 1380;
}
);
note = AE;
unicode = 00C6;
},
{
glyphname = B;
lastChange = "2023-07-04 22:52:45 +0000";
layers = (
{
anchors = (
{
name = bottom;
position = "{524, 0}";
},
{
name = top;
position = "{931, 790}";
}
);
background = {
paths = (
{
closed = 1;
nodes = (
"253 249 OFFCURVE",
"325 274 OFFCURVE",
"389 322 CURVE",
"452 293 OFFCURVE",
"529 268 OFFCURVE",
"657 252 CURVE SMOOTH",
"672 250 OFFCURVE",
"687 249 OFFCURVE",
"702 249 CURVE SMOOTH",
"859 249 OFFCURVE",
"1043 341 OFFCURVE",
"1043 482 CURVE SMOOTH",
"1043 498 OFFCURVE",
"1041 514 OFFCURVE",
"1036 531 CURVE SMOOTH",
"1013 606 OFFCURVE",
"911 653 OFFCURVE",
"846 674 CURVE",
"921 677 OFFCURVE",
"1028 705 OFFCURVE",
"1072 779 CURVE SMOOTH",
"1086 804 OFFCURVE",
"1093 827 OFFCURVE",
"1093 849 CURVE SMOOTH",
"1093 931 OFFCURVE",
"1000 993 OFFCURVE",
"864 1028 CURVE",
"867 1033 OFFCURVE",
"880 1047 OFFCURVE",
"894 1056 CURVE SMOOTH",
"904 1063 OFFCURVE",
"909 1069 OFFCURVE",
"909 1072 CURVE SMOOTH",
"909 1075 OFFCURVE",
"907 1076 OFFCURVE",
"903 1076 CURVE SMOOTH",
"899 1076 OFFCURVE",
"892 1075 OFFCURVE",
"883 1071 CURVE SMOOTH",
"867 1064 OFFCURVE",
"846 1052 OFFCURVE",
"828 1036 CURVE",
"762 1050 OFFCURVE",
"687 1058 OFFCURVE",
"610 1058 CURVE SMOOTH",
"552 1058 OFFCURVE",
"493 1054 OFFCURVE",
"433 1045 CURVE SMOOTH",
"203 1013 OFFCURVE",
"82 878 OFFCURVE",
"82 768 CURVE SMOOTH",
"82 709 OFFCURVE",
"116 657 OFFCURVE",
"188 632 CURVE SMOOTH",
"204 627 OFFCURVE",
"221 624 OFFCURVE",
"238 624 CURVE SMOOTH",
"313 624 OFFCURVE",
"389 676 OFFCURVE",
"401 757 CURVE SMOOTH",
"401 758 LINE SMOOTH",
"401 769 OFFCURVE",
"396 773 OFFCURVE",
"391 773 CURVE SMOOTH",
"386 773 OFFCURVE",
"381 769 OFFCURVE",
"381 766 CURVE",
"384 741 OFFCURVE",
"333 650 OFFCURVE",
"243 650 CURVE SMOOTH",
"229 650 OFFCURVE",
"214 652 OFFCURVE",
"198 657 CURVE SMOOTH",
"151 671 OFFCURVE",
"128 706 OFFCURVE",
"128 748 CURVE SMOOTH",
"128 838 OFFCURVE",
"230 963 OFFCURVE",
"419 1004 CURVE SMOOTH",
"495 1020 OFFCURVE",
"572 1027 OFFCURVE",
"644 1027 CURVE SMOOTH",
"701 1027 OFFCURVE",
"755 1022 OFFCURVE",
"804 1014 CURVE",
"746 949 LINE SMOOTH",
"575 758 OFFCURVE",
"503 489 OFFCURVE",
"369 360 CURVE",
"306 391 OFFCURVE",
"260 421 OFFCURVE",
"224 434 CURVE SMOOTH",
"192 445 OFFCURVE",
"163 450 OFFCURVE",
"137 450 CURVE SMOOTH",
"57 450 OFFCURVE",
"11 401 OFFCURVE",
"11 352 CURVE SMOOTH",
"11 307 OFFCURVE",
"49 262 OFFCURVE",
"133 252 CURVE SMOOTH",
"148 250 OFFCURVE",
"163 249 OFFCURVE",
"178 249 CURVE SMOOTH"
);
},
{
closed = 1;
nodes = (
"99 283 OFFCURVE",
"70 320 OFFCURVE",
"70 355 CURVE SMOOTH",
"70 388 OFFCURVE",
"95 419 OFFCURVE",
"145 419 CURVE SMOOTH",
"160 419 OFFCURVE",
"178 416 OFFCURVE",
"198 409 CURVE SMOOTH",
"257 387 OFFCURVE",
"300 363 OFFCURVE",
"347 340 CURVE",
"293 300 OFFCURVE",
"232 276 OFFCURVE",
"158 280 CURVE SMOOTH"
);
},
{
closed = 1;
nodes = (
"677 278 OFFCURVE",
"666 279 OFFCURVE",
"655 280 CURVE SMOOTH",
"552 289 OFFCURVE",
"473 314 OFFCURVE",
"411 340 CURVE",
"425 352 OFFCURVE",
"437 363 OFFCURVE",
"449 377 CURVE SMOOTH",
"583 521 OFFCURVE",
"718 819 OFFCURVE",
"852 1004 CURVE",
"887 996 OFFCURVE",
"919 985 OFFCURVE",
"947 972 CURVE SMOOTH",
"1006 945 OFFCURVE",
"1029 907 OFFCURVE",
"1029 870 CURVE SMOOTH",
"1029 788 OFFCURVE",
"924 703 OFFCURVE",
"839 702 CURVE SMOOTH",
"797 702 OFFCURVE",
"759 708 OFFCURVE",
"732 708 CURVE SMOOTH",
"709 708 OFFCURVE",
"694 703 OFFCURVE",
"694 687 CURVE",
"704 666 OFFCURVE",
"803 653 OFFCURVE",
"880 614 CURVE SMOOTH",
"941 585 OFFCURVE",
"968 540 OFFCURVE",
"968 491 CURVE SMOOTH",
"968 391 OFFCURVE",
"852 278 OFFCURVE",
"688 278 CURVE SMOOTH"
);
}
);
};
layerId = "61E7180A-0B32-4047-B910-001D8BB62225";
paths = (
{
closed = 1;
nodes = (
"253 -39 OFFCURVE",
"325 -14 OFFCURVE",
"389 34 CURVE",
"452 5 OFFCURVE",
"529 -20 OFFCURVE",
"657 -36 CURVE SMOOTH",
"672 -38 OFFCURVE",
"687 -39 OFFCURVE",
"702 -39 CURVE SMOOTH",
"859 -39 OFFCURVE",
"1043 53 OFFCURVE",
"1043 194 CURVE SMOOTH",
"1043 210 OFFCURVE",
"1041 226 OFFCURVE",
"1036 243 CURVE SMOOTH",
"1013 318 OFFCURVE",
"911 365 OFFCURVE",
"846 386 CURVE",
"921 389 OFFCURVE",
"1028 417 OFFCURVE",
"1072 491 CURVE SMOOTH",
"1086 516 OFFCURVE",
"1093 539 OFFCURVE",
"1093 561 CURVE SMOOTH",
"1093 643 OFFCURVE",
"1000 705 OFFCURVE",
"864 740 CURVE",
"867 745 OFFCURVE",
"880 759 OFFCURVE",
"894 768 CURVE SMOOTH",
"904 775 OFFCURVE",
"909 781 OFFCURVE",
"909 784 CURVE SMOOTH",
"909 787 OFFCURVE",
"907 788 OFFCURVE",
"903 788 CURVE SMOOTH",
"899 788 OFFCURVE",
"892 787 OFFCURVE",
"883 783 CURVE SMOOTH",
"867 776 OFFCURVE",
"846 764 OFFCURVE",
"828 748 CURVE",
"762 762 OFFCURVE",
"687 770 OFFCURVE",
"610 770 CURVE SMOOTH",
"554 770 OFFCURVE",
"493 766 OFFCURVE",
"432 757 CURVE SMOOTH",
"203 725 OFFCURVE",
"82 589 OFFCURVE",
"82 480 CURVE SMOOTH",
"82 421 OFFCURVE",
"116 369 OFFCURVE",
"188 344 CURVE SMOOTH",
"204 339 OFFCURVE",
"221 336 OFFCURVE",
"238 336 CURVE SMOOTH",
"313 336 OFFCURVE",
"401 387 OFFCURVE",
"401 469 CURVE SMOOTH",
"401 470 LINE SMOOTH",
"401 481 OFFCURVE",
"396 485 OFFCURVE",
"391 485 CURVE SMOOTH",
"386 485 OFFCURVE",
"381 481 OFFCURVE",
"381 478 CURVE SMOOTH",
"384 453 OFFCURVE",
"333 362 OFFCURVE",
"243 362 CURVE SMOOTH",
"229 362 OFFCURVE",
"214 364 OFFCURVE",
"198 369 CURVE SMOOTH",
"151 383 OFFCURVE",
"128 418 OFFCURVE",
"128 460 CURVE SMOOTH",
"128 550 OFFCURVE",
"230 675 OFFCURVE",
"419 716 CURVE SMOOTH",
"495 732 OFFCURVE",
"572 739 OFFCURVE",
"644 739 CURVE SMOOTH",
"701 739 OFFCURVE",
"755 734 OFFCURVE",
"804 726 CURVE",
"746 661 LINE SMOOTH",
"575 470 OFFCURVE",
"503 201 OFFCURVE",
"369 72 CURVE",
"306 103 OFFCURVE",
"258 134 OFFCURVE",
"224 146 CURVE SMOOTH",
"192 157 OFFCURVE",
"163 162 OFFCURVE",
"137 162 CURVE SMOOTH",
"57 162 OFFCURVE",
"11 113 OFFCURVE",
"11 64 CURVE SMOOTH",
"11 19 OFFCURVE",
"49 -26 OFFCURVE",
"133 -36 CURVE SMOOTH",
"148 -38 OFFCURVE",
"163 -39 OFFCURVE",
"178 -39 CURVE SMOOTH"
);
},
{
closed = 1;
nodes = (
"99 -5 OFFCURVE",
"70 32 OFFCURVE",
"70 67 CURVE SMOOTH",
"70 100 OFFCURVE",
"95 131 OFFCURVE",
"145 131 CURVE SMOOTH",
"160 131 OFFCURVE",
"178 128 OFFCURVE",
"198 121 CURVE SMOOTH",
"253 101 OFFCURVE",
"300 75 OFFCURVE",
"347 52 CURVE",
"293 12 OFFCURVE",
"232 -12 OFFCURVE",
"158 -8 CURVE SMOOTH"
);
},
{
closed = 1;
nodes = (
"677 -10 OFFCURVE",
"666 -9 OFFCURVE",
"655 -8 CURVE SMOOTH",
"552 1 OFFCURVE",
"473 26 OFFCURVE",
"411 52 CURVE",
"427 66 OFFCURVE",
"433 71 OFFCURVE",
"449 89 CURVE SMOOTH",
"586 237 OFFCURVE",
"718 531 OFFCURVE",
"852 716 CURVE",
"887 708 OFFCURVE",
"919 697 OFFCURVE",
"947 684 CURVE SMOOTH",
"1006 657 OFFCURVE",
"1029 619 OFFCURVE",
"1029 582 CURVE SMOOTH",
"1029 500 OFFCURVE",
"924 414 OFFCURVE",
"839 414 CURVE SMOOTH",
"797 414 OFFCURVE",
"759 420 OFFCURVE",
"732 420 CURVE SMOOTH",
"709 420 OFFCURVE",
"694 415 OFFCURVE",
"694 399 CURVE",
"704 378 OFFCURVE",
"803 364 OFFCURVE",
"881 326 CURVE SMOOTH",
"941 297 OFFCURVE",
"968 250 OFFCURVE",
"968 203 CURVE SMOOTH",
"968 103 OFFCURVE",
"852 -10 OFFCURVE",
"688 -10 CURVE SMOOTH"
);
}
);
width = 1047;
}
);
note = B;
unicode = 0042;
},
{
color = 5;
glyphname = "Beta-latin";
lastChange = "2023-07-10 20:43:17 +0000";
layers = (
{
background = {
paths = (
{
closed = 1;
nodes = (
"-103 -192 OFFCURVE",
"-195 -301 OFFCURVE",
"-295 -301 CURVE SMOOTH",
"-320 -301 OFFCURVE",
"-348 -292 OFFCURVE",
"-357 -272 CURVE",
"-356 -273 OFFCURVE",
"-351 -275 OFFCURVE",
"-343 -275 CURVE SMOOTH",
"-326 -275 OFFCURVE",
"-316 -260 OFFCURVE",
"-316 -244 CURVE SMOOTH",
"-316 -229 OFFCURVE",
"-326 -214 OFFCURVE",
"-348 -214 CURVE SMOOTH",
"-362 -214 OFFCURVE",
"-383 -226 OFFCURVE",
"-383 -261 CURVE SMOOTH",
"-383 -316 OFFCURVE",
"-327 -330 OFFCURVE",
"-276 -327 CURVE SMOOTH",
"-196 -322 OFFCURVE",
"-103 -249 OFFCURVE",
"-38 -173 CURVE SMOOTH",
"-14 -145 OFFCURVE",
"9 -108 OFFCURVE",
"31 -65 CURVE",
"-35 -65 LINE"
);
},
{
closed = 1;
nodes = (
"233 12 OFFCURVE",
"218 29 OFFCURVE",
"218 50 CURVE SMOOTH",
"218 54 OFFCURVE",
"219 56 OFFCURVE",
"220 63 CURVE SMOOTH",
"222 75 OFFCURVE",
"239 105 OFFCURVE",
"252 95 CURVE",
"253 98 OFFCURVE",
"253 101 OFFCURVE",
"253 104 CURVE SMOOTH",
"253 112 OFFCURVE",
"250 119 OFFCURVE",
"249 122 CURVE SMOOTH",
"245 133 OFFCURVE",
"236 135 OFFCURVE",
"232 135 CURVE SMOOTH",
"232 135 OFFCURVE",
"231 135 OFFCURVE",
"231 135 CURVE",
"255 180 OFFCURVE",
"298 267 OFFCURVE",
"324 322 CURVE",
"323 315 OFFCURVE",
"322 308 OFFCURVE",
"322 299 CURVE SMOOTH",
"322 254 OFFCURVE",
"338 190 OFFCURVE",
"338 138 CURVE SMOOTH",
"338 93 OFFCURVE",
"324 59 OFFCURVE",
"307 39 CURVE SMOOTH",
"294 24 OFFCURVE",
"280 12 OFFCURVE",
"256 12 CURVE SMOOTH"
);
},
{
closed = 1;
nodes = (
"110 92 OFFCURVE",
"176 335 OFFCURVE",
"257 559 CURVE SMOOTH",
"273 604 OFFCURVE",
"320 673 OFFCURVE",
"382 673 CURVE SMOOTH",
"393 673 OFFCURVE",
"403 671 OFFCURVE",
"414 667 CURVE SMOOTH",
"453 653 OFFCURVE",
"469 618 OFFCURVE",
"469 579 CURVE SMOOTH",
"469 537 OFFCURVE",
"451 490 OFFCURVE",
"423 457 CURVE SMOOTH",
"364 386 OFFCURVE",
"348 411 OFFCURVE",
"300 311 CURVE SMOOTH",
"274 260 OFFCURVE",
"240 189 OFFCURVE",
"213 137 CURVE",
"190 137 OFFCURVE",
"176 107 OFFCURVE",
"176 73 CURVE SMOOTH",
"176 58 OFFCURVE",
"179 41 OFFCURVE",
"186 27 CURVE SMOOTH",
"200 -3 OFFCURVE",
"244 -12 OFFCURVE",
"284 -12 CURVE SMOOTH",
"344 -12 OFFCURVE",
"398 4 OFFCURVE",
"440 54 CURVE SMOOTH",
"471 91 OFFCURVE",
"497 149 OFFCURVE",
"516 189 CURVE SMOOTH",
"519 196 OFFCURVE",
"514 201 OFFCURVE",
"508 201 CURVE SMOOTH",
"505 201 OFFCURVE",
"503 200 OFFCURVE",
"501 196 CURVE SMOOTH",
"482 158 OFFCURVE",
"449 93 OFFCURVE",
"425 64 CURVE SMOOTH",
"399 33 OFFCURVE",
"353 7 OFFCURVE",
"314 11 CURVE",
"368 20 OFFCURVE",
"399 99 OFFCURVE",
"399 136 CURVE SMOOTH",
"399 177 OFFCURVE",
"378 212 OFFCURVE",
"363 249 CURVE SMOOTH",
"356 266 OFFCURVE",
"348 301 OFFCURVE",
"348 331 CURVE SMOOTH",
"348 339 OFFCURVE",
"349 347 OFFCURVE",
"350 354 CURVE SMOOTH",
"359 390 OFFCURVE",
"400 403 OFFCURVE",
"445 440 CURVE SMOOTH",
"491 479 OFFCURVE",
"513 526 OFFCURVE",
"513 575 CURVE SMOOTH",
"513 624 OFFCURVE",
"499 665 OFFCURVE",
"436 688 CURVE SMOOTH",
"420 694 OFFCURVE",
"394 699 OFFCURVE",
"375 699 CURVE SMOOTH",
"303 699 OFFCURVE",
"262 646 OFFCURVE",
"225 572 CURVE",
"79 215 OFFCURVE",
"122 311 OFFCURVE",
"26 67 CURVE SMOOTH",
"9 23 OFFCURVE",
"-12 -22 OFFCURVE",
"-35 -65 CURVE",
"31 -65 LINE"
);
}
);
};
layerId = "61E7180A-0B32-4047-B910-001D8BB62225";
paths = (
{
closed = 1;
nodes = (
"365 434 OFFCURVE",
"661 487 OFFCURVE",
"680 663 CURVE SMOOTH",
"687 729 OFFCURVE",
"638 774 OFFCURVE",
"523 774 CURVE SMOOTH",
"409 774 OFFCURVE",
"310 711 OFFCURVE",
"210 529 CURVE",
"73 223 OFFCURVE",
"10 86 OFFCURVE",
"0 67 CURVE SMOOTH",
"-92 -119 OFFCURVE",
"-201 -301 OFFCURVE",
"-341 -301 CURVE",
"-344 -327 LINE",
"-172 -316 OFFCURVE",
"-23 -123 OFFCURVE",
"89 105 CURVE",
"96 45 OFFCURVE",
"114 -15 OFFCURVE",
"225 -15 CURVE SMOOTH",
"327 -15 OFFCURVE",
"392 -6 OFFCURVE",
"442 40 CURVE SMOOTH",
"476 71 OFFCURVE",
"501 121 OFFCURVE",
"532 189 CURVE SMOOTH",
"535 196 OFFCURVE",
"530 201 OFFCURVE",
"524 201 CURVE SMOOTH",
"521 201 OFFCURVE",
"519 200 OFFCURVE",
"517 196 CURVE SMOOTH",
"463 87 OFFCURVE",
"436 13 OFFCURVE",
"302 11 CURVE",
"375 45 OFFCURVE",
"401 94 OFFCURVE",
"405 133 CURVE SMOOTH",
"413 207 OFFCURVE",
"347 266 OFFCURVE",
"354 326 CURVE SMOOTH"
);
},
{
closed = 1;
nodes = (
"592 506 OFFCURVE",
"337 441 OFFCURVE",
"324 317 CURVE SMOOTH",
"322 296 OFFCURVE",
"334 223 OFFCURVE",
"328 170 CURVE SMOOTH",
"319 80 OFFCURVE",
"280 5 OFFCURVE",
"209 5 CURVE SMOOTH",
"165 5 OFFCURVE",
"110 47 OFFCURVE",
"119 136 CURVE SMOOTH",
"122 163 OFFCURVE",
"130 195 OFFCURVE",
"146 232 CURVE SMOOTH",
"163 272 OFFCURVE",
"215 402 OFFCURVE",
"265 523 CURVE",
"334 663 OFFCURVE",
"399 756 OFFCURVE",
"499 756 CURVE SMOOTH",
"574 756 OFFCURVE",
"614 718 OFFCURVE",
"608 653 CURVE SMOOTH"
);
}
);
width = 459;
}
);
unicode = A7B4;
},
{
color = 5;
glyphname = Bhook;
lastChange = "2023-07-11 19:02:04 +0000";
layers = (
{
anchors = (
{
name = bottom;
position = "{524, 0}";
},
{
name = top;
position = "{493, -226}";
}
);
background = {
paths = (
{
closed = 1;
nodes = (
"605 768 OFFCURVE",
"563 770 OFFCURVE",
"520 770 CURVE SMOOTH",
"325 770 OFFCURVE",
"31 687 OFFCURVE",
"31 480 CURVE SMOOTH",
"31 396 OFFCURVE",
"105 336 OFFCURVE",
"187 336 CURVE SMOOTH",
"262 336 OFFCURVE",
"350 387 OFFCURVE",
"350 469 CURVE SMOOTH",
"350 470 LINE SMOOTH",
"350 481 OFFCURVE",
"345 485 OFFCURVE",
"340 485 CURVE SMOOTH",
"335 485 OFFCURVE",
"330 481 OFFCURVE",
"330 478 CURVE",
"333 453 OFFCURVE",
"282 362 OFFCURVE",
"192 362 CURVE SMOOTH",
"132 362 OFFCURVE",
"77 395 OFFCURVE",
"77 460 CURVE SMOOTH",
"77 655 OFFCURVE",
"369 739 OFFCURVE",
"554 739 CURVE SMOOTH",
"584 739 OFFCURVE",
"613 738 OFFCURVE",
"641 735 CURVE",
"646 763 LINE"
);
}
);
};
layerId = "61E7180A-0B32-4047-B910-001D8BB62225";
paths = (
{
closed = 1;
nodes = (
"253 -39 OFFCURVE",
"325 -14 OFFCURVE",
"389 34 CURVE",
"452 5 OFFCURVE",
"529 -20 OFFCURVE",
"657 -36 CURVE SMOOTH",
"672 -38 OFFCURVE",
"687 -39 OFFCURVE",
"702 -39 CURVE SMOOTH",
"859 -39 OFFCURVE",
"1043 53 OFFCURVE",
"1043 194 CURVE SMOOTH",
"1043 210 OFFCURVE",
"1041 226 OFFCURVE",
"1036 243 CURVE SMOOTH",
"1013 318 OFFCURVE",
"911 365 OFFCURVE",
"846 386 CURVE",
"921 389 OFFCURVE",
"1028 417 OFFCURVE",
"1072 491 CURVE SMOOTH",
"1086 516 OFFCURVE",
"1093 539 OFFCURVE",
"1093 561 CURVE SMOOTH",
"1093 643 OFFCURVE",
"1000 705 OFFCURVE",
"864 740 CURVE",
"867 745 OFFCURVE",
"880 759 OFFCURVE",
"894 768 CURVE SMOOTH",
"904 775 OFFCURVE",
"909 781 OFFCURVE",
"909 784 CURVE SMOOTH",
"909 787 OFFCURVE",
"907 788 OFFCURVE",
"903 788 CURVE SMOOTH",
"899 788 OFFCURVE",
"892 788 OFFCURVE",
"883 783 CURVE SMOOTH",
"852 766 OFFCURVE",
"773 691 OFFCURVE",
"746 661 CURVE SMOOTH",
"575 470 OFFCURVE",
"503 201 OFFCURVE",
"369 72 CURVE",
"306 103 OFFCURVE",
"258 134 OFFCURVE",
"224 146 CURVE SMOOTH",
"192 157 OFFCURVE",
"163 162 OFFCURVE",
"137 162 CURVE SMOOTH",
"57 162 OFFCURVE",
"11 113 OFFCURVE",
"11 64 CURVE SMOOTH",
"11 19 OFFCURVE",
"49 -26 OFFCURVE",
"133 -36 CURVE SMOOTH",
"148 -38 OFFCURVE",
"163 -39 OFFCURVE",
"178 -39 CURVE SMOOTH"
);
},
{
closed = 1;
nodes = (
"99 -5 OFFCURVE",
"70 32 OFFCURVE",
"70 67 CURVE SMOOTH",
"70 100 OFFCURVE",
"95 131 OFFCURVE",
"145 131 CURVE SMOOTH",
"160 131 OFFCURVE",
"178 128 OFFCURVE",
"198 121 CURVE SMOOTH",
"253 101 OFFCURVE",
"300 75 OFFCURVE",
"347 52 CURVE",
"293 12 OFFCURVE",
"232 -12 OFFCURVE",
"158 -8 CURVE SMOOTH"
);
},
{
closed = 1;
nodes = (
"677 -10 OFFCURVE",
"666 -9 OFFCURVE",
"655 -8 CURVE SMOOTH",
"552 1 OFFCURVE",
"473 26 OFFCURVE",
"411 52 CURVE",
"427 66 OFFCURVE",
"433 71 OFFCURVE",
"449 89 CURVE SMOOTH",
"586 237 OFFCURVE",
"718 531 OFFCURVE",
"852 716 CURVE",
"887 708 OFFCURVE",
"919 697 OFFCURVE",
"947 684 CURVE SMOOTH",
"1006 657 OFFCURVE",
"1029 619 OFFCURVE",
"1029 582 CURVE SMOOTH",
"1029 500 OFFCURVE",
"924 414 OFFCURVE",
"839 414 CURVE SMOOTH",
"797 414 OFFCURVE",
"759 420 OFFCURVE",
"732 420 CURVE SMOOTH",
"709 420 OFFCURVE",
"694 415 OFFCURVE",
"694 399 CURVE",
"704 378 OFFCURVE",
"803 364 OFFCURVE",
"881 326 CURVE SMOOTH",
"941 297 OFFCURVE",
"968 250 OFFCURVE",
"968 203 CURVE SMOOTH",
"968 103 OFFCURVE",
"852 -10 OFFCURVE",
"688 -10 CURVE SMOOTH"
);
},
{
closed = 1;
nodes = (
"406 452 OFFCURVE",
"446 511 OFFCURVE",
"446 543 CURVE SMOOTH",
"446 548 OFFCURVE",
"445 553 OFFCURVE",
"444 556 CURVE SMOOTH",
"440 564 OFFCURVE",
"429 557 OFFCURVE",
"425 553 CURVE",
"413 529 OFFCURVE",
"394 497 OFFCURVE",
"365 489 CURVE SMOOTH",
"357 487 OFFCURVE",
"350 486 OFFCURVE",
"343 486 CURVE SMOOTH",
"314 486 OFFCURVE",
"299 503 OFFCURVE",
"288 523 CURVE SMOOTH",
"279 538 OFFCURVE",
"275 556 OFFCURVE",
"275 577 CURVE SMOOTH",
"275 615 OFFCURVE",
"288 659 OFFCURVE",
"306 702 CURVE SMOOTH",
"312 717 OFFCURVE",
"324 751 OFFCURVE",
"329 786 CURVE",
"453 738 OFFCURVE",
"714 741 OFFCURVE",
"820 721 CURVE",
"843 744 LINE",
"765 764 OFFCURVE",
"456 775 OFFCURVE",
"330 822 CURVE",
"329 858 OFFCURVE",
"314 887 OFFCURVE",
"285 887 CURVE SMOOTH",
"263 887 OFFCURVE",
"260 867 OFFCURVE",
"260 856 CURVE SMOOTH",
"260 830 OFFCURVE",
"278 810 OFFCURVE",
"309 795 CURVE",
"303 766 OFFCURVE",
"287 735 OFFCURVE",
"275 715 CURVE SMOOTH",
"238 653 OFFCURVE",
"205 579 OFFCURVE",
"205 521 CURVE SMOOTH",
"205 504 OFFCURVE",
"208 488 OFFCURVE",
"215 475 CURVE SMOOTH",
"233 442 OFFCURVE",
"265 430 OFFCURVE",
"296 430 CURVE SMOOTH",
"307 430 OFFCURVE",
"317 431 OFFCURVE",
"327 433 CURVE SMOOTH"
);
}
);
width = 1047;
}
);
unicode = 0181;
},
{
glyphname = C;
lastChange = "2023-07-12 17:01:53 +0000";
layers = (
{
anchors = (
{
name = bottom;
position = "{357, -96}";
},
{
name = top;
position = "{629, 800}";
}
);
background = {
anchors = (
{
name = bottom;
position = "{357, 192}";
},
{
name = top;
position = "{588, 1082}";
}
);
paths = (
{
closed = 1;
nodes = (
"473 185 OFFCURVE",
"556 217 OFFCURVE",
"622 263 CURVE SMOOTH",
"708 323 OFFCURVE",
"741 383 OFFCURVE",
"784 472 CURVE SMOOTH",
"787 477 OFFCURVE",
"788 481 OFFCURVE",
"788 484 CURVE SMOOTH",
"788 489 OFFCURVE",
"786 491 OFFCURVE",
"783 491 CURVE SMOOTH",
"780 491 OFFCURVE",
"775 488 OFFCURVE",
"772 481 CURVE SMOOTH",
"730 395 OFFCURVE",
"694 330 OFFCURVE",
"607 279 CURVE SMOOTH",
"542 240 OFFCURVE",
"463 220 OFFCURVE",
"386 220 CURVE SMOOTH",
"346 220 OFFCURVE",
"307 225 OFFCURVE",
"271 236 CURVE SMOOTH",
"160 270 OFFCURVE",
"126 363 OFFCURVE",
"126 462 CURVE SMOOTH",
"126 597 OFFCURVE",
"189 744 OFFCURVE",
"210 771 CURVE",
"263 662 OFFCURVE",
"355 615 OFFCURVE",
"460 600 CURVE SMOOTH",
"484 596 OFFCURVE",
"508 595 OFFCURVE",
"530 595 CURVE SMOOTH",
"733 595 OFFCURVE",
"855 734 OFFCURVE",
"855 861 CURVE SMOOTH",
"855 959 OFFCURVE",
"784 1050 OFFCURVE",
"624 1068 CURVE SMOOTH",
"607 1070 OFFCURVE",
"590 1071 OFFCURVE",
"572 1071 CURVE SMOOTH",
"433 1071 OFFCURVE",
"303 1009 OFFCURVE",
"206 883 CURVE",
"199 920 OFFCURVE",
"193 966 OFFCURVE",
"193 1011 CURVE SMOOTH",
"193 1033 OFFCURVE",
"195 1055 OFFCURVE",
"198 1075 CURVE SMOOTH",
"199 1078 OFFCURVE",
"199 1081 OFFCURVE",
"199 1084 CURVE SMOOTH",
"199 1091 OFFCURVE",
"196 1094 OFFCURVE",
"192 1094 CURVE SMOOTH",
"187 1094 OFFCURVE",
"180 1088 OFFCURVE",
"178 1080 CURVE SMOOTH",
"170 1048 OFFCURVE",
"166 1014 OFFCURVE",
"166 979 CURVE SMOOTH",
"166 932 OFFCURVE",
"173 885 OFFCURVE",
"182 850 CURVE",
"111 760 OFFCURVE",
"60 626 OFFCURVE",
"60 501 CURVE SMOOTH",
"60 381 OFFCURVE",
"108 270 OFFCURVE",
"232 217 CURVE SMOOTH",
"283 195 OFFCURVE",
"335 185 OFFCURVE",
"384 185 CURVE SMOOTH"
);
},
{
closed = 1;
nodes = (
"508 621 OFFCURVE",
"491 622 OFFCURVE",
"474 624 CURVE SMOOTH",
"364 637 OFFCURVE",
"276 687 OFFCURVE",
"230 803 CURVE",
"320 940 OFFCURVE",
"454 1032 OFFCURVE",
"590 1032 CURVE SMOOTH",
"604 1032 OFFCURVE",
"619 1031 OFFCURVE",
"634 1029 CURVE SMOOTH",
"753 1012 OFFCURVE",
"809 935 OFFCURVE",
"809 853 CURVE SMOOTH",
"809 742 OFFCURVE",
"708 621 OFFCURVE",
"524 621 CURVE SMOOTH"
);
}
);
};
layerId = "61E7180A-0B32-4047-B910-001D8BB62225";
paths = (
{
closed = 1;
nodes = (
"60 -12 OFFCURVE",
"229 -103 OFFCURVE",
"384 -103 CURVE SMOOTH",
"567 -103 OFFCURVE",
"698 -4 OFFCURVE",
"775 161 CURVE SMOOTH",
"788 188 OFFCURVE",
"790 193 OFFCURVE",
"790 196 CURVE SMOOTH",
"790 201 OFFCURVE",
"786 203 OFFCURVE",
"783 203 CURVE SMOOTH",
"777 203 OFFCURVE",
"773 200 OFFCURVE",
"770 193 CURVE SMOOTH",
"688 21 OFFCURVE",
"568 -68 OFFCURVE",
"386 -68 CURVE SMOOTH",
"241 -68 OFFCURVE",
"132 -10 OFFCURVE",
"132 198 CURVE SMOOTH",
"132 318 OFFCURVE",
"189 456 OFFCURVE",
"210 483 CURVE",
"263 375 OFFCURVE",
"353 328 OFFCURVE",
"459 312 CURVE SMOOTH",
"486 308 OFFCURVE",
"507 307 OFFCURVE",
"530 307 CURVE SMOOTH",
"733 307 OFFCURVE",
"855 446 OFFCURVE",
"855 573 CURVE SMOOTH",
"855 671 OFFCURVE",
"784 762 OFFCURVE",
"624 780 CURVE SMOOTH",
"607 782 OFFCURVE",
"590 783 OFFCURVE",
"572 783 CURVE SMOOTH",
"433 783 OFFCURVE",
"303 721 OFFCURVE",
"206 595 CURVE",
"199 632 OFFCURVE",
"193 678 OFFCURVE",
"193 723 CURVE SMOOTH",
"193 745 OFFCURVE",
"195 767 OFFCURVE",
"198 787 CURVE",
"199 790 OFFCURVE",
"199 793 OFFCURVE",
"199 796 CURVE SMOOTH",
"199 803 OFFCURVE",
"196 806 OFFCURVE",
"192 806 CURVE SMOOTH",
"187 806 OFFCURVE",
"180 800 OFFCURVE",
"178 792 CURVE SMOOTH",
"170 760 OFFCURVE",
"166 726 OFFCURVE",
"166 691 CURVE SMOOTH",
"166 644 OFFCURVE",
"173 597 OFFCURVE",
"182 562 CURVE",
"111 472 OFFCURVE",
"60 338 OFFCURVE",
"60 213 CURVE SMOOTH"
);
},
{
closed = 1;
nodes = (
"508 333 OFFCURVE",
"491 334 OFFCURVE",
"474 336 CURVE SMOOTH",
"364 349 OFFCURVE",
"276 399 OFFCURVE",
"230 515 CURVE",
"320 652 OFFCURVE",
"454 744 OFFCURVE",
"590 744 CURVE SMOOTH",
"604 744 OFFCURVE",
"619 743 OFFCURVE",
"634 741 CURVE SMOOTH",
"753 724 OFFCURVE",
"809 647 OFFCURVE",
"809 565 CURVE SMOOTH",
"809 454 OFFCURVE",
"708 333 OFFCURVE",
"524 333 CURVE SMOOTH"
);
}
);
width = 714;
}
);
note = C;
unicode = 0043;
},
{
color = 9;
glyphname = Ccircumflex;
lastChange = "2023-08-03 20:32:04 +0000";
layers = (
{
background = {
paths = (
{
closed = 1;
nodes = (
"60 -12 OFFCURVE",
"229 -103 OFFCURVE",
"384 -103 CURVE SMOOTH",
"567 -103 OFFCURVE",
"698 -4 OFFCURVE",
"775 161 CURVE SMOOTH",
"788 188 OFFCURVE",
"790 193 OFFCURVE",
"790 196 CURVE SMOOTH",
"790 201 OFFCURVE",
"786 203 OFFCURVE",
"783 203 CURVE SMOOTH",
"777 203 OFFCURVE",
"773 200 OFFCURVE",
"770 193 CURVE SMOOTH",
"688 21 OFFCURVE",
"568 -68 OFFCURVE",
"386 -68 CURVE SMOOTH",
"241 -68 OFFCURVE",
"132 -10 OFFCURVE",
"132 198 CURVE SMOOTH",
"132 318 OFFCURVE",
"189 456 OFFCURVE",
"210 483 CURVE",
"263 375 OFFCURVE",
"353 328 OFFCURVE",
"459 312 CURVE SMOOTH",
"486 308 OFFCURVE",
"507 307 OFFCURVE",
"530 307 CURVE SMOOTH",
"733 307 OFFCURVE",
"855 446 OFFCURVE",
"855 573 CURVE SMOOTH",
"855 671 OFFCURVE",
"784 762 OFFCURVE",
"624 780 CURVE SMOOTH",
"607 782 OFFCURVE",
"590 783 OFFCURVE",
"572 783 CURVE SMOOTH",
"433 783 OFFCURVE",
"303 721 OFFCURVE",
"206 595 CURVE",
"199 632 OFFCURVE",
"193 678 OFFCURVE",
"193 723 CURVE SMOOTH",
"193 745 OFFCURVE",
"195 767 OFFCURVE",
"198 787 CURVE",
"199 790 OFFCURVE",
"199 793 OFFCURVE",
"199 796 CURVE SMOOTH",
"199 803 OFFCURVE",
"196 806 OFFCURVE",
"192 806 CURVE SMOOTH",
"187 806 OFFCURVE",
"180 800 OFFCURVE",
"178 792 CURVE SMOOTH",
"170 760 OFFCURVE",
"166 726 OFFCURVE",
"166 691 CURVE SMOOTH",
"166 644 OFFCURVE",
"173 597 OFFCURVE",
"182 562 CURVE",
"111 472 OFFCURVE",
"60 338 OFFCURVE",
"60 213 CURVE SMOOTH"
);
},
{
closed = 1;
nodes = (
"508 333 OFFCURVE",
"491 334 OFFCURVE",
"474 336 CURVE SMOOTH",
"364 349 OFFCURVE",
"276 399 OFFCURVE",
"230 515 CURVE",
"320 652 OFFCURVE",
"454 744 OFFCURVE",
"590 744 CURVE SMOOTH",
"604 744 OFFCURVE",
"619 743 OFFCURVE",
"634 741 CURVE SMOOTH",
"753 724 OFFCURVE",
"809 647 OFFCURVE",
"809 565 CURVE SMOOTH",
"809 454 OFFCURVE",
"708 333 OFFCURVE",
"524 333 CURVE SMOOTH"
);
},
{
closed = 1;
nodes = (
"510 866 OFFCURVE",
"514 864 OFFCURVE",
"521 864 CURVE SMOOTH",
"527 864 OFFCURVE",
"536 863 OFFCURVE",
"541 867 CURVE",
"554 873 OFFCURVE",
"646 909 OFFCURVE",
"670 922 CURVE",
"743 870 LINE SMOOTH",
"746 868 OFFCURVE",
"752 864 OFFCURVE",
"757 864 CURVE SMOOTH",
"761 864 OFFCURVE",
"764 865 OFFCURVE",
"764 868 CURVE SMOOTH",
"764 869 OFFCURVE",
"763 869 OFFCURVE",
"763 870 CURVE",
"700 964 LINE",
"700 966 OFFCURVE",
"695 966 OFFCURVE",
"690 966 CURVE SMOOTH",
"678 966 OFFCURVE",
"662 964 OFFCURVE",
"662 964 CURVE",
"514 869 LINE",
"514 869 LINE"
);
}
);
};
components = (
{
name = C;
},
{
name = circumflexcomb.case;
transform = "{1, 0, 0, 1, 513, 446}";
}
);
layerId = "61E7180A-0B32-4047-B910-001D8BB62225";
width = 714;
}
);
note = Ccircumflex;
unicode = 0108;
},
{
color = 5;
glyphname = "Chi-latin";
lastChange = "2023-09-25 18:06:14 +0000";
layers = (
{
layerId = "61E7180A-0B32-4047-B910-001D8BB62225";
paths = (
{
closed = 1;
nodes = (
"-158 -320 OFFCURVE",
"-131 -313 OFFCURVE",
"-86 -262 CURVE SMOOTH",
"2 -163 OFFCURVE",
"252 117 OFFCURVE",
"417 305 CURVE",
"415 239 OFFCURVE",
"417 209 OFFCURVE",
"417 148 CURVE SMOOTH",
"417 82 OFFCURVE",
"419 40 OFFCURVE",
"425 15 CURVE SMOOTH",
"440 -53 OFFCURVE",
"479 -90 OFFCURVE",
"528 -90 CURVE SMOOTH",
"606 -90 OFFCURVE",
"712 -2 OFFCURVE",
"802 185 CURVE SMOOTH",
"804 190 OFFCURVE",
"805 193 OFFCURVE",
"805 196 CURVE SMOOTH",
"805 200 OFFCURVE",
"803 202 OFFCURVE",
"800 202 CURVE SMOOTH",
"795 202 OFFCURVE",
"788 197 OFFCURVE",
"784 189 CURVE SMOOTH",
"729 63 OFFCURVE",
"648 -26 OFFCURVE",
"585 -26 CURVE SMOOTH",
"551 -26 OFFCURVE",
"522 0 OFFCURVE",
"506 60 CURVE SMOOTH",
"495 101 OFFCURVE",
"492 181 OFFCURVE",
"492 271 CURVE SMOOTH",
"492 316 OFFCURVE",
"493 349 OFFCURVE",
"495 374 CURVE",
"634 510 OFFCURVE",
"806 698 OFFCURVE",
"872 778 CURVE SMOOTH",
"897 809 OFFCURVE",
"907 828 OFFCURVE",
"906 836 CURVE SMOOTH",
"905 841 OFFCURVE",
"902 843 OFFCURVE",
"897 842 CURVE SMOOTH",
"883 841 OFFCURVE",
"851 818 OFFCURVE",
"820 776 CURVE SMOOTH",
"775 713 OFFCURVE",
"599 522 OFFCURVE",
"493 413 CURVE",
"494 573 OFFCURVE",
"481 717 OFFCURVE",
"448 748 CURVE SMOOTH",
"422 772 OFFCURVE",
"390 782 OFFCURVE",
"356 782 CURVE SMOOTH",
"219 782 OFFCURVE",
"40 626 OFFCURVE",
"29 608 CURVE SMOOTH",
"24 601 OFFCURVE",
"21 595 OFFCURVE",
"21 590 CURVE SMOOTH",
"21 579 OFFCURVE",
"33 575 OFFCURVE",
"40 575 CURVE SMOOTH",
"42 575 OFFCURVE",
"44 575 OFFCURVE",
"45 576 CURVE SMOOTH",
"92 623 OFFCURVE",
"144 682 OFFCURVE",
"200 708 CURVE SMOOTH",
"234 724 OFFCURVE",
"270 734 OFFCURVE",
"302 734 CURVE SMOOTH",
"351 734 OFFCURVE",
"391 711 OFFCURVE",
"405 649 CURVE SMOOTH",
"415 605 OFFCURVE",
"416 500 OFFCURVE",
"416 392 CURVE SMOOTH",
"416 344 LINE",
"252 159 OFFCURVE",
"-6 -110 OFFCURVE",
"-79 -184 CURVE SMOOTH",
"-140 -246 OFFCURVE",
"-183 -284 OFFCURVE",
"-186 -296 CURVE SMOOTH",
"-188 -307 OFFCURVE",
"-185 -314 OFFCURVE",
"-175 -317 CURVE SMOOTH"
);
}
);
width = 731;
}
);
unicode = A7B3;
},
{
glyphname = Chook;
lastChange = "2023-09-09 19:09:49 +0000";
layers = (
{
anchors = (
{
name = bottom;
position = "{357, -96}";
},
{
name = top;
position = "{629, 800}";
}
);
annotations = (
{
position = "{437, 457}";
text = "Hook modified for smoother transition";
type = Text;
},
{
angle = 239.73386;
position = "{535, 510}";
type = Arrow;
}
);
background = {
paths = (
{
closed = 1;
nodes = (
"537 749 LINE",
"556 817 OFFCURVE",
"602 903 OFFCURVE",
"663 903 CURVE SMOOTH",
"687 903 OFFCURVE",
"705 882 OFFCURVE",
"705 857 CURVE SMOOTH",
"705 840 OFFCURVE",
"699 820 OFFCURVE",
"694 805 CURVE",
"694 798 OFFCURVE",
"698 795 OFFCURVE",
"702 795 CURVE SMOOTH",
"707 795 OFFCURVE",
"711 797 OFFCURVE",
"715 803 CURVE SMOOTH",
"725 816 OFFCURVE",
"733 839 OFFCURVE",
"733 867 CURVE SMOOTH",
"733 918 OFFCURVE",
"704 974 OFFCURVE",
"653 974 CURVE SMOOTH",
"572 974 OFFCURVE",
"522 840 OFFCURVE",
"501 746 CURVE"
);
}
);
};
layerId = "61E7180A-0B32-4047-B910-001D8BB62225";
paths = (
{
closed = 1;
nodes = (
"498 706 OFFCURVE",
"498 694 CURVE SMOOTH",
"498 582 OFFCURVE",
"573 540 OFFCURVE",
"648 540 CURVE SMOOTH",
"747 540 OFFCURVE",
"800 592 OFFCURVE",
"800 648 CURVE SMOOTH",
"800 713 OFFCURVE",
"729 783 OFFCURVE",
"572 783 CURVE SMOOTH",
"270 783 OFFCURVE",
"60 466 OFFCURVE",
"60 213 CURVE SMOOTH",
"60 -12 OFFCURVE",
"229 -103 OFFCURVE",
"384 -103 CURVE SMOOTH",
"567 -103 OFFCURVE",
"698 -4 OFFCURVE",
"775 161 CURVE SMOOTH",
"788 188 OFFCURVE",
"790 193 OFFCURVE",
"790 196 CURVE SMOOTH",
"790 201 OFFCURVE",
"786 203 OFFCURVE",
"783 203 CURVE SMOOTH",
"777 203 OFFCURVE",
"773 200 OFFCURVE",
"770 193 CURVE SMOOTH",
"688 21 OFFCURVE",
"568 -68 OFFCURVE",
"386 -68 CURVE SMOOTH",
"241 -68 OFFCURVE",
"132 -10 OFFCURVE",
"132 198 CURVE SMOOTH",
"132 410 OFFCURVE",
"288 673 OFFCURVE",
"501 732 CURVE",
"499 719 OFFCURVE"
);
},
{
closed = 1;
nodes = (
"751 693 OFFCURVE",
"751 646 CURVE SMOOTH",
"751 606 OFFCURVE",
"713 568 OFFCURVE",
"642 568 CURVE SMOOTH",
"587 568 OFFCURVE",
"532 602 OFFCURVE",
"532 700 CURVE SMOOTH",
"532 712 OFFCURVE",
"533 725 OFFCURVE",
"535 739 CURVE",
"551 742 OFFCURVE",
"570 744 OFFCURVE",
"590 744 CURVE SMOOTH",
"700 744 OFFCURVE"
);
},
{
closed = 1;
nodes = (
"537 749 LINE",
"556 817 OFFCURVE",
"602 903 OFFCURVE",
"663 903 CURVE SMOOTH",
"687 903 OFFCURVE",
"705 882 OFFCURVE",
"705 857 CURVE SMOOTH",
"705 840 OFFCURVE",
"699 820 OFFCURVE",
"694 805 CURVE",
"694 798 OFFCURVE",
"698 795 OFFCURVE",
"702 795 CURVE SMOOTH",
"707 795 OFFCURVE",
"711 797 OFFCURVE",
"715 803 CURVE SMOOTH",
"725 816 OFFCURVE",
"733 839 OFFCURVE",
"733 867 CURVE SMOOTH",
"733 918 OFFCURVE",
"704 974 OFFCURVE",
"653 974 CURVE SMOOTH",
"572 974 OFFCURVE",
"522 840 OFFCURVE",
"501 746 CURVE"
);
}
);
width = 714;
}
);
unicode = 0187;
},
{
glyphname = D;
lastChange = "2023-07-07 07:52:00 +0000";
layers = (
{
anchors = (
{
name = bottom;
position = "{519, -20}";
},
{
name = center;
position = "{510, 209}";
},
{
name = top;
position = "{899, 768}";
}
);
background = {
anchors = (
{
name = bottom;
position = "{519, 268}";
},
{
name = center;
position = "{510, 497}";
},
{
name = top;
position = "{799, 1069}";
}
);
paths = (
{
closed = 1;
nodes = (
"249 249 OFFCURVE",
"316 274 OFFCURVE",
"377 324 CURVE",
"441 296 OFFCURVE",
"519 268 OFFCURVE",
"650 252 CURVE SMOOTH",
"665 250 OFFCURVE",
"681 249 OFFCURVE",
"696 249 CURVE SMOOTH",
"860 249 OFFCURVE",
"1012 356 OFFCURVE",
"1028 528 CURVE SMOOTH",
"1030 546 OFFCURVE",
"1031 563 OFFCURVE",
"1031 581 CURVE SMOOTH",
"1031 746 OFFCURVE",
"946 878 OFFCURVE",
"823 959 CURVE",
"839 984 OFFCURVE",
"855 1008 OFFCURVE",
"870 1028 CURVE SMOOTH",
"872 1032 OFFCURVE",
"886 1047 OFFCURVE",
"899 1056 CURVE SMOOTH",
"910 1063 OFFCURVE",
"915 1069 OFFCURVE",
"915 1073 CURVE SMOOTH",
"915 1075 OFFCURVE",
"913 1076 OFFCURVE",
"909 1076 CURVE SMOOTH",
"904 1076 OFFCURVE",
"898 1075 OFFCURVE",
"888 1071 CURVE SMOOTH",
"871 1064 OFFCURVE",
"821 1029 OFFCURVE",
"804 1014 CURVE",
"779 985 LINE",
"698 1027 OFFCURVE",
"605 1051 OFFCURVE",
"510 1051 CURVE SMOOTH",
"482 1051 OFFCURVE",
"453 1049 OFFCURVE",
"425 1045 CURVE SMOOTH",
"172 1008 OFFCURVE",
"72 886 OFFCURVE",
"72 781 CURVE SMOOTH",
"72 715 OFFCURVE",
"112 656 OFFCURVE",
"181 632 CURVE SMOOTH",
"197 627 OFFCURVE",
"214 624 OFFCURVE",
"231 624 CURVE SMOOTH",
"306 624 OFFCURVE",
"382 676 OFFCURVE",
"393 757 CURVE SMOOTH",
"395 768 OFFCURVE",
"389 773 OFFCURVE",
"382 773 CURVE SMOOTH",
"378 773 OFFCURVE",
"373 770 OFFCURVE",
"373 766 CURVE SMOOTH",
"371 735 OFFCURVE",
"326 649 OFFCURVE",
"239 649 CURVE SMOOTH",
"225 649 OFFCURVE",
"209 652 OFFCURVE",
"192 657 CURVE SMOOTH",
"143 672 OFFCURVE",
"119 709 OFFCURVE",
"119 754 CURVE SMOOTH",
"119 845 OFFCURVE",
"218 970 OFFCURVE",
"405 1010 CURVE SMOOTH",
"439 1017 OFFCURVE",
"473 1021 OFFCURVE",
"507 1021 CURVE SMOOTH",
"595 1021 OFFCURVE",
"680 997 OFFCURVE",
"750 954 CURVE",
"594 779 OFFCURVE",
"517 503 OFFCURVE",
"369 360 CURVE",
"336 377 OFFCURVE",
"255 421 OFFCURVE",
"216 434 CURVE SMOOTH",
"184 445 OFFCURVE",
"155 450 OFFCURVE",
"129 450 CURVE SMOOTH",
"49 450 OFFCURVE",
"4 402 OFFCURVE",
"4 353 CURVE SMOOTH",
"4 308 OFFCURVE",
"42 262 OFFCURVE",
"126 252 CURVE SMOOTH",
"142 250 OFFCURVE",
"158 249 OFFCURVE",
"173 249 CURVE SMOOTH"
);
},
{
closed = 1;
nodes = (
"96 282 OFFCURVE",
"69 318 OFFCURVE",
"69 352 CURVE SMOOTH",
"69 385 OFFCURVE",
"95 418 OFFCURVE",
"144 418 CURVE SMOOTH",
"158 418 OFFCURVE",
"174 415 OFFCURVE",
"192 409 CURVE SMOOTH",
"252 387 OFFCURVE",
"295 363 OFFCURVE",
"343 340 CURVE",
"288 300 OFFCURVE",
"224 276 OFFCURVE",
"151 280 CURVE SMOOTH"
);
},
{
closed = 1;
nodes = (
"669 279 OFFCURVE",
"659 279 OFFCURVE",
"649 280 CURVE SMOOTH",
"541 289 OFFCURVE",
"464 314 OFFCURVE",
"401 342 CURVE",
"414 352 OFFCURVE",
"426 364 OFFCURVE",
"440 378 CURVE SMOOTH",
"549 497 OFFCURVE",
"681 737 OFFCURVE",
"799 922 CURVE",
"900 841 OFFCURVE",
"968 718 OFFCURVE",
"968 573 CURVE SMOOTH",
"968 558 OFFCURVE",
"967 541 OFFCURVE",
"965 525 CURVE SMOOTH",
"951 395 OFFCURVE",
"838 279 OFFCURVE",
"679 279 CURVE SMOOTH"
);
}
);
};
layerId = "61E7180A-0B32-4047-B910-001D8BB62225";
paths = (
{
closed = 1;
nodes = (
"249 -39 OFFCURVE",
"316 -14 OFFCURVE",
"377 36 CURVE",
"441 8 OFFCURVE",
"519 -20 OFFCURVE",
"650 -36 CURVE SMOOTH",
"665 -38 OFFCURVE",
"681 -39 OFFCURVE",
"696 -39 CURVE SMOOTH",
"860 -39 OFFCURVE",
"1012 68 OFFCURVE",
"1028 240 CURVE SMOOTH",
"1030 258 OFFCURVE",
"1031 275 OFFCURVE",
"1031 293 CURVE SMOOTH",
"1031 458 OFFCURVE",
"946 590 OFFCURVE",
"823 671 CURVE",
"834 688 OFFCURVE",
"872 749 OFFCURVE",
"899 768 CURVE SMOOTH",
"910 775 OFFCURVE",
"915 781 OFFCURVE",
"915 785 CURVE SMOOTH",
"915 787 OFFCURVE",
"913 788 OFFCURVE",
"909 788 CURVE SMOOTH",
"904 788 OFFCURVE",
"898 787 OFFCURVE",
"888 783 CURVE SMOOTH",
"851 768 OFFCURVE",
"811 734 OFFCURVE",
"779 697 CURVE",
"698 739 OFFCURVE",
"605 763 OFFCURVE",
"510 763 CURVE SMOOTH",
"482 763 OFFCURVE",
"453 761 OFFCURVE",
"425 757 CURVE SMOOTH",
"172 720 OFFCURVE",
"72 598 OFFCURVE",
"72 493 CURVE SMOOTH",
"72 421 OFFCURVE",
"119 365 OFFCURVE",
"181 344 CURVE SMOOTH",
"197 339 OFFCURVE",
"214 336 OFFCURVE",
"231 336 CURVE SMOOTH",
"305 336 OFFCURVE",
"382 388 OFFCURVE",
"393 468 CURVE SMOOTH",
"395 480 OFFCURVE",
"389 485 OFFCURVE",
"382 485 CURVE SMOOTH",
"378 485 OFFCURVE",
"373 482 OFFCURVE",
"373 478 CURVE SMOOTH",
"371 447 OFFCURVE",
"326 361 OFFCURVE",
"239 361 CURVE SMOOTH",
"225 361 OFFCURVE",
"209 364 OFFCURVE",
"192 369 CURVE SMOOTH",
"143 384 OFFCURVE",
"119 421 OFFCURVE",
"119 466 CURVE SMOOTH",
"119 557 OFFCURVE",
"218 682 OFFCURVE",
"405 722 CURVE SMOOTH",
"439 729 OFFCURVE",
"473 733 OFFCURVE",
"507 733 CURVE SMOOTH",
"595 733 OFFCURVE",
"680 709 OFFCURVE",
"750 666 CURVE",
"594 491 OFFCURVE",
"517 215 OFFCURVE",
"369 72 CURVE",
"336 89 OFFCURVE",
"255 133 OFFCURVE",
"216 146 CURVE SMOOTH",
"184 157 OFFCURVE",
"155 162 OFFCURVE",
"129 162 CURVE SMOOTH",
"49 162 OFFCURVE",
"4 114 OFFCURVE",
"4 65 CURVE SMOOTH",
"4 20 OFFCURVE",
"42 -26 OFFCURVE",
"126 -36 CURVE SMOOTH",
"142 -38 OFFCURVE",
"158 -39 OFFCURVE",
"173 -39 CURVE SMOOTH"
);
},
{
closed = 1;
nodes = (
"98 -6 OFFCURVE",
"69 28 OFFCURVE",
"69 64 CURVE SMOOTH",
"69 97 OFFCURVE",
"95 130 OFFCURVE",
"144 130 CURVE SMOOTH",
"158 130 OFFCURVE",
"174 127 OFFCURVE",
"192 121 CURVE SMOOTH",
"247 101 OFFCURVE",
"295 75 OFFCURVE",
"343 52 CURVE",
"288 12 OFFCURVE",
"224 -12 OFFCURVE",
"151 -8 CURVE SMOOTH"
);
},
{
closed = 1;
nodes = (
"668 -9 OFFCURVE",
"661 -9 OFFCURVE",
"649 -8 CURVE SMOOTH",
"541 1 OFFCURVE",
"464 26 OFFCURVE",
"401 54 CURVE",
"415 63 OFFCURVE",
"431 82 OFFCURVE",
"440 90 CURVE",
"545 203 OFFCURVE",
"682 450 OFFCURVE",
"799 634 CURVE",
"900 553 OFFCURVE",
"968 430 OFFCURVE",
"968 285 CURVE SMOOTH",
"968 270 OFFCURVE",
"967 253 OFFCURVE",
"965 237 CURVE SMOOTH",
"951 107 OFFCURVE",
"838 -9 OFFCURVE",
"679 -9 CURVE SMOOTH"
);
}
);
width = 1020;
}
);
leftKerningGroup = D;
note = D;
rightKerningGroup = D;
unicode = 0044;
},
{
glyphname = Eth;
lastChange = "2023-07-04 22:52:45 +0000";
layers = (
{
background = {
paths = (
{
closed = 1;
nodes = (
"249 249 OFFCURVE",
"316 274 OFFCURVE",
"377 324 CURVE",
"441 296 OFFCURVE",
"519 268 OFFCURVE",
"650 252 CURVE SMOOTH",
"665 250 OFFCURVE",
"681 249 OFFCURVE",
"696 249 CURVE SMOOTH",
"860 249 OFFCURVE",
"1012 356 OFFCURVE",
"1028 528 CURVE SMOOTH",
"1030 546 OFFCURVE",
"1031 563 OFFCURVE",
"1031 581 CURVE SMOOTH",
"1031 746 OFFCURVE",
"946 878 OFFCURVE",
"823 959 CURVE",
"839 984 OFFCURVE",
"855 1008 OFFCURVE",
"870 1028 CURVE SMOOTH",
"872 1032 OFFCURVE",
"886 1047 OFFCURVE",
"899 1056 CURVE SMOOTH",
"910 1063 OFFCURVE",
"915 1069 OFFCURVE",
"915 1073 CURVE SMOOTH",
"915 1075 OFFCURVE",
"913 1076 OFFCURVE",
"909 1076 CURVE SMOOTH",
"904 1076 OFFCURVE",
"898 1075 OFFCURVE",
"888 1071 CURVE SMOOTH",
"871 1064 OFFCURVE",
"821 1029 OFFCURVE",
"804 1014 CURVE",
"779 985 LINE",
"698 1027 OFFCURVE",
"605 1051 OFFCURVE",
"510 1051 CURVE SMOOTH",
"482 1051 OFFCURVE",
"453 1049 OFFCURVE",
"425 1045 CURVE SMOOTH",
"172 1008 OFFCURVE",
"72 886 OFFCURVE",
"72 781 CURVE SMOOTH",
"72 715 OFFCURVE",
"112 656 OFFCURVE",
"181 632 CURVE SMOOTH",
"197 627 OFFCURVE",
"214 624 OFFCURVE",
"231 624 CURVE SMOOTH",
"306 624 OFFCURVE",
"382 676 OFFCURVE",
"393 757 CURVE SMOOTH",
"395 768 OFFCURVE",
"389 773 OFFCURVE",
"382 773 CURVE SMOOTH",
"378 773 OFFCURVE",
"373 770 OFFCURVE",
"373 766 CURVE SMOOTH",
"371 735 OFFCURVE",
"326 649 OFFCURVE",
"239 649 CURVE SMOOTH",
"225 649 OFFCURVE",
"209 652 OFFCURVE",
"192 657 CURVE SMOOTH",
"143 672 OFFCURVE",
"119 709 OFFCURVE",
"119 754 CURVE SMOOTH",
"119 845 OFFCURVE",
"218 970 OFFCURVE",
"405 1010 CURVE SMOOTH",
"439 1017 OFFCURVE",
"473 1021 OFFCURVE",
"507 1021 CURVE SMOOTH",
"595 1021 OFFCURVE",
"680 997 OFFCURVE",
"750 954 CURVE",
"594 779 OFFCURVE",
"517 503 OFFCURVE",
"369 360 CURVE",
"336 377 OFFCURVE",
"255 421 OFFCURVE",
"216 434 CURVE SMOOTH",
"184 445 OFFCURVE",
"155 450 OFFCURVE",
"129 450 CURVE SMOOTH",
"49 450 OFFCURVE",
"4 402 OFFCURVE",
"4 353 CURVE SMOOTH",
"4 308 OFFCURVE",
"42 262 OFFCURVE",
"126 252 CURVE SMOOTH",
"142 250 OFFCURVE",
"158 249 OFFCURVE",
"173 249 CURVE SMOOTH"
);
},
{
closed = 1;
nodes = (
"96 282 OFFCURVE",
"69 318 OFFCURVE",
"69 352 CURVE SMOOTH",
"69 385 OFFCURVE",
"95 418 OFFCURVE",
"144 418 CURVE SMOOTH",
"158 418 OFFCURVE",
"174 415 OFFCURVE",
"192 409 CURVE SMOOTH",
"252 387 OFFCURVE",
"295 363 OFFCURVE",
"343 340 CURVE",
"288 300 OFFCURVE",
"224 276 OFFCURVE",
"151 280 CURVE SMOOTH"
);
},
{
closed = 1;
nodes = (
"493 567 OFFCURVE",
"565 578 OFFCURVE",
"658 578 CURVE SMOOTH",
"670 578 OFFCURVE",
"676 583 OFFCURVE",
"676 588 CURVE SMOOTH",
"676 595 OFFCURVE",
"667 603 OFFCURVE",
"654 604 CURVE SMOOTH",
"537 607 OFFCURVE",
"476 608 OFFCURVE",
"433 608 CURVE SMOOTH",
"421 608 OFFCURVE",
"417 599 OFFCURVE",
"417 589 CURVE SMOOTH",
"417 575 OFFCURVE",
"425 558 OFFCURVE",
"433 560 CURVE SMOOTH"
);
},
{
closed = 1;
nodes = (
"669 279 OFFCURVE",
"659 279 OFFCURVE",
"649 280 CURVE SMOOTH",
"541 289 OFFCURVE",
"464 314 OFFCURVE",
"401 342 CURVE",
"414 352 OFFCURVE",
"426 364 OFFCURVE",
"440 378 CURVE SMOOTH",
"549 497 OFFCURVE",
"681 737 OFFCURVE",
"799 922 CURVE",
"900 841 OFFCURVE",
"968 718 OFFCURVE",
"968 573 CURVE SMOOTH",
"968 558 OFFCURVE",
"967 541 OFFCURVE",
"965 525 CURVE SMOOTH",
"951 395 OFFCURVE",
"838 279 OFFCURVE",
"679 279 CURVE SMOOTH"
);
}
);
};
layerId = "61E7180A-0B32-4047-B910-001D8BB62225";
paths = (
{
closed = 1;
nodes = (
"249 -39 OFFCURVE",
"316 -14 OFFCURVE",
"377 36 CURVE",
"441 8 OFFCURVE",
"519 -20 OFFCURVE",
"650 -36 CURVE SMOOTH",
"665 -38 OFFCURVE",
"681 -39 OFFCURVE",
"696 -39 CURVE SMOOTH",
"860 -39 OFFCURVE",
"1012 68 OFFCURVE",
"1028 240 CURVE SMOOTH",
"1030 258 OFFCURVE",
"1031 275 OFFCURVE",
"1031 293 CURVE SMOOTH",
"1031 458 OFFCURVE",
"946 590 OFFCURVE",
"823 671 CURVE",
"841 699 OFFCURVE",
"849 711 OFFCURVE",
"869 739 CURVE SMOOTH",
"874 746 OFFCURVE",
"886 759 OFFCURVE",
"899 768 CURVE SMOOTH",
"910 775 OFFCURVE",
"915 781 OFFCURVE",
"915 785 CURVE SMOOTH",
"915 787 OFFCURVE",
"913 788 OFFCURVE",
"909 788 CURVE SMOOTH",
"904 788 OFFCURVE",
"898 787 OFFCURVE",
"888 783 CURVE SMOOTH",
"871 776 OFFCURVE",
"821 741 OFFCURVE",
"804 726 CURVE",
"779 697 LINE",
"698 739 OFFCURVE",
"605 763 OFFCURVE",
"510 763 CURVE SMOOTH",
"482 763 OFFCURVE",
"453 761 OFFCURVE",
"425 757 CURVE SMOOTH",
"172 720 OFFCURVE",
"72 598 OFFCURVE",
"72 493 CURVE SMOOTH",
"72 421 OFFCURVE",
"119 365 OFFCURVE",
"181 344 CURVE SMOOTH",
"197 339 OFFCURVE",
"214 336 OFFCURVE",
"231 336 CURVE SMOOTH",
"305 336 OFFCURVE",
"382 388 OFFCURVE",
"393 468 CURVE SMOOTH",
"395 480 OFFCURVE",
"389 485 OFFCURVE",
"382 485 CURVE SMOOTH",
"378 485 OFFCURVE",
"373 482 OFFCURVE",
"373 478 CURVE SMOOTH",
"371 447 OFFCURVE",
"326 361 OFFCURVE",
"239 361 CURVE SMOOTH",
"225 361 OFFCURVE",
"209 364 OFFCURVE",
"192 369 CURVE SMOOTH",
"143 384 OFFCURVE",
"119 421 OFFCURVE",
"119 466 CURVE SMOOTH",
"119 557 OFFCURVE",
"218 682 OFFCURVE",
"405 722 CURVE SMOOTH",
"439 729 OFFCURVE",
"473 733 OFFCURVE",
"507 733 CURVE SMOOTH",
"595 733 OFFCURVE",
"680 709 OFFCURVE",
"750 666 CURVE",
"594 491 OFFCURVE",
"517 215 OFFCURVE",
"369 72 CURVE",
"336 89 OFFCURVE",
"255 133 OFFCURVE",
"216 146 CURVE SMOOTH",
"184 157 OFFCURVE",
"155 162 OFFCURVE",
"129 162 CURVE SMOOTH",
"49 162 OFFCURVE",
"4 114 OFFCURVE",
"4 65 CURVE SMOOTH",
"4 20 OFFCURVE",
"42 -26 OFFCURVE",
"126 -36 CURVE SMOOTH",
"142 -38 OFFCURVE",
"158 -39 OFFCURVE",
"173 -39 CURVE SMOOTH"
);
},
{
closed = 1;
nodes = (
"98 -6 OFFCURVE",
"69 28 OFFCURVE",
"69 64 CURVE SMOOTH",
"69 97 OFFCURVE",
"95 130 OFFCURVE",
"144 130 CURVE SMOOTH",
"158 130 OFFCURVE",
"174 127 OFFCURVE",
"192 121 CURVE SMOOTH",
"247 101 OFFCURVE",
"295 75 OFFCURVE",
"343 52 CURVE",
"288 12 OFFCURVE",
"224 -12 OFFCURVE",
"151 -8 CURVE SMOOTH"
);
},
{
closed = 1;
nodes = (
"494 280 OFFCURVE",
"575 290 OFFCURVE",
"658 290 CURVE SMOOTH",
"670 290 OFFCURVE",
"676 295 OFFCURVE",
"676 300 CURVE SMOOTH",
"676 306 OFFCURVE",
"667 316 OFFCURVE",
"654 316 CURVE SMOOTH",
"554 319 OFFCURVE",
"471 320 OFFCURVE",
"433 320 CURVE SMOOTH",
"421 320 OFFCURVE",
"417 311 OFFCURVE",
"417 301 CURVE SMOOTH",
"417 287 OFFCURVE",
"424 271 OFFCURVE",
"434 272 CURVE SMOOTH"
);
},
{
closed = 1;
nodes = (
"668 -9 OFFCURVE",
"661 -9 OFFCURVE",
"649 -8 CURVE SMOOTH",
"541 1 OFFCURVE",
"464 26 OFFCURVE",
"401 54 CURVE",
"415 63 OFFCURVE",
"431 82 OFFCURVE",
"440 90 CURVE",
"545 203 OFFCURVE",
"682 450 OFFCURVE",
"799 634 CURVE",
"900 553 OFFCURVE",
"968 430 OFFCURVE",
"968 285 CURVE SMOOTH",
"968 270 OFFCURVE",
"967 253 OFFCURVE",
"965 237 CURVE SMOOTH",
"951 107 OFFCURVE",
"838 -9 OFFCURVE",
"679 -9 CURVE SMOOTH"
);
}
);
width = 1032;
}
);
note = Eth;
unicode = 00D0;
},
{
color = 10;
glyphname = Dhook;
lastChange = "2023-09-25 18:06:14 +0000";
layers = (
{
anchors = (
{
name = bottom;
position = "{549, -20}";
},
{
name = center;
position = "{540, 209}";
},
{
name = top;
position = "{686, 800}";
}
);
layerId = "61E7180A-0B32-4047-B910-001D8BB62225";
paths = (
{
closed = 1;
nodes = (
"312 350 OFFCURVE",
"352 409 OFFCURVE",
"352 441 CURVE SMOOTH",
"352 446 OFFCURVE",
"351 451 OFFCURVE",
"350 454 CURVE SMOOTH",
"346 462 OFFCURVE",
"335 455 OFFCURVE",
"331 451 CURVE",
"319 427 OFFCURVE",
"300 395 OFFCURVE",
"271 387 CURVE SMOOTH",
"263 385 OFFCURVE",
"256 384 OFFCURVE",
"249 384 CURVE SMOOTH",
"220 384 OFFCURVE",
"205 401 OFFCURVE",
"194 421 CURVE SMOOTH",
"185 436 OFFCURVE",
"181 454 OFFCURVE",
"181 475 CURVE SMOOTH",
"181 513 OFFCURVE",
"194 557 OFFCURVE",
"212 600 CURVE SMOOTH",
"218 615 OFFCURVE",
"230 649 OFFCURVE",
"235 684 CURVE",
"359 636 OFFCURVE",
"620 639 OFFCURVE",
"722 594 CURVE",
"753 634 LINE",
"675 654 OFFCURVE",
"362 673 OFFCURVE",
"236 720 CURVE",
"235 756 OFFCURVE",
"220 785 OFFCURVE",
"191 785 CURVE SMOOTH",
"169 785 OFFCURVE",
"166 765 OFFCURVE",
"166 754 CURVE SMOOTH",
"166 728 OFFCURVE",
"184 708 OFFCURVE",
"215 693 CURVE",
"209 664 OFFCURVE",
"193 633 OFFCURVE",
"181 613 CURVE SMOOTH",
"144 551 OFFCURVE",
"111 477 OFFCURVE",
"111 419 CURVE SMOOTH",
"111 402 OFFCURVE",
"114 386 OFFCURVE",
"121 373 CURVE SMOOTH",
"139 340 OFFCURVE",
"171 328 OFFCURVE",
"202 328 CURVE SMOOTH",
"213 328 OFFCURVE",
"223 329 OFFCURVE",
"233 331 CURVE SMOOTH"
);
},
{
closed = 1;
nodes = (
"722 594 LINE",
"914 534 OFFCURVE",
"986 428 OFFCURVE",
"986 308 CURVE SMOOTH",
"986 106 OFFCURVE",
"836 -2 OFFCURVE",
"649 -2 CURVE SMOOTH",
"571 -2 OFFCURVE",
"486 16 OFFCURVE",
"401 54 CURVE",
"415 63 OFFCURVE",
"431 82 OFFCURVE",
"440 90 CURVE",
"545 203 OFFCURVE",
"682 450 OFFCURVE",
"799 634 CURVE SMOOTH",
"813 656 OFFCURVE",
"868 746 OFFCURVE",
"899 768 CURVE SMOOTH",
"910 775 OFFCURVE",
"915 781 OFFCURVE",
"915 785 CURVE SMOOTH",
"915 787 OFFCURVE",
"913 788 OFFCURVE",
"909 788 CURVE SMOOTH",
"904 788 OFFCURVE",
"898 787 OFFCURVE",
"888 783 CURVE SMOOTH",
"851 768 OFFCURVE",
"812 733 OFFCURVE",
"779 697 CURVE SMOOTH",
"750 666 LINE SMOOTH",
"590 495 OFFCURVE",
"517 215 OFFCURVE",
"369 72 CURVE",
"336 89 OFFCURVE",
"255 133 OFFCURVE",
"216 146 CURVE SMOOTH",
"184 157 OFFCURVE",
"155 162 OFFCURVE",
"129 162 CURVE SMOOTH",
"49 162 OFFCURVE",
"4 114 OFFCURVE",
"4 65 CURVE SMOOTH",
"4 20 OFFCURVE",
"42 -26 OFFCURVE",
"126 -36 CURVE SMOOTH",
"142 -38 OFFCURVE",
"158 -39 OFFCURVE",
"173 -39 CURVE SMOOTH",
"249 -39 OFFCURVE",
"316 -14 OFFCURVE",
"377 36 CURVE",
"479 -9 OFFCURVE",
"581 -31 OFFCURVE",
"672 -31 CURVE SMOOTH",
"884 -31 OFFCURVE",
"1043 88 OFFCURVE",
"1043 317 CURVE SMOOTH",
"1043 454 OFFCURVE",
"969 569 OFFCURVE",
"753 634 CURVE"
);
},
{
closed = 1;
nodes = (
"98 -6 OFFCURVE",
"69 28 OFFCURVE",
"69 64 CURVE SMOOTH",
"69 97 OFFCURVE",
"95 130 OFFCURVE",
"144 130 CURVE SMOOTH",
"158 130 OFFCURVE",
"174 127 OFFCURVE",
"192 121 CURVE SMOOTH",
"247 101 OFFCURVE",
"295 75 OFFCURVE",
"343 52 CURVE",
"288 12 OFFCURVE",
"224 -12 OFFCURVE",
"151 -8 CURVE SMOOTH"
);
}
);
width = 1050;
}
);
rightKerningGroup = D;
unicode = 018A;
},
{
glyphname = E;
lastChange = "2023-07-04 22:52:45 +0000";
layers = (
{
anchors = (
{
name = bottom;
position = "{330, -50}";
},
{
name = ogonek;
position = "{358, -47}";
},
{
name = top;
position = "{698, 797}";
},
{
name = topleft;
position = "{20, 706}";
}
);
background = {
anchors = (
{
name = bottom;
position = "{330, 238}";
},
{
name = ogonek;
position = "{338, 241}";
},
{
name = top;
position = "{665, 1112}";
},
{
name = topleft;
position = "{20, 994}";
}
);
paths = (
{
closed = 1;
nodes = (
"492 232 OFFCURVE",
"662 285 OFFCURVE",
"762 364 CURVE SMOOTH",
"814 404 OFFCURVE",
"842 447 OFFCURVE",
"842 483 CURVE SMOOTH",
"842 508 OFFCURVE",
"828 530 OFFCURVE",
"797 545 CURVE SMOOTH",
"787 550 OFFCURVE",
"778 551 OFFCURVE",
"770 551 CURVE SMOOTH",
"760 551 OFFCURVE",
"754 549 OFFCURVE",
"754 545 CURVE SMOOTH",
"754 541 OFFCURVE",
"760 537 OFFCURVE",
"776 533 CURVE SMOOTH",
"794 529 OFFCURVE",
"803 518 OFFCURVE",
"803 503 CURVE SMOOTH",
"803 474 OFFCURVE",
"770 430 OFFCURVE",
"721 391 CURVE SMOOTH",
"634 324 OFFCURVE",
"485 255 OFFCURVE",
"330 255 CURVE SMOOTH",
"160 255 OFFCURVE",
"93 336 OFFCURVE",
"93 426 CURVE SMOOTH",
"93 519 OFFCURVE",
"166 620 OFFCURVE",
"272 650 CURVE SMOOTH",
"318 663 OFFCURVE",
"364 665 OFFCURVE",
"405 665 CURVE SMOOTH",
"434 665 OFFCURVE",
"461 664 OFFCURVE",
"482 664 CURVE SMOOTH",
"512 664 OFFCURVE",
"532 667 OFFCURVE",
"537 682 CURVE",
"551 749 OFFCURVE",
"324 707 OFFCURVE",
"324 838 CURVE SMOOTH",
"324 968 OFFCURVE",
"520 1071 OFFCURVE",
"680 1071 CURVE SMOOTH",
"692 1071 OFFCURVE",
"703 1070 OFFCURVE",
"714 1069 CURVE SMOOTH",
"787 1062 OFFCURVE",
"814 1030 OFFCURVE",
"814 993 CURVE SMOOTH",
"814 936 OFFCURVE",
"750 867 OFFCURVE",
"694 862 CURVE SMOOTH",
"671 859 OFFCURVE",
"658 851 OFFCURVE",
"658 846 CURVE SMOOTH",
"658 842 OFFCURVE",
"663 840 OFFCURVE",
"673 840 CURVE SMOOTH",
"679 840 OFFCURVE",
"687 841 OFFCURVE",
"698 843 CURVE SMOOTH",
"807 867 OFFCURVE",
"873 931 OFFCURVE",
"873 988 CURVE SMOOTH",
"873 1037 OFFCURVE",
"826 1081 OFFCURVE",
"718 1093 CURVE SMOOTH",
"706 1094 OFFCURVE",
"692 1095 OFFCURVE",
"678 1095 CURVE SMOOTH",
"514 1095 OFFCURVE",
"263 994 OFFCURVE",
"249 835 CURVE SMOOTH",
"244 776 OFFCURVE",
"314 730 OFFCURVE",
"370 710 CURVE",
"338 709 OFFCURVE",
"303 702 OFFCURVE",
"268 693 CURVE SMOOTH",
"108 645 OFFCURVE",
"22 534 OFFCURVE",
"22 434 CURVE SMOOTH",
"22 327 OFFCURVE",
"118 232 OFFCURVE",
"326 232 CURVE SMOOTH"
);
},
{
closed = 1;
nodes = (
"725 814 OFFCURVE",
"732 810 OFFCURVE",
"732 810 OFFCURVE",
"743 810 OFFCURVE",
"886 875 OFFCURVE",
"893 890 OFFCURVE",
"893 903 OFFCURVE",
"876 911 OFFCURVE",
"853 911 OFFCURVE",
"829 894 OFFCURVE",
"777 857 OFFCURVE",
"731 824 OFFCURVE"
);
},
{
closed = 1;
nodes = (
"534 395 QCURVE SMOOTH",
"534 421 OFFCURVE",
"458 438 QCURVE SMOOTH",
"423 445 OFFCURVE",
"356 468 OFFCURVE",
"321 516 OFFCURVE",
"321 556 OFFCURVE",
"323 567 QCURVE SMOOTH",
"340 659 OFFCURVE",
"460 718 QCURVE SMOOTH",
"560 767 OFFCURVE",
"747 767 OFFCURVE",
"778 739 QCURVE SMOOTH",
"802 718 OFFCURVE",
"802 693 QCURVE SMOOTH",
"802 690 OFFCURVE",
"802 686 QCURVE SMOOTH",
"794 622 OFFCURVE",
"738 582 QCURVE SMOOTH",
"710 561 OFFCURVE",
"650 554 OFFCURVE",
"646 542 QCURVE",
"645 536 OFFCURVE",
"668 536 OFFCURVE",
"686 540 QCURVE SMOOTH",
"759 556 OFFCURVE",
"862 639 OFFCURVE",
"862 684 QCURVE SMOOTH",
"862 716 OFFCURVE",
"829 745 QCURVE SMOOTH",
"776 791 OFFCURVE",
"662 791 QCURVE SMOOTH",
"597 791 OFFCURVE",
"419 747 OFFCURVE",
"254 623 OFFCURVE",
"247 542 QCURVE SMOOTH",
"247 539 OFFCURVE",
"247 536 QCURVE SMOOTH",
"247 499 OFFCURVE",
"318 435 OFFCURVE",
"367 417 QCURVE",
"319 415 OFFCURVE",
"198 380 OFFCURVE",
"92 308 OFFCURVE",
"36 224 OFFCURVE",
"20 159 OFFCURVE",
"20 115 OFFCURVE",
"28 91 QCURVE SMOOTH",
"63 -3 OFFCURVE",
"176 -38 QCURVE SMOOTH",
"240 -58 OFFCURVE",
"446 -58 OFFCURVE",
"682 14 OFFCURVE",
"837 136 OFFCURVE",
"837 192 QCURVE SMOOTH",
"837 230 OFFCURVE",
"792 254 QCURVE SMOOTH",
"781 260 OFFCURVE",
"747 262 OFFCURVE",
"749 253 QCURVE SMOOTH",
"750 246 OFFCURVE",
"798 235 OFFCURVE",
"798 212 QCURVE SMOOTH",
"798 164 OFFCURVE",
"716 100 QCURVE SMOOTH",
"644 44 OFFCURVE",
"434 -36 OFFCURVE",
"245 -36 OFFCURVE",
"134 14 OFFCURVE",
"91 91 OFFCURVE",
"91 137 QCURVE SMOOTH",
"91 235 OFFCURVE",
"178 309 QCURVE SMOOTH",
"252 373 OFFCURVE",
"384 373 QCURVE SMOOTH",
"491 372 LINE SMOOTH",
"534 372 OFFCURVE"
);
}
);
};
layerId = "61E7180A-0B32-4047-B910-001D8BB62225";
paths = (
{
closed = 1;
nodes = (
"490 -56 OFFCURVE",
"662 -3 OFFCURVE",
"761 75 CURVE SMOOTH",
"814 116 OFFCURVE",
"842 159 OFFCURVE",
"842 195 CURVE SMOOTH",
"842 220 OFFCURVE",
"828 242 OFFCURVE",
"797 257 CURVE SMOOTH",
"787 262 OFFCURVE",
"778 263 OFFCURVE",
"770 263 CURVE SMOOTH",
"760 263 OFFCURVE",
"754 261 OFFCURVE",
"754 257 CURVE SMOOTH",
"754 253 OFFCURVE",
"760 249 OFFCURVE",
"776 245 CURVE SMOOTH",
"794 241 OFFCURVE",
"803 230 OFFCURVE",
"803 215 CURVE SMOOTH",
"803 186 OFFCURVE",
"770 142 OFFCURVE",
"722 104 CURVE SMOOTH",
"634 36 OFFCURVE",
"486 -33 OFFCURVE",
"330 -33 CURVE SMOOTH",
"160 -33 OFFCURVE",
"93 48 OFFCURVE",
"93 138 CURVE SMOOTH",
"93 231 OFFCURVE",
"166 332 OFFCURVE",
"272 362 CURVE SMOOTH",
"318 375 OFFCURVE",
"364 377 OFFCURVE",
"405 377 CURVE SMOOTH",
"434 377 OFFCURVE",
"461 376 OFFCURVE",
"482 376 CURVE SMOOTH",
"512 376 OFFCURVE",
"532 379 OFFCURVE",
"537 394 CURVE",
"551 461 OFFCURVE",
"324 419 OFFCURVE",
"324 550 CURVE SMOOTH",
"324 674 OFFCURVE",
"510 773 OFFCURVE",
"670 773 CURVE SMOOTH",
"682 773 OFFCURVE",
"693 772 OFFCURVE",
"704 771 CURVE SMOOTH",
"777 764 OFFCURVE",
"804 732 OFFCURVE",
"804 695 CURVE SMOOTH",
"804 640 OFFCURVE",
"743 570 OFFCURVE",
"684 564 CURVE SMOOTH",
"661 562 OFFCURVE",
"648 552 OFFCURVE",
"648 548 CURVE SMOOTH",
"648 544 OFFCURVE",
"653 542 OFFCURVE",
"663 542 CURVE SMOOTH",
"669 542 OFFCURVE",
"677 543 OFFCURVE",
"688 545 CURVE SMOOTH",
"797 569 OFFCURVE",
"863 633 OFFCURVE",
"863 690 CURVE SMOOTH",
"863 739 OFFCURVE",
"816 783 OFFCURVE",
"708 795 CURVE SMOOTH",
"696 796 OFFCURVE",
"682 797 OFFCURVE",
"668 797 CURVE SMOOTH",
"504 797 OFFCURVE",
"262 700 OFFCURVE",
"249 547 CURVE SMOOTH",
"244 488 OFFCURVE",
"314 442 OFFCURVE",
"370 422 CURVE",
"338 421 OFFCURVE",
"296 413 OFFCURVE",
"269 405 CURVE SMOOTH",
"111 359 OFFCURVE",
"22 248 OFFCURVE",
"22 146 CURVE SMOOTH",
"22 39 OFFCURVE",
"118 -56 OFFCURVE",
"326 -56 CURVE SMOOTH"
);
}
);
width = 819;
}
);
note = E;
unicode = 0045;
},
{
glyphname = Eacute;
lastChange = "2022-11-18 22:03:47 +0000";
layers = (
{
background = {
components = (
{
name = E;
},
{
name = acutecomb.case;
transform = "{1, 0, 0, 1, 490, 486}";
}
);
paths = (
{
closed = 1;
nodes = (
"725 814 OFFCURVE",
"732 810 OFFCURVE",
"732 810 OFFCURVE",
"743 810 OFFCURVE",
"886 875 OFFCURVE",
"893 890 OFFCURVE",
"893 903 OFFCURVE",
"876 911 OFFCURVE",
"853 911 OFFCURVE",
"829 894 OFFCURVE",
"777 857 OFFCURVE",
"731 824 OFFCURVE"
);
},
{
closed = 1;
nodes = (
"534 395 QCURVE SMOOTH",
"534 421 OFFCURVE",
"458 438 QCURVE SMOOTH",
"423 445 OFFCURVE",
"356 468 OFFCURVE",
"321 516 OFFCURVE",
"321 556 OFFCURVE",
"323 567 QCURVE SMOOTH",
"340 659 OFFCURVE",
"460 718 QCURVE SMOOTH",
"560 767 OFFCURVE",
"747 767 OFFCURVE",
"778 739 QCURVE SMOOTH",
"802 718 OFFCURVE",
"802 693 QCURVE SMOOTH",
"802 690 OFFCURVE",
"802 686 QCURVE SMOOTH",
"794 622 OFFCURVE",
"738 582 QCURVE SMOOTH",
"710 561 OFFCURVE",
"650 554 OFFCURVE",
"646 542 QCURVE",
"645 536 OFFCURVE",
"668 536 OFFCURVE",
"686 540 QCURVE SMOOTH",
"759 556 OFFCURVE",
"862 639 OFFCURVE",
"862 684 QCURVE SMOOTH",
"862 716 OFFCURVE",
"829 745 QCURVE SMOOTH",
"776 791 OFFCURVE",
"662 791 QCURVE SMOOTH",
"597 791 OFFCURVE",
"419 747 OFFCURVE",
"254 623 OFFCURVE",
"247 542 QCURVE SMOOTH",
"247 539 OFFCURVE",
"247 536 QCURVE SMOOTH",
"247 499 OFFCURVE",
"318 435 OFFCURVE",
"367 417 QCURVE",
"319 415 OFFCURVE",
"198 380 OFFCURVE",
"92 308 OFFCURVE",
"36 224 OFFCURVE",
"20 159 OFFCURVE",
"20 115 OFFCURVE",
"28 91 QCURVE SMOOTH",
"63 -3 OFFCURVE",
"176 -38 QCURVE SMOOTH",
"240 -58 OFFCURVE",
"446 -58 OFFCURVE",
"682 14 OFFCURVE",
"837 136 OFFCURVE",
"837 192 QCURVE SMOOTH",
"837 230 OFFCURVE",
"792 254 QCURVE SMOOTH",
"781 260 OFFCURVE",
"747 262 OFFCURVE",
"749 253 QCURVE SMOOTH",
"750 246 OFFCURVE",
"798 235 OFFCURVE",
"798 212 QCURVE SMOOTH",
"798 164 OFFCURVE",
"716 100 QCURVE SMOOTH",
"644 44 OFFCURVE",
"434 -36 OFFCURVE",
"245 -36 OFFCURVE",
"134 14 OFFCURVE",
"91 91 OFFCURVE",
"91 137 QCURVE SMOOTH",
"91 235 OFFCURVE",
"178 309 QCURVE SMOOTH",
"252 373 OFFCURVE",
"384 373 QCURVE SMOOTH",
"491 372 LINE SMOOTH",
"534 372 OFFCURVE"
);
}
);
};
components = (
{
name = E;
},
{
name = acutecomb.case;
transform = "{1, 0, 0, 1, 649, 426}";
}
);
layerId = "61E7180A-0B32-4047-B910-001D8BB62225";
width = 819;
}
);
note = Eacute;
unicode = 00C9;
},
{
color = 5;
glyphname = Emacrongrave;
lastChange = "2023-08-03 20:34:46 +0000";
layers = (
{
background = {
paths = (
{
closed = 1;
nodes = (
"490 -56 OFFCURVE",
"662 -3 OFFCURVE",
"761 75 CURVE SMOOTH",
"814 116 OFFCURVE",
"842 159 OFFCURVE",
"842 195 CURVE SMOOTH",
"842 220 OFFCURVE",
"828 242 OFFCURVE",
"797 257 CURVE SMOOTH",
"787 262 OFFCURVE",
"778 263 OFFCURVE",
"770 263 CURVE SMOOTH",
"760 263 OFFCURVE",
"754 261 OFFCURVE",
"754 257 CURVE SMOOTH",
"754 253 OFFCURVE",
"760 249 OFFCURVE",
"776 245 CURVE SMOOTH",
"794 241 OFFCURVE",
"803 230 OFFCURVE",
"803 215 CURVE SMOOTH",
"803 186 OFFCURVE",
"770 142 OFFCURVE",
"722 104 CURVE SMOOTH",
"634 36 OFFCURVE",
"486 -33 OFFCURVE",
"330 -33 CURVE SMOOTH",
"160 -33 OFFCURVE",
"93 48 OFFCURVE",
"93 138 CURVE SMOOTH",
"93 231 OFFCURVE",
"166 332 OFFCURVE",
"272 362 CURVE SMOOTH",
"318 375 OFFCURVE",
"364 377 OFFCURVE",
"405 377 CURVE SMOOTH",
"434 377 OFFCURVE",
"461 376 OFFCURVE",
"482 376 CURVE SMOOTH",
"512 376 OFFCURVE",
"532 379 OFFCURVE",
"537 394 CURVE",
"551 461 OFFCURVE",
"324 419 OFFCURVE",
"324 550 CURVE SMOOTH",
"324 674 OFFCURVE",
"510 773 OFFCURVE",
"670 773 CURVE SMOOTH",
"682 773 OFFCURVE",
"693 772 OFFCURVE",
"704 771 CURVE SMOOTH",
"777 764 OFFCURVE",
"804 732 OFFCURVE",
"804 695 CURVE SMOOTH",
"804 640 OFFCURVE",
"743 570 OFFCURVE",
"684 564 CURVE SMOOTH",
"661 562 OFFCURVE",
"648 552 OFFCURVE",
"648 548 CURVE SMOOTH",
"648 544 OFFCURVE",
"653 542 OFFCURVE",
"663 542 CURVE SMOOTH",
"669 542 OFFCURVE",
"677 543 OFFCURVE",
"688 545 CURVE SMOOTH",
"797 569 OFFCURVE",
"863 633 OFFCURVE",
"863 690 CURVE SMOOTH",
"863 739 OFFCURVE",
"816 783 OFFCURVE",
"708 795 CURVE SMOOTH",
"696 796 OFFCURVE",
"682 797 OFFCURVE",
"668 797 CURVE SMOOTH",
"504 797 OFFCURVE",
"262 700 OFFCURVE",
"249 547 CURVE SMOOTH",
"244 488 OFFCURVE",
"314 442 OFFCURVE",
"370 422 CURVE",
"338 421 OFFCURVE",
"296 413 OFFCURVE",
"269 405 CURVE SMOOTH",
"111 359 OFFCURVE",
"22 248 OFFCURVE",
"22 146 CURVE SMOOTH",
"22 39 OFFCURVE",
"118 -56 OFFCURVE",
"326 -56 CURVE SMOOTH"
);
},
{
closed = 1;
nodes = (
"777 872 LINE",
"797 878 OFFCURVE",
"801 902 OFFCURVE",
"801 909 CURVE",
"633 909 LINE",
"616 906 OFFCURVE",
"605 884 OFFCURVE",
"605 872 CURVE"
);
},
{
closed = 1;
nodes = (
"749 950 OFFCURVE",
"757 955 OFFCURVE",
"756 963 CURVE",
"589 1071 LINE",
"578 1069 OFFCURVE",
"563 1066 OFFCURVE",
"571 1028 CURVE",
"738 948 LINE"
);
}
);
};
components = (
{
name = E;
},
{
name = macroncomb.case;
transform = "{1, 0, 0, 1, 582, -22}";
},
{
name = gravecomb.case;
transform = "{1, 0, 0, 1, 565, 530}";
}
);
layerId = "61E7180A-0B32-4047-B910-001D8BB62225";
width = 819;
}
);
unicode = 1E14;
},
{
color = 5;
glyphname = Eopen;
lastChange = "2023-07-10 20:14:00 +0000";
layers = (
{
background = {
paths = (
{
closed = 1;
nodes = (
"544 -31 OFFCURVE",
"701 134 OFFCURVE",
"701 284 CURVE SMOOTH",
"701 304 OFFCURVE",
"684 316 OFFCURVE",
"673 316 CURVE SMOOTH",
"668 316 OFFCURVE",
"662 312 OFFCURVE",
"662 304 CURVE SMOOTH",
"662 148 OFFCURVE",
"484 2 OFFCURVE",
"294 2 CURVE SMOOTH",
"163 2 OFFCURVE",
"101 101 OFFCURVE",
"101 199 CURVE SMOOTH",
"101 319 OFFCURVE",
"195 445 OFFCURVE",
"341 445 CURVE SMOOTH",
"369 445 OFFCURVE",
"391 443 OFFCURVE",
"410 443 CURVE SMOOTH",
"449 443 OFFCURVE",
"484 465 OFFCURVE",
"484 481 CURVE SMOOTH",
"484 487 OFFCURVE",
"473 493 OFFCURVE",
"453 495 CURVE SMOOTH",
"352 501 OFFCURVE",
"311 548 OFFCURVE",
"311 603 CURVE SMOOTH",
"311 697 OFFCURVE",
"415 758 OFFCURVE",
"498 758 CURVE SMOOTH",
"552 758 OFFCURVE",
"597 731 OFFCURVE",
"597 670 CURVE SMOOTH",
"597 644 OFFCURVE",
"598 615 OFFCURVE",
"623 615 CURVE SMOOTH",
"651 615 OFFCURVE",
"655 642 OFFCURVE",
"655 668 CURVE SMOOTH",
"655 751 OFFCURVE",
"580 788 OFFCURVE",
"492 788 CURVE SMOOTH",
"367 788 OFFCURVE",
"214 713 OFFCURVE",
"214 597 CURVE SMOOTH",
"214 550 OFFCURVE",
"245 495 OFFCURVE",
"322 477 CURVE",
"120 477 OFFCURVE",
"8 331 OFFCURVE",
"8 193 CURVE SMOOTH",
"8 85 OFFCURVE",
"77 -31 OFFCURVE",
"288 -31 CURVE SMOOTH"
);
}
);
};
layerId = "61E7180A-0B32-4047-B910-001D8BB62225";
paths = (
{
closed = 1;
nodes = (
"498 -30 OFFCURVE",
"650 110 OFFCURVE",
"650 253 CURVE SMOOTH",
"650 273 OFFCURVE",
"634 283 OFFCURVE",
"624 283 CURVE SMOOTH",
"618 283 OFFCURVE",
"612 280 OFFCURVE",
"612 273 CURVE SMOOTH",
"612 122 OFFCURVE",
"463 -8 OFFCURVE",
"307 -8 CURVE SMOOTH",
"-33 -8 OFFCURVE",
"75 400 OFFCURVE",
"330 400 CURVE SMOOTH",
"354 400 OFFCURVE",
"375 398 OFFCURVE",
"392 398 CURVE SMOOTH",
"428 398 OFFCURVE",
"460 422 OFFCURVE",
"460 438 CURVE SMOOTH",
"460 445 OFFCURVE",
"451 453 OFFCURVE",
"431 454 CURVE SMOOTH",
"316 460 OFFCURVE",
"271 513 OFFCURVE",
"271 577 CURVE SMOOTH",
"271 667 OFFCURVE",
"363 768 OFFCURVE",
"488 768 CURVE SMOOTH",
"559 768 OFFCURVE",
"597 723 OFFCURVE",
"597 659 CURVE SMOOTH",
"597 630 OFFCURVE",
"611 615 OFFCURVE",
"623 615 CURVE SMOOTH",
"633 615 OFFCURVE",
"654 633 OFFCURVE",
"654 659 CURVE SMOOTH",
"654 780 OFFCURVE",
"537 788 OFFCURVE",
"487 788 CURVE SMOOTH",
"336 788 OFFCURVE",
"213 676 OFFCURVE",
"213 566 CURVE SMOOTH",
"213 513 OFFCURVE",
"242 465 OFFCURVE",
"312 434 CURVE",
"-5 426 OFFCURVE",
"-157 -30 OFFCURVE",
"302 -30 CURVE SMOOTH"
);
}
);
width = 634;
}
);
unicode = 0190;
},
{
color = 5;
glyphname = Ereversed;
lastChange = "2023-09-25 18:06:14 +0000";
layers = (
{
background = {
anchors = (
{
name = bottom;
position = "{241, -50}";
},
{
name = ogonek;
position = "{215, -47}";
},
{
name = top;
position = "{585, 797}";
},
{
name = topright;
position = "{1187, 706}";
}
);
};
layerId = "61E7180A-0B32-4047-B910-001D8BB62225";
paths = (
{
closed = 1;
nodes = (
"-28 -3 OFFCURVE",
"96 -57 OFFCURVE",
"246 -57 CURVE SMOOTH",
"479 -57 OFFCURVE",
"776 74 OFFCURVE",
"776 288 CURVE SMOOTH",
"776 374 OFFCURVE",
"689 419 OFFCURVE",
"598 422 CURVE",
"718 455 OFFCURVE",
"863 531 OFFCURVE",
"863 646 CURVE SMOOTH",
"863 741 OFFCURVE",
"740 797 OFFCURVE",
"615 797 CURVE SMOOTH",
"492 797 OFFCURVE",
"302 730 OFFCURVE",
"302 625 CURVE SMOOTH",
"302 590 OFFCURVE",
"328 560 OFFCURVE",
"383 545 CURVE SMOOTH",
"393 543 OFFCURVE",
"400 542 OFFCURVE",
"406 542 CURVE SMOOTH",
"416 542 OFFCURVE",
"422 544 OFFCURVE",
"426 548 CURVE SMOOTH",
"429 552 OFFCURVE",
"425 562 OFFCURVE",
"403 564 CURVE SMOOTH",
"375 567 OFFCURVE",
"361 588 OFFCURVE",
"361 616 CURVE SMOOTH",
"361 711 OFFCURVE",
"481 773 OFFCURVE",
"593 773 CURVE SMOOTH",
"708 773 OFFCURVE",
"794 722 OFFCURVE",
"794 647 CURVE SMOOTH",
"794 504 OFFCURVE",
"610 465 OFFCURVE",
"476 432 CURVE SMOOTH",
"409 415 OFFCURVE",
"411 376 OFFCURVE",
"447 376 CURVE SMOOTH",
"507 376 LINE SMOOTH",
"648 376 OFFCURVE",
"707 323 OFFCURVE",
"707 255 CURVE SMOOTH",
"707 135 OFFCURVE",
"522 -30 OFFCURVE",
"271 -30 CURVE SMOOTH",
"137 -30 OFFCURVE",
"24 26 OFFCURVE",
"24 151 CURVE SMOOTH",
"24 198 OFFCURVE",
"50 228 OFFCURVE",
"68 237 CURVE SMOOTH",
"91 248 OFFCURVE",
"110 255 OFFCURVE",
"110 259 CURVE SMOOTH",
"110 262 OFFCURVE",
"107 263 OFFCURVE",
"101 263 CURVE SMOOTH",
"94 263 OFFCURVE",
"86 262 OFFCURVE",
"65 253 CURVE SMOOTH",
"19 233 OFFCURVE",
"-28 184 OFFCURVE",
"-28 119 CURVE SMOOTH"
);
}
);
width = 743;
}
);
unicode = 018E;
},
{
color = 5;
glyphname = Esh;
lastChange = "2023-07-04 22:52:45 +0000";
layers = (
{
layerId = "61E7180A-0B32-4047-B910-001D8BB62225";
paths = (
{
closed = 1;
nodes = (
"43 -12 OFFCURVE",
"67 9 OFFCURVE",
"92 9 CURVE SMOOTH",
"122 9 OFFCURVE",
"365 -7 OFFCURVE",
"444 -7 CURVE SMOOTH",
"519 -7 OFFCURVE",
"580 100 OFFCURVE",
"626 210 CURVE SMOOTH",
"628 214 OFFCURVE",
"628 216 OFFCURVE",
"628 219 CURVE SMOOTH",
"628 223 OFFCURVE",
"625 225 OFFCURVE",
"622 225 CURVE SMOOTH",
"619 225 OFFCURVE",
"615 223 OFFCURVE",
"613 219 CURVE SMOOTH",
"576 145 OFFCURVE",
"533 73 OFFCURVE",
"473 57 CURVE SMOOTH",
"454 52 OFFCURVE",
"410 52 OFFCURVE",
"391 52 CURVE SMOOTH",
"370 52 OFFCURVE",
"151 64 OFFCURVE",
"125 72 CURVE",
"137 82 OFFCURVE",
"360 327 OFFCURVE",
"434 370 CURVE SMOOTH",
"440 373 OFFCURVE",
"458 384 OFFCURVE",
"458 391 CURVE SMOOTH",
"458 397 OFFCURVE",
"457 408 OFFCURVE",
"446 408 CURVE SMOOTH",
"410 408 OFFCURVE",
"373 359 OFFCURVE",
"349 335 CURVE SMOOTH",
"241 225 OFFCURVE",
"131 114 OFFCURVE",
"78 74 CURVE SMOOTH",
"63 63 OFFCURVE",
"13 31 OFFCURVE",
"6 20 CURVE SMOOTH",
"4 17 OFFCURVE",
"0 7 OFFCURVE",
"-1 3 CURVE SMOOTH",
"-2 -5 OFFCURVE",
"3 -12 OFFCURVE",
"16 -12 CURVE SMOOTH"
);
},
{
closed = 1;
nodes = (
"438 381 OFFCURVE",
"458 382 OFFCURVE",
"458 391 CURVE SMOOTH",
"458 397 OFFCURVE",
"445 403 OFFCURVE",
"420 412 CURVE SMOOTH",
"358 433 OFFCURVE",
"212 477 OFFCURVE",
"212 586 CURVE SMOOTH",
"212 683 OFFCURVE",
"409 752 OFFCURVE",
"507 752 CURVE SMOOTH",
"626 752 OFFCURVE",
"649 707 OFFCURVE",
"649 664 CURVE SMOOTH",
"649 628 OFFCURVE",
"605 589 OFFCURVE",
"576 589 CURVE SMOOTH",
"558 589 OFFCURVE",
"549 580 OFFCURVE",
"549 575 CURVE SMOOTH",
"549 573 OFFCURVE",
"553 570 OFFCURVE",
"559 570 CURVE SMOOTH",
"562 570 OFFCURVE",
"564 570 OFFCURVE",
"568 571 CURVE SMOOTH",
"597 578 OFFCURVE",
"619 588 OFFCURVE",
"638 601 CURVE SMOOTH",
"671 623 OFFCURVE",
"688 653 OFFCURVE",
"688 681 CURVE SMOOTH",
"688 749 OFFCURVE",
"607 774 OFFCURVE",
"513 774 CURVE SMOOTH",
"349 774 OFFCURVE",
"137 694 OFFCURVE",
"137 565 CURVE SMOOTH",
"137 452 OFFCURVE",
"357 381 OFFCURVE",
"431 381 CURVE SMOOTH"
);
}
);
width = 543;
}
);
unicode = 01A9;
},
{
color = 5;
glyphname = Schwa;
lastChange = "2023-07-04 22:52:45 +0000";
layers = (
{
anchors = (
{
name = bottom;
position = "{232, -81}";
}
);
layerId = "61E7180A-0B32-4047-B910-001D8BB62225";
paths = (
{
closed = 1;
nodes = (
"323 800 OFFCURVE",
"200 698 OFFCURVE",
"112 520 CURVE SMOOTH",
"109 515 OFFCURVE",
"108 511 OFFCURVE",
"108 508 CURVE SMOOTH",
"108 504 OFFCURVE",
"109 502 OFFCURVE",
"112 502 CURVE SMOOTH",
"115 502 OFFCURVE",
"127 505 OFFCURVE",
"131 511 CURVE",
"206 658 OFFCURVE",
"312 766 OFFCURVE",
"489 766 CURVE SMOOTH",
"640 766 OFFCURVE",
"727 694 OFFCURVE",
"721 530 CURVE SMOOTH",
"716 398 OFFCURVE",
"701 385 OFFCURVE",
"688 348 CURVE",
"602 402 OFFCURVE",
"496 428 OFFCURVE",
"396 428 CURVE SMOOTH",
"211 428 OFFCURVE",
"40 335 OFFCURVE",
"33 141 CURVE SMOOTH",
"28 6 OFFCURVE",
"146 -64 OFFCURVE",
"288 -64 CURVE SMOOTH",
"543 -64 OFFCURVE",
"771 216 OFFCURVE",
"781 492 CURVE SMOOTH",
"787 681 OFFCURVE",
"668 800 OFFCURVE",
"492 800 CURVE SMOOTH"
);
},
{
closed = 1;
nodes = (
"81 299 OFFCURVE",
"257 387 OFFCURVE",
"431 387 CURVE SMOOTH",
"518 387 OFFCURVE",
"604 364 OFFCURVE",
"668 317 CURVE",
"599 159 OFFCURVE",
"442 -26 OFFCURVE",
"272 -26 CURVE SMOOTH",
"161 -26 OFFCURVE",
"72 37 OFFCURVE",
"76 149 CURVE SMOOTH"
);
}
);
width = 754;
}
);
unicode = 018F;
},
{
color = 5;
glyphname = Ezh;
lastChange = "2023-09-25 18:06:14 +0000";
layers = (
{
background = {
anchors = (
{
name = bottom;
position = "{369, -43}";
},
{
name = center;
position = "{300, 233}";
},
{
name = top;
position = "{727, 786}";
}
);
paths = (
{
closed = 1;
nodes = (
"776 671 OFFCURVE",
"852 671 CURVE SMOOTH",
"901 671 OFFCURVE",
"929 701 OFFCURVE",
"929 727 CURVE SMOOTH",
"929 747 OFFCURVE",
"913 764 OFFCURVE",
"877 764 CURVE SMOOTH",
"821 764 OFFCURVE",
"787 744 OFFCURVE",
"749 712 CURVE",
"660 743 OFFCURVE",
"545 793 OFFCURVE",
"443 793 CURVE SMOOTH",
"433 793 OFFCURVE",
"427 793 OFFCURVE",
"415 792 CURVE SMOOTH",
"270 780 OFFCURVE",
"221 700 OFFCURVE",
"221 633 CURVE SMOOTH",
"221 604 OFFCURVE",
"229 579 OFFCURVE",
"245 559 CURVE SMOOTH",
"261 538 OFFCURVE",
"272 531 OFFCURVE",
"280 528 CURVE SMOOTH",
"283 527 OFFCURVE",
"288 526 OFFCURVE",
"293 526 CURVE SMOOTH",
"298 526 OFFCURVE",
"304 527 OFFCURVE",
"304 531 CURVE SMOOTH",
"304 535 OFFCURVE",
"300 540 OFFCURVE",
"291 547 CURVE SMOOTH",
"262 568 OFFCURVE",
"251 591 OFFCURVE",
"251 613 CURVE SMOOTH",
"251 663 OFFCURVE",
"309 710 OFFCURVE",
"362 725 CURVE SMOOTH",
"396 735 OFFCURVE",
"434 739 OFFCURVE",
"475 739 CURVE SMOOTH",
"592 739 OFFCURVE"
);
},
{
closed = 1;
nodes = (
"834 683 OFFCURVE",
"810 689 OFFCURVE",
"778 703 CURVE",
"797 725 OFFCURVE",
"834 749 OFFCURVE",
"866 749 CURVE SMOOTH",
"889 749 OFFCURVE",
"901 735 OFFCURVE",
"901 720 CURVE SMOOTH",
"901 702 OFFCURVE",
"886 683 OFFCURVE",
"854 683 CURVE SMOOTH"
);
}
);
};
layerId = "61E7180A-0B32-4047-B910-001D8BB62225";
paths = (
{
closed = 1;
nodes = (
"702 676 LINE",
"690 666 OFFCURVE",
"551 557 OFFCURVE",
"436 457 CURVE SMOOTH",
"404 428 OFFCURVE",
"381 403 OFFCURVE",
"378 397 CURVE",
"377 391 OFFCURVE",
"375 380 OFFCURVE",
"384 380 CURVE SMOOTH",
"415 380 OFFCURVE",
"417 399 OFFCURVE",
"444 422 CURVE SMOOTH",
"564 528 OFFCURVE",
"686 635 OFFCURVE",
"741 674 CURVE"
);
},
{
closed = 1;
nodes = (
"428 422 OFFCURVE",
"413 416 OFFCURVE",
"406 409 CURVE SMOOTH",
"396 400 OFFCURVE",
"384 383 OFFCURVE",
"384 383 CURVE",
"478 386 OFFCURVE",
"575 338 OFFCURVE",
"575 253 CURVE SMOOTH",
"575 87 OFFCURVE",
"345 -13 OFFCURVE",
"202 -13 CURVE SMOOTH",
"128 -13 OFFCURVE",
"72 14 OFFCURVE",
"72 72 CURVE SMOOTH",
"72 135 OFFCURVE",
"182 240 OFFCURVE",
"299 240 CURVE SMOOTH",
"336 239 OFFCURVE",
"357 242 OFFCURVE",
"357 260 CURVE SMOOTH",
"357 266 OFFCURVE",
"350 273 OFFCURVE",
"331 273 CURVE SMOOTH",
"310 273 OFFCURVE",
"291 268 OFFCURVE",
"274 262 CURVE SMOOTH",
"83 196 OFFCURVE",
"19 130 OFFCURVE",
"19 58 CURVE SMOOTH",
"19 -11 OFFCURVE",
"99 -44 OFFCURVE",
"202 -44 CURVE SMOOTH",
"385 -44 OFFCURVE",
"658 61 OFFCURVE",
"658 260 CURVE SMOOTH",
"658 362 OFFCURVE",
"542 422 OFFCURVE",
"444 422 CURVE SMOOTH"
);
},
{
closed = 1;
nodes = (
"561 712 OFFCURVE",
"736 646 OFFCURVE",
"796 646 CURVE SMOOTH",
"834 646 OFFCURVE",
"855 669 OFFCURVE",
"855 691 CURVE SMOOTH",
"855 706 OFFCURVE",
"843 720 OFFCURVE",
"816 720 CURVE SMOOTH",
"773 720 OFFCURVE",
"732 703 OFFCURVE",
"711 686 CURVE",
"626 716 OFFCURVE",
"516 764 OFFCURVE",
"418 764 CURVE SMOOTH",
"409 764 OFFCURVE",
"403 764 OFFCURVE",
"392 763 CURVE SMOOTH",
"253 751 OFFCURVE",
"206 674 OFFCURVE",
"206 609 CURVE SMOOTH",
"206 581 OFFCURVE",
"214 557 OFFCURVE",
"229 538 CURVE SMOOTH",
"245 517 OFFCURVE",
"255 511 OFFCURVE",
"263 508 CURVE SMOOTH",
"266 507 OFFCURVE",
"270 506 OFFCURVE",
"275 506 CURVE SMOOTH",
"280 506 OFFCURVE",
"286 507 OFFCURVE",
"286 511 CURVE SMOOTH",
"286 515 OFFCURVE",
"282 519 OFFCURVE",
"273 526 CURVE SMOOTH",
"245 546 OFFCURVE",
"235 569 OFFCURVE",
"235 590 CURVE SMOOTH",
"235 638 OFFCURVE",
"290 684 OFFCURVE",
"341 698 CURVE SMOOTH",
"373 708 OFFCURVE",
"410 712 OFFCURVE",
"449 712 CURVE SMOOTH"
);
}
);
width = 670;
}
);
unicode = 01B7;
},
{
color = 5;
glyphname = Ezhreversed;
lastChange = "2023-07-04 22:52:45 +0000";
layers = (
{
layerId = "61E7180A-0B32-4047-B910-001D8BB62225";
paths = (
{
closed = 1;
nodes = (
"269 753 OFFCURVE",
"262 747 OFFCURVE",
"260 740 CURVE",
"260 737 OFFCURVE",
"259 728 OFFCURVE",
"261 726 CURVE",
"262 717 OFFCURVE",
"296 690 OFFCURVE",
"305 680 CURVE SMOOTH",
"338 647 OFFCURVE",
"396 553 OFFCURVE",
"452 460 CURVE SMOOTH",
"465 439 OFFCURVE",
"486 385 OFFCURVE",
"518 385 CURVE SMOOTH",
"528 385 OFFCURVE",
"536 387 OFFCURVE",
"537 392 CURVE",
"540 398 OFFCURVE",
"533 405 OFFCURVE",
"529 409 CURVE SMOOTH",
"479 466 OFFCURVE",
"356 674 OFFCURVE",
"348 682 CURVE",
"374 692 OFFCURVE",
"576 699 OFFCURVE",
"595 699 CURVE SMOOTH",
"612 699 OFFCURVE",
"652 699 OFFCURVE",
"667 695 CURVE SMOOTH",
"715 681 OFFCURVE",
"701 636 OFFCURVE",
"700 574 CURVE",
"701 570 OFFCURVE",
"703 568 OFFCURVE",
"706 568 CURVE SMOOTH",
"708 568 OFFCURVE",
"713 568 OFFCURVE",
"714 572 CURVE SMOOTH",
"715 574 OFFCURVE",
"717 576 OFFCURVE",
"716 579 CURVE",
"726 672 OFFCURVE",
"733 749 OFFCURVE",
"665 749 CURVE SMOOTH",
"594 749 OFFCURVE",
"369 735 OFFCURVE",
"342 735 CURVE SMOOTH",
"319 735 OFFCURVE",
"305 753 OFFCURVE",
"281 753 CURVE SMOOTH"
);
},
{
closed = 1;
nodes = (
"306 412 OFFCURVE",
"88 302 OFFCURVE",
"61 175 CURVE SMOOTH",
"36 60 OFFCURVE",
"88 -13 OFFCURVE",
"334 -13 CURVE SMOOTH",
"516 -13 OFFCURVE",
"643 55 OFFCURVE",
"661 131 CURVE SMOOTH",
"668 162 OFFCURVE",
"659 195 OFFCURVE",
"630 220 CURVE SMOOTH",
"614 234 OFFCURVE",
"594 245 OFFCURVE",
"565 253 CURVE",
"563 254 OFFCURVE",
"559 253 OFFCURVE",
"557 254 CURVE",
"549 253 OFFCURVE",
"545 251 OFFCURVE",
"544 248 CURVE SMOOTH",
"543 242 OFFCURVE",
"550 233 OFFCURVE",
"569 233 CURVE SMOOTH",
"600 233 OFFCURVE",
"635 190 OFFCURVE",
"625 150 CURVE SMOOTH",
"613 100 OFFCURVE",
"536 11 OFFCURVE",
"350 11 CURVE SMOOTH",
"210 11 OFFCURVE",
"119 77 OFFCURVE",
"137 160 CURVE SMOOTH",
"166 295 OFFCURVE",
"334 369 OFFCURVE",
"562 365 CURVE",
"562 365 OFFCURVE",
"552 399 OFFCURVE",
"529 409 CURVE SMOOTH",
"517 414 OFFCURVE",
"479 412 OFFCURVE",
"449 412 CURVE SMOOTH"
);
}
);
width = 680;
}
);
unicode = 01B8;
},
{
glyphname = F;
lastChange = "2023-07-14 20:53:19 +0000";
layers = (
{
anchors = (
{
name = bottom;
position = "{527, 0}";
},
{
name = top;
position = "{1052, 714}";
}
);
background = {
paths = (
{
closed = 1;
nodes = (
"706 -131 OFFCURVE",
"815 121 OFFCURVE",
"886 314 CURVE SMOOTH",
"888 320 OFFCURVE",
"892 330 OFFCURVE",
"896 340 CURVE SMOOTH",
"925 406 OFFCURVE",
"966 527 OFFCURVE",
"1030 599 CURVE",
"1049 591 OFFCURVE",
"1148 532 OFFCURVE",
"1265 513 CURVE SMOOTH",
"1274 512 OFFCURVE",
"1283 511 OFFCURVE",
"1291 511 CURVE SMOOTH",
"1346 511 OFFCURVE",
"1388 539 OFFCURVE",
"1394 575 CURVE SMOOTH",
"1395 579 OFFCURVE",
"1395 583 OFFCURVE",
"1395 587 CURVE SMOOTH",
"1395 594 OFFCURVE",
"1393 598 OFFCURVE",
"1390 598 CURVE SMOOTH",
"1387 598 OFFCURVE",
"1381 593 OFFCURVE",
"1375 579 CURVE SMOOTH",
"1363 554 OFFCURVE",
"1332 546 OFFCURVE",
"1298 546 CURVE SMOOTH",
"1215 546 OFFCURVE",
"1092 594 OFFCURVE",
"1045 618 CURVE",
"1057 628 OFFCURVE",
"1074 640 OFFCURVE",
"1091 640 CURVE SMOOTH",
"1096 640 OFFCURVE",
"1101 639 OFFCURVE",
"1106 637 CURVE",
"1111 631 OFFCURVE",
"1115 628 OFFCURVE",
"1118 628 CURVE SMOOTH",
"1122 628 OFFCURVE",
"1124 632 OFFCURVE",
"1124 637 CURVE SMOOTH",
"1124 646 OFFCURVE",
"1118 657 OFFCURVE",
"1106 661 CURVE SMOOTH",
"1098 663 OFFCURVE",
"1091 664 OFFCURVE",
"1085 664 CURVE SMOOTH",
"1051 664 OFFCURVE",
"1030 640 OFFCURVE",
"1021 630 CURVE",
"959 669 OFFCURVE",
"863 716 OFFCURVE",
"752 746 CURVE SMOOTH",
"711 757 OFFCURVE",
"673 763 OFFCURVE",
"638 763 CURVE SMOOTH",
"460 763 OFFCURVE",
"350 634 OFFCURVE",
"350 529 CURVE SMOOTH",
"350 483 OFFCURVE",
"371 442 OFFCURVE",
"415 417 CURVE SMOOTH",
"439 403 OFFCURVE",
"467 397 OFFCURVE",
"495 397 CURVE SMOOTH",
"562 397 OFFCURVE",
"631 435 OFFCURVE",
"651 504 CURVE SMOOTH",
"653 510 OFFCURVE",
"654 515 OFFCURVE",
"654 518 CURVE SMOOTH",
"654 523 OFFCURVE",
"652 525 OFFCURVE",
"649 525 CURVE SMOOTH",
"644 525 OFFCURVE",
"642 522 OFFCURVE",
"640 517 CURVE SMOOTH",
"635 506 OFFCURVE",
"635 493 OFFCURVE",
"613 467 CURVE SMOOTH",
"601 452 OFFCURVE",
"553 419 OFFCURVE",
"497 419 CURVE SMOOTH",
"453 419 OFFCURVE",
"395 439 OFFCURVE",
"395 500 CURVE SMOOTH",
"395 584 OFFCURVE",
"498 712 OFFCURVE",
"675 712 CURVE SMOOTH",
"694 712 OFFCURVE",
"714 711 OFFCURVE",
"734 708 CURVE SMOOTH",
"833 694 OFFCURVE",
"923 655 OFFCURVE",
"1008 612 CURVE",
"989 591 OFFCURVE",
"910 465 OFFCURVE",
"861 345 CURVE",
"858 337 OFFCURVE",
"853 325 OFFCURVE",
"848 312 CURVE",
"755 99 OFFCURVE",
"602 -84 OFFCURVE",
"387 -84 CURVE SMOOTH",
"250 -84 OFFCURVE",
"72 6 OFFCURVE",
"72 180 CURVE SMOOTH",
"72 234 OFFCURVE",
"95 303 OFFCURVE",
"154 343 CURVE SMOOTH",
"176 358 OFFCURVE",
"187 361 OFFCURVE",
"187 373 CURVE",
"184 373 OFFCURVE",
"180 372 OFFCURVE",
"173 370 CURVE SMOOTH",
"89 345 OFFCURVE",
"50 249 OFFCURVE",
"50 158 CURVE SMOOTH",
"50 -9 OFFCURVE",
"187 -131 OFFCURVE",
"382 -131 CURVE SMOOTH"
);
},
{
closed = 1;
nodes = (
"947 340 OFFCURVE",
"887 347 CURVE SMOOTH",
"835 353 OFFCURVE",
"788 359 OFFCURVE",
"774 359 CURVE SMOOTH",
"705 359 OFFCURVE",
"646 339 OFFCURVE",
"614 268 CURVE SMOOTH",
"610 260 OFFCURVE",
"614 252 OFFCURVE",
"619 252 CURVE SMOOTH",
"622 252 OFFCURVE",
"626 254 OFFCURVE",
"630 259 CURVE SMOOTH",
"663 306 OFFCURVE",
"737 313 OFFCURVE",
"792 313 CURVE SMOOTH",
"813 313 OFFCURVE",
"929 306 OFFCURVE",
"964 306 CURVE SMOOTH",
"1014 306 OFFCURVE",
"1068 309 OFFCURVE",
"1088 314 CURVE SMOOTH",
"1103 318 OFFCURVE",
"1111 323 OFFCURVE",
"1111 327 CURVE SMOOTH",
"1111 331 OFFCURVE",
"1105 334 OFFCURVE",
"1091 334 CURVE SMOOTH",
"1049 334 OFFCURVE"
);
}
);
};
layerId = "61E7180A-0B32-4047-B910-001D8BB62225";
paths = (
{
closed = 1;
nodes = (
"1049 334 OFFCURVE",
"947 340 OFFCURVE",
"887 347 CURVE SMOOTH",
"835 353 OFFCURVE",
"788 359 OFFCURVE",
"774 359 CURVE SMOOTH",
"705 359 OFFCURVE",
"646 339 OFFCURVE",
"614 268 CURVE SMOOTH",
"610 260 OFFCURVE",
"614 252 OFFCURVE",
"619 252 CURVE SMOOTH",
"622 252 OFFCURVE",
"626 254 OFFCURVE",
"630 259 CURVE SMOOTH",
"663 306 OFFCURVE",
"737 313 OFFCURVE",
"792 313 CURVE SMOOTH",
"813 313 OFFCURVE",
"838 311 OFFCURVE",
"867 309 CURVE SMOOTH",
"897 308 OFFCURVE",
"929 306 OFFCURVE",
"964 306 CURVE SMOOTH",
"1014 306 OFFCURVE",
"1068 309 OFFCURVE",
"1088 314 CURVE SMOOTH",
"1103 318 OFFCURVE",
"1111 323 OFFCURVE",
"1111 327 CURVE SMOOTH",
"1111 331 OFFCURVE",
"1105 334 OFFCURVE",
"1091 334 CURVE SMOOTH"
);
},
{
closed = 1;
nodes = (
"547 -131 OFFCURVE",
"684 -47 OFFCURVE",
"750 28 CURVE SMOOTH",
"910 211 OFFCURVE",
"919 433 OFFCURVE",
"1040 625 CURVE",
"1061 615 OFFCURVE",
"1144 579 OFFCURVE",
"1293 560 CURVE SMOOTH",
"1302 559 OFFCURVE",
"1310 558 OFFCURVE",
"1318 558 CURVE SMOOTH",
"1369 558 OFFCURVE",
"1407 580 OFFCURVE",
"1407 612 CURVE SMOOTH",
"1407 618 OFFCURVE",
"1404 634 OFFCURVE",
"1398 634 CURVE SMOOTH",
"1388 634 OFFCURVE",
"1386 627 OFFCURVE",
"1386 619 CURVE SMOOTH",
"1386 597 OFFCURVE",
"1362 589 OFFCURVE",
"1325 589 CURVE SMOOTH",
"1247 589 OFFCURVE",
"1115 627 OFFCURVE",
"1056 646 CURVE",
"1068 659 OFFCURVE",
"1099 693 OFFCURVE",
"1108 686 CURVE",
"1111 685 OFFCURVE",
"1114 684 OFFCURVE",
"1116 684 CURVE SMOOTH",
"1124 684 OFFCURVE",
"1128 690 OFFCURVE",
"1128 697 CURVE SMOOTH",
"1128 706 OFFCURVE",
"1123 711 OFFCURVE",
"1110 711 CURVE SMOOTH",
"1082 711 OFFCURVE",
"1040 671 OFFCURVE",
"1026 654 CURVE",
"963 671 OFFCURVE",
"824 731 OFFCURVE",
"699 741 CURVE SMOOTH",
"674 743 OFFCURVE",
"668 743 OFFCURVE",
"651 743 CURVE SMOOTH",
"443 743 OFFCURVE",
"341 611 OFFCURVE",
"341 495 CURVE SMOOTH",
"341 425 OFFCURVE",
"378 360 OFFCURVE",
"452 334 CURVE SMOOTH",
"469 328 OFFCURVE",
"488 325 OFFCURVE",
"506 325 CURVE SMOOTH",
"585 325 OFFCURVE",
"663 379 OFFCURVE",
"674 466 CURVE",
"674 475 OFFCURVE",
"670 480 OFFCURVE",
"664 480 CURVE SMOOTH",
"661 480 OFFCURVE",
"657 478 OFFCURVE",
"654 474 CURVE",
"654 473 LINE SMOOTH",
"654 449 OFFCURVE",
"603 352 OFFCURVE",
"508 352 CURVE SMOOTH",
"493 352 OFFCURVE",
"478 354 OFFCURVE",
"461 359 CURVE SMOOTH",
"413 375 OFFCURVE",
"390 413 OFFCURVE",
"390 458 CURVE SMOOTH",
"390 561 OFFCURVE",
"507 700 OFFCURVE",
"706 690 CURVE SMOOTH",
"815 685 OFFCURVE",
"906 667 OFFCURVE",
"1012 635 CURVE",
"969 579 OFFCURVE",
"813 199 OFFCURVE",
"716 93 CURVE SMOOTH",
"641 11 OFFCURVE",
"562 -82 OFFCURVE",
"380 -82 CURVE SMOOTH",
"204 -82 OFFCURVE",
"81 49 OFFCURVE",
"81 162 CURVE SMOOTH",
"81 246 OFFCURVE",
"113 313 OFFCURVE",
"187 361 CURVE",
"187 365 OFFCURVE",
"185 370 OFFCURVE",
"175 370 CURVE SMOOTH",
"171 370 OFFCURVE",
"163 367 OFFCURVE",
"153 361 CURVE SMOOTH",
"79 319 OFFCURVE",
"47 245 OFFCURVE",
"47 157 CURVE SMOOTH",
"47 -5 OFFCURVE",
"184 -131 OFFCURVE",
"382 -131 CURVE SMOOTH"
);
}
);
width = 1053;
}
);
leftKerningGroup = T;
note = F;
unicode = 0046;
},
{
color = 5;
glyphname = Fhook;
lastChange = "2023-09-09 19:44:03 +0000";
layers = (
{
annotations = (
{
position = "{503, -26}";
type = Arrow;
},
{
angle = -48.30793;
position = "{-12, -209}";
type = Arrow;
},
{
position = "{367, -211}";
text = "Weights of descending stem and hook have been modified.";
type = Text;
width = 163;
}
);
background = {
anchors = (
{
name = bottom;
position = "{231, 0}";
},
{
name = top;
position = "{756, 714}";
}
);
paths = (
{
closed = 1;
nodes = (
"753 334 OFFCURVE",
"651 340 OFFCURVE",
"591 347 CURVE SMOOTH",
"539 353 OFFCURVE",
"492 359 OFFCURVE",
"478 359 CURVE SMOOTH",
"409 359 OFFCURVE",
"350 339 OFFCURVE",
"318 268 CURVE SMOOTH",
"314 260 OFFCURVE",
"318 252 OFFCURVE",
"323 252 CURVE SMOOTH",
"326 252 OFFCURVE",
"330 254 OFFCURVE",
"334 259 CURVE SMOOTH",
"367 306 OFFCURVE",
"441 313 OFFCURVE",
"496 313 CURVE SMOOTH",
"517 313 OFFCURVE",
"542 311 OFFCURVE",
"571 309 CURVE SMOOTH",
"601 308 OFFCURVE",
"633 306 OFFCURVE",
"668 306 CURVE SMOOTH",
"718 306 OFFCURVE",
"772 309 OFFCURVE",
"792 314 CURVE SMOOTH",
"807 318 OFFCURVE",
"815 323 OFFCURVE",
"815 327 CURVE SMOOTH",
"815 331 OFFCURVE",
"809 334 OFFCURVE",
"795 334 CURVE SMOOTH"
);
},
{
closed = 1;
nodes = (
"617 333 LINE",
"653 432 OFFCURVE",
"685 532 OFFCURVE",
"744 625 CURVE",
"765 615 OFFCURVE",
"848 579 OFFCURVE",
"997 560 CURVE SMOOTH",
"1006 559 OFFCURVE",
"1014 558 OFFCURVE",
"1022 558 CURVE SMOOTH",
"1073 558 OFFCURVE",
"1111 580 OFFCURVE",
"1111 612 CURVE SMOOTH",
"1111 618 OFFCURVE",
"1108 634 OFFCURVE",
"1102 634 CURVE SMOOTH",
"1092 634 OFFCURVE",
"1090 627 OFFCURVE",
"1090 619 CURVE SMOOTH",
"1090 597 OFFCURVE",
"1066 589 OFFCURVE",
"1029 589 CURVE SMOOTH",
"951 589 OFFCURVE",
"819 627 OFFCURVE",
"760 646 CURVE",
"772 659 OFFCURVE",
"803 693 OFFCURVE",
"812 686 CURVE",
"815 685 OFFCURVE",
"818 684 OFFCURVE",
"820 684 CURVE SMOOTH",
"828 684 OFFCURVE",
"832 690 OFFCURVE",
"832 697 CURVE SMOOTH",
"832 706 OFFCURVE",
"827 711 OFFCURVE",
"814 711 CURVE SMOOTH",
"786 711 OFFCURVE",
"744 671 OFFCURVE",
"730 654 CURVE",
"667 671 OFFCURVE",
"528 731 OFFCURVE",
"403 741 CURVE SMOOTH",
"378 743 OFFCURVE",
"372 743 OFFCURVE",
"355 743 CURVE SMOOTH",
"147 743 OFFCURVE",
"45 611 OFFCURVE",
"45 495 CURVE SMOOTH",
"45 425 OFFCURVE",
"82 360 OFFCURVE",
"156 334 CURVE SMOOTH",
"173 328 OFFCURVE",
"192 325 OFFCURVE",
"210 325 CURVE SMOOTH",
"289 325 OFFCURVE",
"367 379 OFFCURVE",
"378 466 CURVE",
"378 475 OFFCURVE",
"374 480 OFFCURVE",
"368 480 CURVE SMOOTH",
"365 480 OFFCURVE",
"361 478 OFFCURVE",
"358 474 CURVE",
"358 473 LINE SMOOTH",
"358 449 OFFCURVE",
"307 352 OFFCURVE",
"212 352 CURVE SMOOTH",
"197 352 OFFCURVE",
"182 354 OFFCURVE",
"165 359 CURVE SMOOTH",
"117 375 OFFCURVE",
"94 413 OFFCURVE",
"94 458 CURVE SMOOTH",
"94 561 OFFCURVE",
"211 700 OFFCURVE",
"410 690 CURVE SMOOTH",
"519 685 OFFCURVE",
"610 667 OFFCURVE",
"716 635 CURVE",
"692 603 OFFCURVE",
"632 469 OFFCURVE",
"566 338 CURVE"
);
},
{
closed = 1;
nodes = (
"448 57 OFFCURVE",
"255 -345 OFFCURVE",
"-55 -345 CURVE SMOOTH",
"-80 -345 OFFCURVE",
"-134 -337 OFFCURVE",
"-134 -304 CURVE SMOOTH",
"-134 -246 OFFCURVE",
"35 -143 OFFCURVE",
"167 -124 CURVE SMOOTH",
"237 -114 LINE SMOOTH",
"247 -113 OFFCURVE",
"251 -109 OFFCURVE",
"251 -104 CURVE SMOOTH",
"251 -99 OFFCURVE",
"244 -94 OFFCURVE",
"235 -94 CURVE SMOOTH",
"235 -94 OFFCURVE",
"234 -94 OFFCURVE",
"234 -94 CURVE SMOOTH",
"205 -96 OFFCURVE",
"177 -100 OFFCURVE",
"153 -103 CURVE SMOOTH",
"-31 -129 OFFCURVE",
"-185 -222 OFFCURVE",
"-185 -295 CURVE SMOOTH",
"-185 -347 OFFCURVE",
"-134 -376 OFFCURVE",
"-54 -376 CURVE SMOOTH",
"200 -376 OFFCURVE",
"400 -155 OFFCURVE",
"521 92 CURVE SMOOTH",
"559 171 OFFCURVE",
"602 282 OFFCURVE",
"614 318 CURVE",
"555 315 LINE"
);
}
);
};
layerId = "61E7180A-0B32-4047-B910-001D8BB62225";
paths = (
{
closed = 1;
nodes = (
"753 334 OFFCURVE",
"651 340 OFFCURVE",
"591 347 CURVE SMOOTH",
"539 353 OFFCURVE",
"492 359 OFFCURVE",
"478 359 CURVE SMOOTH",
"409 359 OFFCURVE",
"350 339 OFFCURVE",
"318 268 CURVE SMOOTH",
"314 260 OFFCURVE",
"318 252 OFFCURVE",
"323 252 CURVE SMOOTH",
"326 252 OFFCURVE",
"330 254 OFFCURVE",
"334 259 CURVE SMOOTH",
"367 306 OFFCURVE",
"441 313 OFFCURVE",
"496 313 CURVE SMOOTH",
"517 313 OFFCURVE",
"542 311 OFFCURVE",
"571 309 CURVE SMOOTH",
"601 308 OFFCURVE",
"633 306 OFFCURVE",
"668 306 CURVE SMOOTH",
"718 306 OFFCURVE",
"772 309 OFFCURVE",
"792 314 CURVE SMOOTH",
"807 318 OFFCURVE",
"815 323 OFFCURVE",
"815 327 CURVE SMOOTH",
"815 331 OFFCURVE",
"809 334 OFFCURVE",
"795 334 CURVE SMOOTH"
);
},
{
closed = 1;
nodes = (
"617 333 LINE",
"653 432 OFFCURVE",
"685 532 OFFCURVE",
"744 625 CURVE",
"765 615 OFFCURVE",
"848 579 OFFCURVE",
"997 560 CURVE SMOOTH",
"1006 559 OFFCURVE",
"1014 558 OFFCURVE",
"1022 558 CURVE SMOOTH",
"1073 558 OFFCURVE",
"1111 580 OFFCURVE",
"1111 612 CURVE SMOOTH",
"1111 618 OFFCURVE",
"1108 634 OFFCURVE",
"1102 634 CURVE SMOOTH",
"1092 634 OFFCURVE",
"1090 627 OFFCURVE",
"1090 619 CURVE SMOOTH",
"1090 597 OFFCURVE",
"1066 589 OFFCURVE",
"1029 589 CURVE SMOOTH",
"951 589 OFFCURVE",
"819 627 OFFCURVE",
"760 646 CURVE",
"772 659 OFFCURVE",
"803 693 OFFCURVE",
"812 686 CURVE",
"815 685 OFFCURVE",
"818 684 OFFCURVE",
"820 684 CURVE SMOOTH",
"828 684 OFFCURVE",
"832 690 OFFCURVE",
"832 697 CURVE SMOOTH",
"832 706 OFFCURVE",
"827 711 OFFCURVE",
"814 711 CURVE SMOOTH",
"786 711 OFFCURVE",
"744 671 OFFCURVE",
"730 654 CURVE",
"667 671 OFFCURVE",
"528 731 OFFCURVE",
"403 741 CURVE SMOOTH",
"378 743 OFFCURVE",
"372 743 OFFCURVE",
"355 743 CURVE SMOOTH",
"147 743 OFFCURVE",
"45 611 OFFCURVE",
"45 495 CURVE SMOOTH",
"45 425 OFFCURVE",
"82 360 OFFCURVE",
"156 334 CURVE SMOOTH",
"173 328 OFFCURVE",
"192 325 OFFCURVE",
"210 325 CURVE SMOOTH",
"289 325 OFFCURVE",
"367 379 OFFCURVE",
"378 466 CURVE",
"378 475 OFFCURVE",
"374 480 OFFCURVE",
"368 480 CURVE SMOOTH",
"365 480 OFFCURVE",
"361 478 OFFCURVE",
"358 474 CURVE",
"358 473 LINE SMOOTH",
"358 449 OFFCURVE",
"307 352 OFFCURVE",
"212 352 CURVE SMOOTH",
"197 352 OFFCURVE",
"182 354 OFFCURVE",
"165 359 CURVE SMOOTH",
"117 375 OFFCURVE",
"94 413 OFFCURVE",
"94 458 CURVE SMOOTH",
"94 561 OFFCURVE",
"211 700 OFFCURVE",
"410 690 CURVE SMOOTH",
"519 685 OFFCURVE",
"610 667 OFFCURVE",
"716 635 CURVE",
"692 603 OFFCURVE",
"632 469 OFFCURVE",
"566 338 CURVE"
);
},
{
closed = 1;
nodes = (
"488 153 OFFCURVE",
"249 -350 OFFCURVE",
"-49 -350 CURVE SMOOTH",
"-179 -350 OFFCURVE",
"-139 -227 OFFCURVE",
"25 -164 CURVE SMOOTH",
"79 -144 OFFCURVE",
"149 -124 OFFCURVE",
"237 -111 CURVE SMOOTH",
"247 -110 OFFCURVE",
"251 -106 OFFCURVE",
"251 -101 CURVE SMOOTH",
"251 -97 OFFCURVE",
"244 -94 OFFCURVE",
"235 -94 CURVE SMOOTH",
"121 -94 OFFCURVE",
"-185 -165 OFFCURVE",
"-185 -295 CURVE SMOOTH",
"-185 -347 OFFCURVE",
"-134 -376 OFFCURVE",
"-54 -376 CURVE SMOOTH",
"200 -376 OFFCURVE",
"400 -169 OFFCURVE",
"487 10 CURVE SMOOTH",
"559 157 OFFCURVE",
"602 282 OFFCURVE",
"614 318 CURVE",
"555 315 LINE"
);
}
);
width = 757;
}
);
unicode = 0191;
},
{
glyphname = G;
lastChange = "2023-09-09 19:05:05 +0000";
layers = (
{
anchors = (
{
name = bottom;
position = "{86, -352}";
},
{
name = top;
position = "{605, 825}";
}
);
annotations = (
{
position = "{227, -396}";
text = "Weight of thin stroke modified slightly";
type = Text;
width = 124;
},
{
angle = -66.45571;
position = "{137, -393}";
type = Arrow;
}
);
background = {
anchors = (
{
name = bottom;
position = "{96, -74}";
},
{
name = top;
position = "{545, 1111}";
}
);
paths = (
{
closed = 1;
nodes = (
"213 -88 OFFCURVE",
"429 16 OFFCURVE",
"540 176 CURVE",
"620 176 OFFCURVE",
"720 169 OFFCURVE",
"766 157 CURVE SMOOTH",
"773 155 OFFCURVE",
"779 154 OFFCURVE",
"783 154 CURVE SMOOTH",
"791 154 OFFCURVE",
"795 157 OFFCURVE",
"795 161 CURVE SMOOTH",
"795 166 OFFCURVE",
"788 172 OFFCURVE",
"775 176 CURVE SMOOTH",
"714 190 OFFCURVE",
"643 200 OFFCURVE",
"553 201 CURVE",
"627 322 OFFCURVE",
"677 421 OFFCURVE",
"690 533 CURVE SMOOTH",
"694 558 OFFCURVE",
"679 581 OFFCURVE",
"657 581 CURVE SMOOTH",
"633 581 OFFCURVE",
"601 557 OFFCURVE",
"571 488 CURVE SMOOTH",
"547 431 OFFCURVE",
"413 347 OFFCURVE",
"293 347 CURVE SMOOTH",
"271 347 OFFCURVE",
"249 349 OFFCURVE",
"228 356 CURVE SMOOTH",
"154 380 OFFCURVE",
"111 455 OFFCURVE",
"111 554 CURVE SMOOTH",
"111 613 OFFCURVE",
"126 681 OFFCURVE",
"159 752 CURVE",
"224 709 OFFCURVE",
"326 681 OFFCURVE",
"423 682 CURVE SMOOTH",
"672 686 OFFCURVE",
"799 814 OFFCURVE",
"799 929 CURVE SMOOTH",
"799 1011 OFFCURVE",
"735 1086 OFFCURVE",
"606 1106 CURVE SMOOTH",
"589 1109 OFFCURVE",
"572 1110 OFFCURVE",
"555 1110 CURVE SMOOTH",
"404 1110 OFFCURVE",
"230 1014 OFFCURVE",
"135 859 CURVE SMOOTH",
"127 846 OFFCURVE",
"119 832 OFFCURVE",
"113 819 CURVE",
"80 858 OFFCURVE",
"61 904 OFFCURVE",
"61 951 CURVE SMOOTH",
"61 992 OFFCURVE",
"75 1034 OFFCURVE",
"106 1072 CURVE SMOOTH",
"111 1078 OFFCURVE",
"113 1083 OFFCURVE",
"113 1086 CURVE SMOOTH",
"113 1089 OFFCURVE",
"111 1090 OFFCURVE",
"109 1090 CURVE SMOOTH",
"105 1090 OFFCURVE",
"98 1087 OFFCURVE",
"92 1080 CURVE SMOOTH",
"49 1036 OFFCURVE",
"30 988 OFFCURVE",
"30 940 CURVE SMOOTH",
"30 885 OFFCURVE",
"55 832 OFFCURVE",
"96 789 CURVE",
"60 714 OFFCURVE",
"45 642 OFFCURVE",
"45 579 CURVE SMOOTH",
"45 450 OFFCURVE",
"109 353 OFFCURVE",
"193 324 CURVE SMOOTH",
"220 315 OFFCURVE",
"247 311 OFFCURVE",
"274 311 CURVE SMOOTH",
"417 311 OFFCURVE",
"559 418 OFFCURVE",
"610 465 CURVE",
"606 449 LINE SMOOTH",
"583 355 OFFCURVE",
"553 284 OFFCURVE",
"504 201 CURVE",
"441 200 OFFCURVE",
"343 193 OFFCURVE",
"291 185 CURVE SMOOTH",
"109 160 OFFCURVE",
"-48 67 OFFCURVE",
"-48 -7 CURVE SMOOTH",
"-48 -35 OFFCURVE",
"-26 -60 OFFCURVE",
"25 -79 CURVE SMOOTH",
"41 -85 OFFCURVE",
"61 -88 OFFCURVE",
"83 -88 CURVE SMOOTH"
);
},
{
closed = 1;
nodes = (
"71 -57 OFFCURVE",
"60 -56 OFFCURVE",
"51 -54 CURVE SMOOTH",
"17 -47 OFFCURVE",
"3 -33 OFFCURVE",
"3 -16 CURVE SMOOTH",
"3 41 OFFCURVE",
"166 137 OFFCURVE",
"303 158 CURVE SMOOTH",
"359 168 OFFCURVE",
"425 172 OFFCURVE",
"488 174 CURVE",
"382 22 OFFCURVE",
"186 -57 OFFCURVE",
"82 -57 CURVE SMOOTH"
);
},
{
closed = 1;
nodes = (
"308 712 OFFCURVE",
"226 737 OFFCURVE",
"172 779 CURVE",
"181 796 OFFCURVE",
"192 815 OFFCURVE",
"204 833 CURVE SMOOTH",
"290 976 OFFCURVE",
"446 1078 OFFCURVE",
"577 1078 CURVE SMOOTH",
"589 1078 OFFCURVE",
"600 1078 OFFCURVE",
"611 1076 CURVE SMOOTH",
"708 1061 OFFCURVE",
"755 1007 OFFCURVE",
"755 945 CURVE SMOOTH",
"755 849 OFFCURVE",
"645 735 OFFCURVE",
"440 714 CURVE SMOOTH",
"425 713 OFFCURVE",
"410 712 OFFCURVE",
"396 712 CURVE SMOOTH"
);
}
);
};
layerId = "61E7180A-0B32-4047-B910-001D8BB62225";
paths = (
{
closed = 1;
nodes = (
"213 -376 OFFCURVE",
"429 -272 OFFCURVE",
"540 -112 CURVE",
"620 -112 OFFCURVE",
"720 -119 OFFCURVE",
"766 -131 CURVE SMOOTH",
"773 -133 OFFCURVE",
"779 -134 OFFCURVE",
"783 -134 CURVE SMOOTH",
"791 -134 OFFCURVE",
"795 -131 OFFCURVE",
"795 -127 CURVE SMOOTH",
"795 -123 OFFCURVE",
"790 -116 OFFCURVE",
"774 -112 CURVE SMOOTH",
"715 -98 OFFCURVE",
"643 -88 OFFCURVE",
"553 -87 CURVE",
"627 34 OFFCURVE",
"676 132 OFFCURVE",
"690 243 CURVE SMOOTH",
"694 274 OFFCURVE",
"677 293 OFFCURVE",
"657 293 CURVE SMOOTH",
"633 293 OFFCURVE",
"601 269 OFFCURVE",
"571 200 CURVE SMOOTH",
"547 143 OFFCURVE",
"413 59 OFFCURVE",
"293 59 CURVE SMOOTH",
"271 59 OFFCURVE",
"249 61 OFFCURVE",
"228 68 CURVE SMOOTH",
"154 92 OFFCURVE",
"111 167 OFFCURVE",
"111 266 CURVE SMOOTH",
"111 325 OFFCURVE",
"126 393 OFFCURVE",
"159 464 CURVE",
"224 421 OFFCURVE",
"326 393 OFFCURVE",
"423 394 CURVE SMOOTH",
"672 398 OFFCURVE",
"799 526 OFFCURVE",
"799 641 CURVE SMOOTH",
"799 723 OFFCURVE",
"735 798 OFFCURVE",
"606 818 CURVE SMOOTH",
"589 821 OFFCURVE",
"572 822 OFFCURVE",
"555 822 CURVE SMOOTH",
"404 822 OFFCURVE",
"230 726 OFFCURVE",
"135 571 CURVE SMOOTH",
"127 558 OFFCURVE",
"119 544 OFFCURVE",
"113 531 CURVE",
"80 570 OFFCURVE",
"61 616 OFFCURVE",
"61 663 CURVE SMOOTH",
"61 704 OFFCURVE",
"75 746 OFFCURVE",
"106 784 CURVE SMOOTH",
"111 790 OFFCURVE",
"113 795 OFFCURVE",
"113 798 CURVE SMOOTH",
"113 801 OFFCURVE",
"111 802 OFFCURVE",
"109 802 CURVE SMOOTH",
"105 802 OFFCURVE",
"98 799 OFFCURVE",
"92 792 CURVE SMOOTH",
"49 748 OFFCURVE",
"30 700 OFFCURVE",
"30 652 CURVE SMOOTH",
"30 597 OFFCURVE",
"55 544 OFFCURVE",
"96 501 CURVE",
"60 426 OFFCURVE",
"45 354 OFFCURVE",
"45 291 CURVE SMOOTH",
"45 162 OFFCURVE",
"109 65 OFFCURVE",
"193 36 CURVE SMOOTH",
"220 27 OFFCURVE",
"247 23 OFFCURVE",
"274 23 CURVE SMOOTH",
"417 23 OFFCURVE",
"559 130 OFFCURVE",
"610 177 CURVE",
"606 161 LINE SMOOTH",
"582 64 OFFCURVE",
"553 -3 OFFCURVE",
"504 -87 CURVE",
"441 -88 OFFCURVE",
"351 -94 OFFCURVE",
"290 -103 CURVE SMOOTH",
"181 -118 OFFCURVE",
"-46 -191 OFFCURVE",
"-46 -298 CURVE SMOOTH",
"-46 -343 OFFCURVE",
"3 -376 OFFCURVE",
"82 -376 CURVE SMOOTH"
);
},
{
closed = 1;
nodes = (
"32 -350 OFFCURVE",
"13 -329 OFFCURVE",
"13 -305 CURVE SMOOTH",
"13 -221 OFFCURVE",
"218 -143 OFFCURVE",
"301 -130 CURVE SMOOTH",
"362 -120 OFFCURVE",
"424 -116 OFFCURVE",
"488 -114 CURVE",
"382 -266 OFFCURVE",
"184 -350 OFFCURVE",
"80 -350 CURVE SMOOTH"
);
},
{
closed = 1;
nodes = (
"308 424 OFFCURVE",
"226 449 OFFCURVE",
"172 491 CURVE",
"182 510 OFFCURVE",
"188 519 OFFCURVE",
"203 544 CURVE SMOOTH",
"292 690 OFFCURVE",
"447 790 OFFCURVE",
"577 790 CURVE SMOOTH",
"591 790 OFFCURVE",
"598 790 OFFCURVE",
"611 788 CURVE SMOOTH",
"708 773 OFFCURVE",
"755 719 OFFCURVE",
"755 657 CURVE SMOOTH",
"755 560 OFFCURVE",
"642 446 OFFCURVE",
"440 426 CURVE SMOOTH",
"425 425 OFFCURVE",
"410 424 OFFCURVE",
"396 424 CURVE SMOOTH"
);
}
);
width = 702;
}
);
note = G;
unicode = 0047;
},
{
glyphname = Ghook;
lastChange = "2023-09-09 19:11:42 +0000";
layers = (
{
anchors = (
{
name = bottom;
position = "{86, -352}";
},
{
name = top;
position = "{605, 825}";
}
);
annotations = (
{
position = "{437, 457}";
text = "Hook modified for smoother transition";
type = Text;
},
{
angle = 239.73386;
position = "{535, 510}";
type = Arrow;
}
);
background = {
paths = (
{
closed = 0;
nodes = (
"56 174 LINE",
"56 363 OFFCURVE",
"161 573 OFFCURVE",
"315 677 CURVE",
"259 709 LINE",
"91 598 OFFCURVE",
"-10 383 OFFCURVE",
"-10 213 CURVE SMOOTH"
);
},
{
closed = 0;
nodes = (
"431 732 LINE",
"429 719 OFFCURVE",
"428 706 OFFCURVE",
"428 694 CURVE SMOOTH",
"428 582 OFFCURVE",
"503 540 OFFCURVE",
"578 540 CURVE SMOOTH",
"677 540 OFFCURVE",
"730 592 OFFCURVE",
"730 648 CURVE SMOOTH",
"730 713 OFFCURVE",
"659 783 OFFCURVE",
"502 783 CURVE SMOOTH"
);
},
{
closed = 1;
nodes = (
"681 693 OFFCURVE",
"681 646 CURVE SMOOTH",
"681 606 OFFCURVE",
"643 568 OFFCURVE",
"572 568 CURVE SMOOTH",
"517 568 OFFCURVE",
"462 602 OFFCURVE",
"462 700 CURVE SMOOTH",
"462 712 OFFCURVE",
"463 725 OFFCURVE",
"465 739 CURVE",
"481 742 OFFCURVE",
"500 744 OFFCURVE",
"520 744 CURVE SMOOTH",
"630 744 OFFCURVE"
);
},
{
closed = 1;
nodes = (
"467 749 LINE",
"486 817 OFFCURVE",
"532 903 OFFCURVE",
"593 903 CURVE SMOOTH",
"617 903 OFFCURVE",
"635 882 OFFCURVE",
"635 857 CURVE SMOOTH",
"635 840 OFFCURVE",
"629 820 OFFCURVE",
"624 805 CURVE",
"624 798 OFFCURVE",
"628 795 OFFCURVE",
"632 795 CURVE SMOOTH",
"637 795 OFFCURVE",
"641 797 OFFCURVE",
"645 803 CURVE SMOOTH",
"655 816 OFFCURVE",
"663 839 OFFCURVE",
"663 867 CURVE SMOOTH",
"663 918 OFFCURVE",
"634 974 OFFCURVE",
"583 974 CURVE SMOOTH",
"502 974 OFFCURVE",
"452 840 OFFCURVE",
"431 746 CURVE"
);
}
);
};
layerId = "61E7180A-0B32-4047-B910-001D8BB62225";
paths = (
{
closed = 1;
nodes = (
"71 -345 OFFCURVE",
"60 -344 OFFCURVE",
"51 -342 CURVE SMOOTH",
"17 -335 OFFCURVE",
"3 -321 OFFCURVE",
"3 -304 CURVE SMOOTH",
"3 -246 OFFCURVE",
"169 -151 OFFCURVE",
"301 -130 CURVE SMOOTH",
"362 -120 OFFCURVE",
"424 -116 OFFCURVE",
"488 -114 CURVE",
"382 -266 OFFCURVE",
"186 -345 OFFCURVE",
"82 -345 CURVE SMOOTH"
);
},
{
closed = 1;
nodes = (
"238 783 OFFCURVE",
"45 548 OFFCURVE",
"45 291 CURVE SMOOTH",
"45 162 OFFCURVE",
"109 65 OFFCURVE",
"193 36 CURVE SMOOTH",
"220 27 OFFCURVE",
"247 23 OFFCURVE",
"274 23 CURVE SMOOTH",
"417 23 OFFCURVE",
"559 130 OFFCURVE",
"610 177 CURVE",
"606 161 LINE SMOOTH",
"582 64 OFFCURVE",
"553 -3 OFFCURVE",
"504 -87 CURVE",
"441 -88 OFFCURVE",
"351 -94 OFFCURVE",
"290 -103 CURVE SMOOTH",
"106 -129 OFFCURVE",
"-48 -222 OFFCURVE",
"-48 -295 CURVE SMOOTH",
"-48 -323 OFFCURVE",
"-26 -348 OFFCURVE",
"25 -367 CURVE SMOOTH",
"41 -373 OFFCURVE",
"61 -376 OFFCURVE",
"83 -376 CURVE SMOOTH",
"213 -376 OFFCURVE",
"429 -272 OFFCURVE",
"540 -112 CURVE",
"620 -112 OFFCURVE",
"720 -119 OFFCURVE",
"766 -131 CURVE SMOOTH",
"773 -133 OFFCURVE",
"779 -134 OFFCURVE",
"783 -134 CURVE SMOOTH",
"791 -134 OFFCURVE",
"795 -131 OFFCURVE",
"795 -127 CURVE SMOOTH",
"795 -123 OFFCURVE",
"790 -116 OFFCURVE",
"774 -112 CURVE SMOOTH",
"715 -98 OFFCURVE",
"643 -88 OFFCURVE",
"553 -87 CURVE",
"627 34 OFFCURVE",
"676 132 OFFCURVE",
"690 243 CURVE SMOOTH",
"694 274 OFFCURVE",
"677 293 OFFCURVE",
"657 293 CURVE SMOOTH",
"633 293 OFFCURVE",
"601 269 OFFCURVE",
"571 200 CURVE SMOOTH",
"547 143 OFFCURVE",
"413 59 OFFCURVE",
"293 59 CURVE SMOOTH",
"271 59 OFFCURVE",
"249 61 OFFCURVE",
"228 68 CURVE SMOOTH",
"154 92 OFFCURVE",
"111 167 OFFCURVE",
"111 266 CURVE SMOOTH",
"111 446 OFFCURVE",
"233 678 OFFCURVE",
"431 732 CURVE",
"429 719 OFFCURVE",
"428 706 OFFCURVE",
"428 694 CURVE SMOOTH",
"428 582 OFFCURVE",
"503 540 OFFCURVE",
"578 540 CURVE SMOOTH",
"677 540 OFFCURVE",
"730 592 OFFCURVE",
"730 648 CURVE SMOOTH",
"730 713 OFFCURVE",
"658 783 OFFCURVE",
"502 783 CURVE SMOOTH"
);
},
{
closed = 1;
nodes = (
"462 712 OFFCURVE",
"463 725 OFFCURVE",
"465 739 CURVE",
"484 742 OFFCURVE",
"500 744 OFFCURVE",
"520 744 CURVE SMOOTH",
"635 744 OFFCURVE",
"681 693 OFFCURVE",
"681 646 CURVE SMOOTH",
"681 606 OFFCURVE",
"643 568 OFFCURVE",
"572 568 CURVE SMOOTH",
"517 568 OFFCURVE",
"462 602 OFFCURVE",
"462 700 CURVE SMOOTH"
);
},
{
closed = 1;
nodes = (
"467 749 LINE",
"486 817 OFFCURVE",
"532 903 OFFCURVE",
"593 903 CURVE SMOOTH",
"617 903 OFFCURVE",
"635 882 OFFCURVE",
"635 857 CURVE SMOOTH",
"635 840 OFFCURVE",
"629 820 OFFCURVE",
"624 805 CURVE",
"624 798 OFFCURVE",
"628 795 OFFCURVE",
"632 795 CURVE SMOOTH",
"637 795 OFFCURVE",
"641 797 OFFCURVE",
"645 803 CURVE SMOOTH",
"655 816 OFFCURVE",
"663 839 OFFCURVE",
"663 867 CURVE SMOOTH",
"663 918 OFFCURVE",
"634 974 OFFCURVE",
"583 974 CURVE SMOOTH",
"502 974 OFFCURVE",
"452 840 OFFCURVE",
"431 746 CURVE"
);
}
);
width = 702;
}
);
unicode = 0193;
},
{
color = 5;
glyphname = Glottalstop;
lastChange = "2023-09-25 18:06:14 +0000";
layers = (
{
background = {
paths = (
{
closed = 1;
nodes = (
"131 187 OFFCURVE",
"231 270 OFFCURVE",
"257 293 CURVE SMOOTH",
"428 446 OFFCURVE",
"524 500 OFFCURVE",
"524 624 CURVE SMOOTH",
"524 710 OFFCURVE",
"454 745 OFFCURVE",
"377 745 CURVE SMOOTH",
"273 745 OFFCURVE",
"106 671 OFFCURVE",
"98 521 CURVE",
"98 485 OFFCURVE",
"123 462 OFFCURVE",
"156 462 CURVE SMOOTH",
"192 462 OFFCURVE",
"233 491 OFFCURVE",
"233 531 CURVE SMOOTH",
"233 554 OFFCURVE",
"218 573 OFFCURVE",
"192 573 CURVE SMOOTH",
"163 573 OFFCURVE",
"124 546 OFFCURVE",
"119 523 CURVE",
"119 613 OFFCURVE",
"231 689 OFFCURVE",
"333 689 CURVE SMOOTH",
"381 689 OFFCURVE",
"445 667 OFFCURVE",
"445 613 CURVE SMOOTH",
"445 531 OFFCURVE",
"337 437 OFFCURVE",
"263 358 CURVE SMOOTH",
"198 290 OFFCURVE",
"76 151 OFFCURVE",
"77 21 CURVE SMOOTH",
"77 12 OFFCURVE",
"78 3 OFFCURVE",
"86 3 CURVE",
"86 3 OFFCURVE",
"92 5 OFFCURVE",
"94 12 CURVE SMOOTH"
);
}
);
};
layerId = "61E7180A-0B32-4047-B910-001D8BB62225";
paths = (
{
closed = 1;
nodes = (
"139 250 OFFCURVE",
"574 409 OFFCURVE",
"574 653 CURVE SMOOTH",
"574 756 OFFCURVE",
"496 800 OFFCURVE",
"404 800 CURVE SMOOTH",
"265 800 OFFCURVE",
"92 701 OFFCURVE",
"88 546 CURVE SMOOTH",
"88 529 OFFCURVE",
"93 522 OFFCURVE",
"99 522 CURVE SMOOTH",
"106 522 OFFCURVE",
"114 532 OFFCURVE",
"114 545 CURVE SMOOTH",
"114 656 OFFCURVE",
"261 754 OFFCURVE",
"376 754 CURVE SMOOTH",
"442 754 OFFCURVE",
"499 724 OFFCURVE",
"499 641 CURVE SMOOTH",
"499 437 OFFCURVE",
"118 250 OFFCURVE",
"118 11 CURVE SMOOTH",
"118 1 OFFCURVE",
"119 -9 OFFCURVE",
"127 -9 CURVE",
"127 -9 OFFCURVE",
"139 -7 OFFCURVE",
"139 0 CURVE SMOOTH"
);
}
);
width = 425;
}
);
unicode = 0241;
},
{
glyphname = H;
lastChange = "2023-09-25 18:06:14 +0000";
layers = (
{
anchors = (
{
name = bottom;
position = "{374, -150}";
},
{
name = center;
position = "{694, 209}";
},
{
name = top;
position = "{1312, 796}";
},
{
name = topleft;
position = "{20, 706}";
}
);
background = {
anchors = (
{
name = bottom;
position = "{915, 182}";
},
{
name = center;
position = "{694, 497}";
},
{
name = top;
position = "{1312, 1084}";
},
{
name = topleft;
position = "{20, 994}";
}
);
};
layerId = "61E7180A-0B32-4047-B910-001D8BB62225";
paths = (
{
closed = 1;
nodes = (
"609 -173 OFFCURVE",
"824 68 OFFCURVE",
"915 338 CURVE",
"1006 334 OFFCURVE",
"1210 326 OFFCURVE",
"1253 326 CURVE",
"1236 277 OFFCURVE",
"1184 144 OFFCURVE",
"1184 53 CURVE SMOOTH",
"1184 13 OFFCURVE",
"1195 -19 OFFCURVE",
"1222 -33 CURVE SMOOTH",
"1233 -39 OFFCURVE",
"1246 -42 OFFCURVE",
"1258 -42 CURVE SMOOTH",
"1287 -42 OFFCURVE",
"1316 -26 OFFCURVE",
"1336 -7 CURVE SMOOTH",
"1394 48 OFFCURVE",
"1415 94 OFFCURVE",
"1458 182 CURVE SMOOTH",
"1461 188 OFFCURVE",
"1462 193 OFFCURVE",
"1462 196 CURVE SMOOTH",
"1462 201 OFFCURVE",
"1460 203 OFFCURVE",
"1457 203 CURVE SMOOTH",
"1453 203 OFFCURVE",
"1448 199 OFFCURVE",
"1443 189 CURVE SMOOTH",
"1411 125 OFFCURVE",
"1369 46 OFFCURVE",
"1317 8 CURVE SMOOTH",
"1307 0 OFFCURVE",
"1296 -4 OFFCURVE",
"1286 -4 CURVE SMOOTH",
"1277 -4 OFFCURVE",
"1268 0 OFFCURVE",
"1261 8 CURVE SMOOTH",
"1252 18 OFFCURVE",
"1248 36 OFFCURVE",
"1248 58 CURVE SMOOTH",
"1248 138 OFFCURVE",
"1297 278 OFFCURVE",
"1313 326 CURVE",
"1343 327 OFFCURVE",
"1386 334 OFFCURVE",
"1411 353 CURVE SMOOTH",
"1418 358 OFFCURVE",
"1421 362 OFFCURVE",
"1421 364 CURVE SMOOTH",
"1421 366 OFFCURVE",
"1419 367 OFFCURVE",
"1415 367 CURVE SMOOTH",
"1412 367 OFFCURVE",
"1408 367 OFFCURVE",
"1403 365 CURVE SMOOTH",
"1387 358 OFFCURVE",
"1344 358 OFFCURVE",
"1323 358 CURVE",
"1403 591 OFFCURVE",
"1512 744 OFFCURVE",
"1530 753 CURVE SMOOTH",
"1540 758 OFFCURVE",
"1544 761 OFFCURVE",
"1544 763 CURVE SMOOTH",
"1544 764 OFFCURVE",
"1542 765 OFFCURVE",
"1538 765 CURVE SMOOTH",
"1528 765 OFFCURVE",
"1511 762 OFFCURVE",
"1483 752 CURVE SMOOTH",
"1405 725 OFFCURVE",
"1278 403 OFFCURVE",
"1262 357 CURVE",
"1194 357 OFFCURVE",
"1059 374 OFFCURVE",
"923 374 CURVE",
"941 417 OFFCURVE",
"1016 627 OFFCURVE",
"1053 701 CURVE",
"1093 701 OFFCURVE",
"1173 728 OFFCURVE",
"1173 776 CURVE SMOOTH",
"1173 797 OFFCURVE",
"1156 807 OFFCURVE",
"1136 807 CURVE SMOOTH",
"1129 807 OFFCURVE",
"1122 806 OFFCURVE",
"1115 804 CURVE SMOOTH",
"1083 793 OFFCURVE",
"1044 736 OFFCURVE",
"1037 724 CURVE",
"931 713 OFFCURVE",
"786 716 OFFCURVE",
"665 680 CURVE SMOOTH",
"538 643 OFFCURVE",
"443 556 OFFCURVE",
"443 429 CURVE SMOOTH",
"443 338 OFFCURVE",
"512 267 OFFCURVE",
"596 267 CURVE SMOOTH",
"613 267 OFFCURVE",
"632 270 OFFCURVE",
"650 277 CURVE SMOOTH",
"707 298 OFFCURVE",
"761 362 OFFCURVE",
"761 431 CURVE SMOOTH",
"761 448 OFFCURVE",
"758 466 OFFCURVE",
"750 483 CURVE SMOOTH",
"747 489 OFFCURVE",
"743 491 OFFCURVE",
"739 491 CURVE SMOOTH",
"736 491 OFFCURVE",
"733 489 OFFCURVE",
"733 484 CURVE SMOOTH",
"733 482 OFFCURVE",
"734 478 OFFCURVE",
"737 474 CURVE SMOOTH",
"739 471 OFFCURVE",
"740 465 OFFCURVE",
"740 458 CURVE SMOOTH",
"740 417 OFFCURVE",
"711 319 OFFCURVE",
"649 296 CURVE SMOOTH",
"633 290 OFFCURVE",
"618 288 OFFCURVE",
"605 288 CURVE SMOOTH",
"546 288 OFFCURVE",
"507 336 OFFCURVE",
"507 401 CURVE SMOOTH",
"507 502 OFFCURVE",
"582 602 OFFCURVE",
"686 645 CURVE SMOOTH",
"787 687 OFFCURVE",
"914 687 OFFCURVE",
"1024 700 CURVE",
"1002 657 OFFCURVE",
"927 499 OFFCURVE",
"876 374 CURVE",
"838 374 LINE",
"811 370 OFFCURVE",
"784 350 OFFCURVE",
"775 335 CURVE SMOOTH",
"772 330 OFFCURVE",
"771 327 OFFCURVE",
"771 324 CURVE SMOOTH",
"771 320 OFFCURVE",
"775 318 OFFCURVE",
"780 318 CURVE SMOOTH",
"785 318 OFFCURVE",
"799 322 OFFCURVE",
"803 324 CURVE SMOOTH",
"823 334 OFFCURVE",
"839 340 OFFCURVE",
"863 340 CURVE",
"768 93 OFFCURVE",
"561 -109 OFFCURVE",
"316 -109 CURVE SMOOTH",
"174 -109 OFFCURVE",
"24 -50 OFFCURVE",
"24 105 CURVE SMOOTH",
"24 115 OFFCURVE",
"25 129 OFFCURVE",
"27 142 CURVE SMOOTH",
"38 223 OFFCURVE",
"95 286 OFFCURVE",
"129 299 CURVE SMOOTH",
"134 301 OFFCURVE",
"139 305 OFFCURVE",
"139 309 CURVE SMOOTH",
"139 312 OFFCURVE",
"136 314 OFFCURVE",
"127 314 CURVE SMOOTH",
"95 312 OFFCURVE",
"21 251 OFFCURVE",
"4 185 CURVE SMOOTH",
"-4 155 OFFCURVE",
"-8 126 OFFCURVE",
"-8 99 CURVE SMOOTH",
"-8 -76 OFFCURVE",
"152 -173 OFFCURVE",
"316 -173 CURVE SMOOTH"
);
},
{
closed = 1;
nodes = (
"1085 744 OFFCURVE",
"1115 780 OFFCURVE",
"1124 775 CURVE",
"1129 775 OFFCURVE",
"1135 769 OFFCURVE",
"1135 761 CURVE SMOOTH",
"1135 750 OFFCURVE",
"1122 734 OFFCURVE",
"1072 726 CURVE"
);
}
);
width = 1388;
}
);
note = H;
unicode = 0048;
},
{
color = 9;
glyphname = Hbar;
lastChange = "2023-09-25 18:06:14 +0000";
layers = (
{
background = {
paths = (
{
closed = 1;
nodes = (
"1221 223 OFFCURVE",
"1184 149 OFFCURVE",
"1184 53 CURVE SMOOTH",
"1184 13 OFFCURVE",
"1195 -19 OFFCURVE",
"1222 -33 CURVE SMOOTH",
"1233 -39 OFFCURVE",
"1246 -42 OFFCURVE",
"1258 -42 CURVE SMOOTH",
"1287 -42 OFFCURVE",
"1316 -26 OFFCURVE",
"1336 -7 CURVE SMOOTH",
"1394 48 OFFCURVE",
"1415 94 OFFCURVE",
"1458 182 CURVE SMOOTH",
"1461 188 OFFCURVE",
"1462 193 OFFCURVE",
"1462 196 CURVE SMOOTH",
"1462 201 OFFCURVE",
"1460 203 OFFCURVE",
"1457 203 CURVE SMOOTH",
"1453 203 OFFCURVE",
"1448 199 OFFCURVE",
"1443 189 CURVE SMOOTH",
"1411 125 OFFCURVE",
"1369 46 OFFCURVE",
"1317 8 CURVE SMOOTH",
"1307 0 OFFCURVE",
"1296 -4 OFFCURVE",
"1286 -4 CURVE SMOOTH",
"1277 -4 OFFCURVE",
"1268 0 OFFCURVE",
"1261 8 CURVE SMOOTH",
"1252 18 OFFCURVE",
"1248 36 OFFCURVE",
"1248 58 CURVE SMOOTH",
"1248 135 OFFCURVE",
"1299 273 OFFCURVE",
"1323 358 CURVE SMOOTH",
"1390 595 OFFCURVE",
"1512 744 OFFCURVE",
"1530 753 CURVE SMOOTH",
"1540 758 OFFCURVE",
"1544 761 OFFCURVE",
"1544 763 CURVE SMOOTH",
"1544 764 OFFCURVE",
"1542 765 OFFCURVE",
"1538 765 CURVE SMOOTH",
"1528 765 OFFCURVE",
"1511 762 OFFCURVE",
"1483 752 CURVE SMOOTH",
"1405 725 OFFCURVE",
"1281 403 OFFCURVE",
"1265 357 CURVE"
);
},
{
closed = 1;
nodes = (
"1085 744 OFFCURVE",
"1115 780 OFFCURVE",
"1124 775 CURVE",
"1129 775 OFFCURVE",
"1135 769 OFFCURVE",
"1135 761 CURVE SMOOTH",
"1135 750 OFFCURVE",
"1122 734 OFFCURVE",
"1072 726 CURVE"
);
},
{
closed = 1;
nodes = (
"941 417 OFFCURVE",
"1016 627 OFFCURVE",
"1053 701 CURVE",
"1093 701 OFFCURVE",
"1173 728 OFFCURVE",
"1173 776 CURVE SMOOTH",
"1173 797 OFFCURVE",
"1156 807 OFFCURVE",
"1136 807 CURVE SMOOTH",
"1129 807 OFFCURVE",
"1122 806 OFFCURVE",
"1115 804 CURVE SMOOTH",
"1083 793 OFFCURVE",
"1044 736 OFFCURVE",
"1037 724 CURVE",
"842 704 OFFCURVE",
"462 730 OFFCURVE",
"399 476 CURVE SMOOTH",
"395 460 OFFCURVE",
"393 444 OFFCURVE",
"393 429 CURVE SMOOTH",
"393 338 OFFCURVE",
"462 267 OFFCURVE",
"546 267 CURVE SMOOTH",
"563 267 OFFCURVE",
"582 270 OFFCURVE",
"600 277 CURVE SMOOTH",
"657 298 OFFCURVE",
"711 362 OFFCURVE",
"711 431 CURVE SMOOTH",
"711 448 OFFCURVE",
"708 466 OFFCURVE",
"700 483 CURVE SMOOTH",
"697 489 OFFCURVE",
"693 491 OFFCURVE",
"689 491 CURVE SMOOTH",
"686 491 OFFCURVE",
"683 489 OFFCURVE",
"683 484 CURVE SMOOTH",
"683 482 OFFCURVE",
"684 478 OFFCURVE",
"687 474 CURVE SMOOTH",
"689 471 OFFCURVE",
"690 465 OFFCURVE",
"690 458 CURVE SMOOTH",
"690 417 OFFCURVE",
"661 319 OFFCURVE",
"599 296 CURVE SMOOTH",
"583 290 OFFCURVE",
"568 288 OFFCURVE",
"555 288 CURVE SMOOTH",
"496 288 OFFCURVE",
"457 336 OFFCURVE",
"457 401 CURVE SMOOTH",
"457 418 OFFCURVE",
"460 440 OFFCURVE",
"467 461 CURVE SMOOTH",
"540 692 OFFCURVE",
"832 678 OFFCURVE",
"1024 700 CURVE",
"1002 657 OFFCURVE",
"927 499 OFFCURVE",
"876 374 CURVE",
"762 77 OFFCURVE",
"605 -50 OFFCURVE",
"383 -100 CURVE SMOOTH",
"358 -106 OFFCURVE",
"331 -109 OFFCURVE",
"301 -109 CURVE SMOOTH",
"174 -109 OFFCURVE",
"24 -50 OFFCURVE",
"24 105 CURVE SMOOTH",
"24 115 OFFCURVE",
"25 129 OFFCURVE",
"27 142 CURVE SMOOTH",
"38 223 OFFCURVE",
"95 286 OFFCURVE",
"129 299 CURVE SMOOTH",
"134 301 OFFCURVE",
"139 305 OFFCURVE",
"139 309 CURVE SMOOTH",
"139 312 OFFCURVE",
"136 314 OFFCURVE",
"127 314 CURVE SMOOTH",
"95 312 OFFCURVE",
"21 251 OFFCURVE",
"4 185 CURVE SMOOTH",
"-4 155 OFFCURVE",
"-8 126 OFFCURVE",
"-8 99 CURVE SMOOTH",
"-8 -76 OFFCURVE",
"152 -173 OFFCURVE",
"332 -173 CURVE SMOOTH",
"349 -173 OFFCURVE",
"379 -171 OFFCURVE",
"393 -169 CURVE SMOOTH",
"499 -155 OFFCURVE",
"594 -106 OFFCURVE",
"674 -36 CURVE SMOOTH",
"784 61 OFFCURVE",
"867 198 OFFCURVE",
"915 338 CURVE"
);
},
{
closed = 1;
nodes = (
"1461 500 OFFCURVE",
"1504 507 OFFCURVE",
"1529 526 CURVE SMOOTH",
"1536 531 OFFCURVE",
"1539 535 OFFCURVE",
"1539 537 CURVE SMOOTH",
"1539 539 OFFCURVE",
"1537 540 OFFCURVE",
"1533 540 CURVE SMOOTH",
"1530 540 OFFCURVE",
"1526 540 OFFCURVE",
"1521 538 CURVE SMOOTH",
"1505 531 OFFCURVE",
"1462 531 OFFCURVE",
"1441 531 CURVE SMOOTH",
"1370 531 OFFCURVE",
"1055 547 OFFCURVE",
"939 547 CURVE SMOOTH",
"910 547 OFFCURVE",
"881 547 OFFCURVE",
"881 547 CURVE",
"854 543 OFFCURVE",
"827 523 OFFCURVE",
"818 508 CURVE SMOOTH",
"815 503 OFFCURVE",
"814 500 OFFCURVE",
"814 497 CURVE SMOOTH",
"814 493 OFFCURVE",
"818 491 OFFCURVE",
"823 491 CURVE SMOOTH",
"828 491 OFFCURVE",
"842 495 OFFCURVE",
"846 497 CURVE SMOOTH",
"866 507 OFFCURVE",
"882 513 OFFCURVE",
"926 513 CURVE",
"997 509 OFFCURVE",
"1385 499 OFFCURVE",
"1431 499 CURVE SMOOTH"
);
},
{
closed = 1;
nodes = (
"1359 304 OFFCURVE",
"1402 311 OFFCURVE",
"1427 330 CURVE SMOOTH",
"1434 335 OFFCURVE",
"1437 339 OFFCURVE",
"1437 341 CURVE SMOOTH",
"1437 343 OFFCURVE",
"1435 344 OFFCURVE",
"1431 344 CURVE SMOOTH",
"1428 344 OFFCURVE",
"1424 344 OFFCURVE",
"1419 342 CURVE SMOOTH",
"1403 335 OFFCURVE",
"1360 335 OFFCURVE",
"1339 335 CURVE SMOOTH",
"1268 335 OFFCURVE",
"1013 351 OFFCURVE",
"897 351 CURVE SMOOTH",
"868 351 OFFCURVE",
"839 351 OFFCURVE",
"839 351 CURVE",
"812 347 OFFCURVE",
"785 327 OFFCURVE",
"776 312 CURVE SMOOTH",
"773 307 OFFCURVE",
"772 304 OFFCURVE",
"772 301 CURVE SMOOTH",
"772 297 OFFCURVE",
"776 295 OFFCURVE",
"781 295 CURVE SMOOTH",
"786 295 OFFCURVE",
"800 299 OFFCURVE",
"804 301 CURVE SMOOTH",
"824 311 OFFCURVE",
"840 317 OFFCURVE",
"884 317 CURVE",
"955 313 OFFCURVE",
"1283 303 OFFCURVE",
"1329 304 CURVE SMOOTH"
);
}
);
};
layerId = "61E7180A-0B32-4047-B910-001D8BB62225";
paths = (
{
closed = 1;
nodes = (
"349 -173 OFFCURVE",
"379 -171 OFFCURVE",
"393 -169 CURVE SMOOTH",
"646 -136 OFFCURVE",
"833 88 OFFCURVE",
"907 315 CURVE",
"955 313 OFFCURVE",
"1202 303 OFFCURVE",
"1248 303 CURVE",
"1239 269 OFFCURVE",
"1184 144 OFFCURVE",
"1184 53 CURVE SMOOTH",
"1184 13 OFFCURVE",
"1195 -19 OFFCURVE",
"1222 -33 CURVE SMOOTH",
"1233 -39 OFFCURVE",
"1246 -42 OFFCURVE",
"1258 -42 CURVE SMOOTH",
"1287 -42 OFFCURVE",
"1316 -26 OFFCURVE",
"1336 -7 CURVE SMOOTH",
"1394 48 OFFCURVE",
"1415 94 OFFCURVE",
"1458 182 CURVE SMOOTH",
"1461 188 OFFCURVE",
"1462 193 OFFCURVE",
"1462 196 CURVE SMOOTH",
"1462 201 OFFCURVE",
"1460 203 OFFCURVE",
"1457 203 CURVE SMOOTH",
"1453 203 OFFCURVE",
"1448 199 OFFCURVE",
"1443 189 CURVE SMOOTH",
"1411 125 OFFCURVE",
"1369 46 OFFCURVE",
"1317 8 CURVE SMOOTH",
"1307 0 OFFCURVE",
"1296 -4 OFFCURVE",
"1286 -4 CURVE SMOOTH",
"1277 -4 OFFCURVE",
"1268 0 OFFCURVE",
"1261 8 CURVE SMOOTH",
"1252 18 OFFCURVE",
"1248 36 OFFCURVE",
"1248 58 CURVE SMOOTH",
"1248 138 OFFCURVE",
"1300 270 OFFCURVE",
"1305 303 CURVE",
"1359 304 OFFCURVE",
"1402 311 OFFCURVE",
"1427 330 CURVE SMOOTH",
"1434 335 OFFCURVE",
"1437 339 OFFCURVE",
"1437 341 CURVE SMOOTH",
"1437 343 OFFCURVE",
"1435 344 OFFCURVE",
"1431 344 CURVE SMOOTH",
"1428 344 OFFCURVE",
"1424 344 OFFCURVE",
"1419 342 CURVE SMOOTH",
"1403 335 OFFCURVE",
"1360 335 OFFCURVE",
"1315 335 CURVE",
"1403 583 OFFCURVE",
"1512 744 OFFCURVE",
"1530 753 CURVE SMOOTH",
"1540 758 OFFCURVE",
"1544 761 OFFCURVE",
"1544 763 CURVE SMOOTH",
"1544 764 OFFCURVE",
"1542 765 OFFCURVE",
"1538 765 CURVE SMOOTH",
"1528 765 OFFCURVE",
"1511 762 OFFCURVE",
"1483 752 CURVE SMOOTH",
"1405 725 OFFCURVE",
"1281 395 OFFCURVE",
"1257 334 CURVE",
"1202 334 OFFCURVE",
"1013 351 OFFCURVE",
"919 351 CURVE",
"939 403 OFFCURVE",
"1016 627 OFFCURVE",
"1053 701 CURVE",
"1093 701 OFFCURVE",
"1173 728 OFFCURVE",
"1173 776 CURVE SMOOTH",
"1173 797 OFFCURVE",
"1156 807 OFFCURVE",
"1136 807 CURVE SMOOTH",
"1129 807 OFFCURVE",
"1122 806 OFFCURVE",
"1115 804 CURVE SMOOTH",
"1083 793 OFFCURVE",
"1044 736 OFFCURVE",
"1037 724 CURVE",
"842 704 OFFCURVE",
"512 730 OFFCURVE",
"449 476 CURVE SMOOTH",
"445 460 OFFCURVE",
"443 444 OFFCURVE",
"443 429 CURVE SMOOTH",
"443 338 OFFCURVE",
"512 267 OFFCURVE",
"596 267 CURVE SMOOTH",
"613 267 OFFCURVE",
"632 270 OFFCURVE",
"650 277 CURVE SMOOTH",
"707 298 OFFCURVE",
"761 362 OFFCURVE",
"761 431 CURVE SMOOTH",
"761 448 OFFCURVE",
"758 466 OFFCURVE",
"750 483 CURVE SMOOTH",
"747 489 OFFCURVE",
"743 491 OFFCURVE",
"739 491 CURVE SMOOTH",
"736 491 OFFCURVE",
"733 489 OFFCURVE",
"733 484 CURVE SMOOTH",
"733 482 OFFCURVE",
"734 478 OFFCURVE",
"737 474 CURVE SMOOTH",
"739 471 OFFCURVE",
"740 465 OFFCURVE",
"740 458 CURVE SMOOTH",
"740 417 OFFCURVE",
"711 319 OFFCURVE",
"649 296 CURVE SMOOTH",
"633 290 OFFCURVE",
"618 288 OFFCURVE",
"605 288 CURVE SMOOTH",
"546 288 OFFCURVE",
"507 336 OFFCURVE",
"507 401 CURVE SMOOTH",
"507 418 OFFCURVE",
"510 440 OFFCURVE",
"517 461 CURVE SMOOTH",
"590 692 OFFCURVE",
"832 678 OFFCURVE",
"1024 700 CURVE",
"1002 657 OFFCURVE",
"927 491 OFFCURVE",
"868 351 CURVE",
"822 351 OFFCURVE",
"794 339 OFFCURVE",
"774 313 CURVE SMOOTH",
"770 308 OFFCURVE",
"770 305 OFFCURVE",
"770 302 CURVE SMOOTH",
"770 296 OFFCURVE",
"776 295 OFFCURVE",
"781 295 CURVE SMOOTH",
"786 295 OFFCURVE",
"798 299 OFFCURVE",
"802 301 CURVE SMOOTH",
"822 311 OFFCURVE",
"843 317 OFFCURVE",
"855 317 CURVE",
"783 151 OFFCURVE",
"665 -37 OFFCURVE",
"383 -100 CURVE SMOOTH",
"358 -106 OFFCURVE",
"331 -109 OFFCURVE",
"301 -109 CURVE SMOOTH",
"174 -109 OFFCURVE",
"24 -50 OFFCURVE",
"24 105 CURVE SMOOTH",
"24 115 OFFCURVE",
"25 129 OFFCURVE",
"27 142 CURVE SMOOTH",
"38 223 OFFCURVE",
"95 286 OFFCURVE",
"129 299 CURVE SMOOTH",
"134 301 OFFCURVE",
"139 305 OFFCURVE",
"139 309 CURVE SMOOTH",
"139 312 OFFCURVE",
"136 314 OFFCURVE",
"127 314 CURVE SMOOTH",
"95 312 OFFCURVE",
"21 251 OFFCURVE",
"4 185 CURVE SMOOTH",
"-4 155 OFFCURVE",
"-8 126 OFFCURVE",
"-8 99 CURVE SMOOTH",
"-8 -76 OFFCURVE",
"152 -173 OFFCURVE",
"332 -173 CURVE SMOOTH"
);
},
{
closed = 1;
nodes = (
"1085 744 OFFCURVE",
"1115 780 OFFCURVE",
"1124 775 CURVE",
"1129 775 OFFCURVE",
"1135 769 OFFCURVE",
"1135 761 CURVE SMOOTH",
"1135 750 OFFCURVE",
"1122 734 OFFCURVE",
"1072 726 CURVE"
);
},
{
closed = 1;
nodes = (
"1461 500 OFFCURVE",
"1504 507 OFFCURVE",
"1529 526 CURVE SMOOTH",
"1536 531 OFFCURVE",
"1539 535 OFFCURVE",
"1539 537 CURVE SMOOTH",
"1539 539 OFFCURVE",
"1537 540 OFFCURVE",
"1533 540 CURVE SMOOTH",
"1530 540 OFFCURVE",
"1526 540 OFFCURVE",
"1521 538 CURVE SMOOTH",
"1505 531 OFFCURVE",
"1462 531 OFFCURVE",
"1441 531 CURVE SMOOTH",
"1370 531 OFFCURVE",
"1055 547 OFFCURVE",
"939 547 CURVE SMOOTH",
"885 547 OFFCURVE",
"839 543 OFFCURVE",
"818 508 CURVE SMOOTH",
"815 503 OFFCURVE",
"814 500 OFFCURVE",
"814 497 CURVE SMOOTH",
"814 493 OFFCURVE",
"818 491 OFFCURVE",
"823 491 CURVE SMOOTH",
"828 491 OFFCURVE",
"842 495 OFFCURVE",
"846 497 CURVE SMOOTH",
"866 507 OFFCURVE",
"882 513 OFFCURVE",
"926 513 CURVE SMOOTH",
"997 509 OFFCURVE",
"1385 499 OFFCURVE",
"1431 499 CURVE SMOOTH"
);
}
);
width = 1388;
}
);
note = Hbar;
unicode = 0126;
},
{
color = 5;
glyphname = Hhook;
lastChange = "2023-09-25 18:06:14 +0000";
layers = (
{
anchors = (
{
name = bottom;
position = "{915, -106}";
},
{
name = center;
position = "{694, 209}";
},
{
name = top;
position = "{1312, 796}";
},
{
name = topleft;
position = "{20, 706}";
}
);
layerId = "61E7180A-0B32-4047-B910-001D8BB62225";
paths = (
{
closed = 1;
nodes = (
"349 -173 OFFCURVE",
"379 -171 OFFCURVE",
"393 -169 CURVE SMOOTH",
"646 -136 OFFCURVE",
"833 96 OFFCURVE",
"915 338 CURVE",
"1006 334 OFFCURVE",
"1210 326 OFFCURVE",
"1256 326 CURVE",
"1239 277 OFFCURVE",
"1184 144 OFFCURVE",
"1184 53 CURVE SMOOTH",
"1184 13 OFFCURVE",
"1195 -19 OFFCURVE",
"1222 -33 CURVE SMOOTH",
"1233 -39 OFFCURVE",
"1246 -42 OFFCURVE",
"1258 -42 CURVE SMOOTH",
"1287 -42 OFFCURVE",
"1316 -26 OFFCURVE",
"1336 -7 CURVE SMOOTH",
"1394 48 OFFCURVE",
"1415 94 OFFCURVE",
"1458 182 CURVE SMOOTH",
"1461 188 OFFCURVE",
"1462 193 OFFCURVE",
"1462 196 CURVE SMOOTH",
"1462 201 OFFCURVE",
"1460 203 OFFCURVE",
"1457 203 CURVE SMOOTH",
"1453 203 OFFCURVE",
"1448 199 OFFCURVE",
"1443 189 CURVE SMOOTH",
"1411 125 OFFCURVE",
"1369 46 OFFCURVE",
"1317 8 CURVE SMOOTH",
"1307 0 OFFCURVE",
"1296 -4 OFFCURVE",
"1286 -4 CURVE SMOOTH",
"1277 -4 OFFCURVE",
"1268 0 OFFCURVE",
"1261 8 CURVE SMOOTH",
"1252 18 OFFCURVE",
"1248 36 OFFCURVE",
"1248 58 CURVE SMOOTH",
"1248 138 OFFCURVE",
"1300 278 OFFCURVE",
"1313 326 CURVE",
"1343 327 OFFCURVE",
"1386 334 OFFCURVE",
"1411 353 CURVE SMOOTH",
"1418 358 OFFCURVE",
"1421 362 OFFCURVE",
"1421 364 CURVE SMOOTH",
"1421 366 OFFCURVE",
"1419 367 OFFCURVE",
"1415 367 CURVE SMOOTH",
"1412 367 OFFCURVE",
"1408 367 OFFCURVE",
"1403 365 CURVE SMOOTH",
"1387 358 OFFCURVE",
"1344 358 OFFCURVE",
"1323 358 CURVE",
"1403 591 OFFCURVE",
"1512 744 OFFCURVE",
"1530 753 CURVE SMOOTH",
"1540 758 OFFCURVE",
"1544 761 OFFCURVE",
"1544 763 CURVE SMOOTH",
"1544 764 OFFCURVE",
"1542 765 OFFCURVE",
"1538 765 CURVE SMOOTH",
"1528 765 OFFCURVE",
"1511 762 OFFCURVE",
"1483 752 CURVE SMOOTH",
"1405 725 OFFCURVE",
"1281 403 OFFCURVE",
"1265 357 CURVE",
"1194 357 OFFCURVE",
"1059 374 OFFCURVE",
"923 374 CURVE",
"941 417 OFFCURVE",
"1016 627 OFFCURVE",
"1053 701 CURVE",
"1102 713 OFFCURVE",
"1173 728 OFFCURVE",
"1173 776 CURVE SMOOTH",
"1173 797 OFFCURVE",
"1156 807 OFFCURVE",
"1136 807 CURVE SMOOTH",
"1095 807 OFFCURVE",
"1056 760 OFFCURVE",
"1037 724 CURVE SMOOTH",
"1023 698 LINE SMOOTH",
"1001 658 OFFCURVE",
"927 499 OFFCURVE",
"876 374 CURVE",
"838 374 LINE",
"811 370 OFFCURVE",
"784 350 OFFCURVE",
"775 335 CURVE SMOOTH",
"772 330 OFFCURVE",
"771 327 OFFCURVE",
"771 324 CURVE SMOOTH",
"771 320 OFFCURVE",
"775 318 OFFCURVE",
"780 318 CURVE SMOOTH",
"785 318 OFFCURVE",
"799 322 OFFCURVE",
"803 324 CURVE SMOOTH",
"823 334 OFFCURVE",
"839 340 OFFCURVE",
"863 340 CURVE",
"796 165 OFFCURVE",
"665 -37 OFFCURVE",
"383 -100 CURVE SMOOTH",
"358 -106 OFFCURVE",
"331 -109 OFFCURVE",
"301 -109 CURVE SMOOTH",
"174 -109 OFFCURVE",
"24 -50 OFFCURVE",
"24 105 CURVE SMOOTH",
"24 115 OFFCURVE",
"25 129 OFFCURVE",
"27 142 CURVE SMOOTH",
"38 223 OFFCURVE",
"95 286 OFFCURVE",
"129 299 CURVE SMOOTH",
"134 301 OFFCURVE",
"139 305 OFFCURVE",
"139 309 CURVE SMOOTH",
"139 312 OFFCURVE",
"136 314 OFFCURVE",
"127 314 CURVE SMOOTH",
"95 312 OFFCURVE",
"21 251 OFFCURVE",
"4 185 CURVE SMOOTH",
"-4 155 OFFCURVE",
"-8 126 OFFCURVE",
"-8 99 CURVE SMOOTH",
"-8 -76 OFFCURVE",
"152 -173 OFFCURVE",
"332 -173 CURVE SMOOTH"
);
},
{
closed = 1;
nodes = (
"1076 747 OFFCURVE",
"1101 775 OFFCURVE",
"1124 775 CURVE SMOOTH",
"1129 775 OFFCURVE",
"1135 772 OFFCURVE",
"1135 765 CURVE SMOOTH",
"1135 750 OFFCURVE",
"1113 733 OFFCURVE",
"1063 725 CURVE"
);
},
{
closed = 1;
nodes = (
"1037 724 LINE",
"992 718 OFFCURVE",
"921 713 OFFCURVE",
"829 713 CURVE SMOOTH",
"723 713 OFFCURVE",
"602 736 OFFCURVE",
"614 790 CURVE SMOOTH",
"616 801 OFFCURVE",
"615 812 OFFCURVE",
"603 812 CURVE",
"586 788 LINE",
"585 784 OFFCURVE",
"585 781 OFFCURVE",
"585 777 CURVE SMOOTH",
"585 702 OFFCURVE",
"693 680 OFFCURVE",
"815 680 CURVE SMOOTH",
"891 680 OFFCURVE",
"959 688 OFFCURVE",
"1024 698 CURVE"
);
},
{
closed = 1;
nodes = (
"667 454 OFFCURVE",
"707 513 OFFCURVE",
"707 545 CURVE SMOOTH",
"707 550 OFFCURVE",
"706 555 OFFCURVE",
"704 558 CURVE",
"701 566 OFFCURVE",
"690 559 OFFCURVE",
"686 555 CURVE",
"674 531 OFFCURVE",
"655 499 OFFCURVE",
"626 491 CURVE SMOOTH",
"618 489 OFFCURVE",
"611 488 OFFCURVE",
"604 488 CURVE SMOOTH",
"575 488 OFFCURVE",
"560 505 OFFCURVE",
"549 525 CURVE SMOOTH",
"540 540 OFFCURVE",
"536 558 OFFCURVE",
"536 579 CURVE SMOOTH",
"536 647 OFFCURVE",
"577 738 OFFCURVE",
"620 799 CURVE",
"615 814 OFFCURVE",
"611 809 OFFCURVE",
"603 812 CURVE",
"556 759 OFFCURVE",
"466 618 OFFCURVE",
"466 523 CURVE SMOOTH",
"466 506 OFFCURVE",
"469 490 OFFCURVE",
"476 477 CURVE SMOOTH",
"494 444 OFFCURVE",
"526 432 OFFCURVE",
"557 432 CURVE SMOOTH",
"568 432 OFFCURVE",
"578 433 OFFCURVE",
"588 436 CURVE SMOOTH"
);
}
);
width = 1388;
}
);
unicode = A7AA;
},
{
glyphname = I;
lastChange = "2023-09-25 18:06:14 +0000";
layers = (
{
anchors = (
{
name = bottom;
position = "{276, -147}";
},
{
name = ogonek;
position = "{310, -148}";
},
{
name = top;
position = "{1173, 833}";
},
{
name = topleft;
position = "{20, 706}";
}
);
annotations = (
{
angle = -50.08782;
position = "{1133, 699}";
type = Arrow;
},
{
position = "{1117, 651}";
text = "Kink fixed";
type = Text;
}
);
background = {
anchors = (
{
name = bottom;
position = "{256, 141}";
},
{
name = ogonek;
position = "{290, 140}";
},
{
name = top;
position = "{1163, 1151}";
},
{
name = topleft;
position = "{20, 994}";
}
);
paths = (
{
closed = 1;
nodes = (
"333 131 OFFCURVE",
"371 134 OFFCURVE",
"410 141 CURVE SMOOTH",
"556 165 OFFCURVE",
"697 245 OFFCURVE",
"807 387 CURVE SMOOTH",
"967 592 OFFCURVE",
"959 792 OFFCURVE",
"1083 1017 CURVE",
"1092 1017 OFFCURVE",
"1112 1026 OFFCURVE",
"1124 1026 CURVE",
"1163 1040 OFFCURVE",
"1202 1056 OFFCURVE",
"1202 1095 CURVE SMOOTH",
"1202 1115 OFFCURVE",
"1189 1124 OFFCURVE",
"1170 1124 CURVE SMOOTH",
"1162 1124 OFFCURVE",
"1153 1123 OFFCURVE",
"1144 1120 CURVE SMOOTH",
"1112 1110 OFFCURVE",
"1076 1055 OFFCURVE",
"1068 1039 CURVE",
"878 1006 OFFCURVE",
"547 930 OFFCURVE",
"494 693 CURVE SMOOTH",
"492 681 OFFCURVE",
"490 670 OFFCURVE",
"490 659 CURVE SMOOTH",
"490 581 OFFCURVE",
"549 528 OFFCURVE",
"621 528 CURVE SMOOTH",
"641 528 OFFCURVE",
"661 532 OFFCURVE",
"681 540 CURVE SMOOTH",
"745 564 OFFCURVE",
"797 633 OFFCURVE",
"797 698 CURVE SMOOTH",
"797 715 OFFCURVE",
"793 732 OFFCURVE",
"785 748 CURVE SMOOTH",
"783 753 OFFCURVE",
"780 755 OFFCURVE",
"777 755 CURVE SMOOTH",
"770 755 OFFCURVE",
"763 746 OFFCURVE",
"763 740 CURVE SMOOTH",
"763 739 OFFCURVE",
"764 739 OFFCURVE",
"764 738 CURVE",
"769 734 OFFCURVE",
"773 720 OFFCURVE",
"773 701 CURVE SMOOTH",
"773 659 OFFCURVE",
"753 593 OFFCURVE",
"679 563 CURVE SMOOTH",
"664 557 OFFCURVE",
"649 554 OFFCURVE",
"636 554 CURVE SMOOTH",
"587 554 OFFCURVE",
"556 594 OFFCURVE",
"556 653 CURVE SMOOTH",
"556 665 OFFCURVE",
"558 679 OFFCURVE",
"561 693 CURVE SMOOTH",
"610 910 OFFCURVE",
"871 973 OFFCURVE",
"1052 1012 CURVE",
"1030 976 OFFCURVE",
"959 846 OFFCURVE",
"900 687 CURVE SMOOTH",
"847 541 OFFCURVE",
"683 247 OFFCURVE",
"391 173 CURVE SMOOTH",
"364 166 OFFCURVE",
"334 163 OFFCURVE",
"303 163 CURVE SMOOTH",
"167 163 OFFCURVE",
"14 228 OFFCURVE",
"14 371 CURVE SMOOTH",
"14 388 OFFCURVE",
"16 407 OFFCURVE",
"21 426 CURVE SMOOTH",
"43 509 OFFCURVE",
"107 574 OFFCURVE",
"143 588 CURVE SMOOTH",
"148 592 OFFCURVE",
"154 596 OFFCURVE",
"154 599 CURVE SMOOTH",
"154 601 OFFCURVE",
"152 602 OFFCURVE",
"145 602 CURVE SMOOTH",
"144 602 OFFCURVE",
"143 602 OFFCURVE",
"142 602 CURVE SMOOTH",
"110 600 OFFCURVE",
"29 537 OFFCURVE",
"4 470 CURVE SMOOTH",
"-11 430 OFFCURVE",
"-19 392 OFFCURVE",
"-19 359 CURVE SMOOTH",
"-19 213 OFFCURVE",
"115 131 OFFCURVE",
"297 131 CURVE SMOOTH"
);
},
{
closed = 1;
nodes = (
"1115 1061 OFFCURVE",
"1144 1096 OFFCURVE",
"1154 1092 CURVE",
"1159 1092 OFFCURVE",
"1166 1087 OFFCURVE",
"1166 1079 CURVE SMOOTH",
"1166 1068 OFFCURVE",
"1152 1053 OFFCURVE",
"1100 1043 CURVE"
);
}
);
};
layerId = "61E7180A-0B32-4047-B910-001D8BB62225";
paths = (
{
closed = 1;
nodes = (
"331 -157 OFFCURVE",
"371 -154 OFFCURVE",
"411 -147 CURVE SMOOTH",
"556 -123 OFFCURVE",
"697 -43 OFFCURVE",
"807 99 CURVE SMOOTH",
"968 306 OFFCURVE",
"959 504 OFFCURVE",
"1083 729 CURVE",
"1119 735 OFFCURVE",
"1202 758 OFFCURVE",
"1202 807 CURVE SMOOTH",
"1202 827 OFFCURVE",
"1189 836 OFFCURVE",
"1170 836 CURVE SMOOTH",
"1124 836 OFFCURVE",
"1088 792 OFFCURVE",
"1068 751 CURVE",
"878 718 OFFCURVE",
"547 642 OFFCURVE",
"494 405 CURVE SMOOTH",
"492 397 OFFCURVE",
"490 381 OFFCURVE",
"490 371 CURVE SMOOTH",
"490 293 OFFCURVE",
"549 240 OFFCURVE",
"621 240 CURVE SMOOTH",
"641 240 OFFCURVE",
"661 244 OFFCURVE",
"681 252 CURVE SMOOTH",
"745 276 OFFCURVE",
"797 345 OFFCURVE",
"797 410 CURVE SMOOTH",
"797 427 OFFCURVE",
"793 444 OFFCURVE",
"785 460 CURVE SMOOTH",
"783 465 OFFCURVE",
"780 467 OFFCURVE",
"777 467 CURVE SMOOTH",
"770 467 OFFCURVE",
"763 458 OFFCURVE",
"763 452 CURVE SMOOTH",
"763 451 OFFCURVE",
"764 451 OFFCURVE",
"764 450 CURVE",
"769 446 OFFCURVE",
"773 432 OFFCURVE",
"773 413 CURVE SMOOTH",
"773 371 OFFCURVE",
"753 305 OFFCURVE",
"679 275 CURVE SMOOTH",
"664 269 OFFCURVE",
"649 266 OFFCURVE",
"636 266 CURVE SMOOTH",
"587 266 OFFCURVE",
"556 306 OFFCURVE",
"556 365 CURVE SMOOTH",
"556 377 OFFCURVE",
"558 391 OFFCURVE",
"561 405 CURVE SMOOTH",
"610 622 OFFCURVE",
"871 685 OFFCURVE",
"1052 724 CURVE",
"1030 688 OFFCURVE",
"959 558 OFFCURVE",
"900 399 CURVE SMOOTH",
"845 250 OFFCURVE",
"683 -41 OFFCURVE",
"391 -115 CURVE SMOOTH",
"364 -122 OFFCURVE",
"334 -125 OFFCURVE",
"303 -125 CURVE SMOOTH",
"167 -125 OFFCURVE",
"14 -60 OFFCURVE",
"14 83 CURVE SMOOTH",
"14 100 OFFCURVE",
"16 119 OFFCURVE",
"21 138 CURVE SMOOTH",
"43 221 OFFCURVE",
"108 285 OFFCURVE",
"141 300 CURVE SMOOTH",
"150 304 OFFCURVE",
"154 308 OFFCURVE",
"154 311 CURVE SMOOTH",
"154 313 OFFCURVE",
"152 314 OFFCURVE",
"145 314 CURVE SMOOTH",
"142 314 LINE SMOOTH",
"110 312 OFFCURVE",
"29 249 OFFCURVE",
"4 182 CURVE SMOOTH",
"-11 142 OFFCURVE",
"-19 104 OFFCURVE",
"-19 71 CURVE SMOOTH",
"-19 -75 OFFCURVE",
"115 -157 OFFCURVE",
"297 -157 CURVE SMOOTH"
);
},
{
closed = 1;
nodes = (
"1115 785 OFFCURVE",
"1138 804 OFFCURVE",
"1155 804 CURVE SMOOTH",
"1162 804 OFFCURVE",
"1166 799 OFFCURVE",
"1166 791 CURVE SMOOTH",
"1166 780 OFFCURVE",
"1152 765 OFFCURVE",
"1100 755 CURVE"
);
}
);
width = 917;
}
);
note = I;
unicode = 0049;
},
{
color = 5;
glyphname = "Iota-latin";
lastChange = "2023-08-14 18:46:38 +0000";
layers = (
{
layerId = "61E7180A-0B32-4047-B910-001D8BB62225";
paths = (
{
closed = 1;
nodes = (
"161 0 OFFCURVE",
"218 127 OFFCURVE",
"244 184 CURVE SMOOTH",
"246 189 OFFCURVE",
"247 193 OFFCURVE",
"247 196 CURVE SMOOTH",
"247 201 OFFCURVE",
"245 203 OFFCURVE",
"242 203 CURVE SMOOTH",
"239 203 OFFCURVE",
"235 200 OFFCURVE",
"232 193 CURVE SMOOTH",
"204 137 OFFCURVE",
"170 74 OFFCURVE",
"137 40 CURVE SMOOTH",
"129 32 OFFCURVE",
"108 22 OFFCURVE",
"95 22 CURVE SMOOTH",
"74 22 OFFCURVE",
"66 35 OFFCURVE",
"66 53 CURVE SMOOTH",
"66 100 OFFCURVE",
"133 254 OFFCURVE",
"158 317 CURVE SMOOTH",
"195 410 OFFCURVE",
"230 501 OFFCURVE",
"265 593 CURVE SMOOTH",
"268 602 OFFCURVE",
"272 610 OFFCURVE",
"272 615 CURVE SMOOTH",
"272 623 OFFCURVE",
"264 630 OFFCURVE",
"244 629 CURVE SMOOTH",
"189 627 LINE",
"192 623 OFFCURVE",
"201 612 OFFCURVE",
"201 599 CURVE SMOOTH",
"201 595 OFFCURVE",
"200 590 OFFCURVE",
"198 585 CURVE SMOOTH",
"32 130 LINE SMOOTH",
"25 112 OFFCURVE",
"20 91 OFFCURVE",
"20 71 CURVE SMOOTH",
"20 34 OFFCURVE",
"37 0 OFFCURVE",
"87 0 CURVE SMOOTH"
);
}
);
width = 176;
}
);
unicode = 0196;
},
{
color = 5;
glyphname = Istroke;
lastChange = "2023-08-16 20:03:41 +0000";
layers = (
{
background = {
anchors = (
{
name = top;
position = "{406.908, 223}";
}
);
paths = (
{
closed = 1;
nodes = (
"497 208 LINE",
"519 213 OFFCURVE",
"523 232 OFFCURVE",
"523 237 CURVE",
"344 237 LINE",
"326 235 OFFCURVE",
"314 217 OFFCURVE",
"314 208 CURVE"
);
},
{
closed = 1;
nodes = (
"74 -96 OFFCURVE",
"80 -95 OFFCURVE",
"86 -95 CURVE SMOOTH",
"205 -86 OFFCURVE",
"308 -16 OFFCURVE",
"393 117 CURVE SMOOTH",
"446 199 OFFCURVE",
"497 323 OFFCURVE",
"545 480 CURVE SMOOTH",
"579 594 OFFCURVE",
"614 661 OFFCURVE",
"650 688 CURVE",
"655 688 OFFCURVE",
"658 688 OFFCURVE",
"662 688 CURVE",
"681 681 OFFCURVE",
"699 677 OFFCURVE",
"717 677 CURVE SMOOTH",
"737 677 OFFCURVE",
"754 681 OFFCURVE",
"766 690 CURVE SMOOTH",
"780 700 OFFCURVE",
"787 708 OFFCURVE",
"787 718 CURVE SMOOTH",
"787 732 OFFCURVE",
"775 740 OFFCURVE",
"750 740 CURVE SMOOTH",
"742 740 OFFCURVE",
"733 738 OFFCURVE",
"722 736 CURVE SMOOTH",
"702 732 OFFCURVE",
"678 722 OFFCURVE",
"654 708 CURVE",
"532 675 OFFCURVE",
"425 639 OFFCURVE",
"335 598 CURVE SMOOTH",
"261 564 OFFCURVE",
"205 523 OFFCURVE",
"163 474 CURVE SMOOTH",
"125 430 OFFCURVE",
"106 387 OFFCURVE",
"106 347 CURVE SMOOTH",
"106 322 OFFCURVE",
"116 298 OFFCURVE",
"131 284 CURVE SMOOTH",
"147 269 OFFCURVE",
"177 261 OFFCURVE",
"208 261 CURVE SMOOTH",
"218 261 OFFCURVE",
"220 261 OFFCURVE",
"234 263 CURVE SMOOTH",
"267 268 OFFCURVE",
"295 273 OFFCURVE",
"323 286 CURVE SMOOTH",
"327 288 OFFCURVE",
"330 293 OFFCURVE",
"330 296 CURVE SMOOTH",
"330 297 OFFCURVE",
"330 298 OFFCURVE",
"330 298 CURVE",
"328 305 OFFCURVE",
"327 306 OFFCURVE",
"322 303 CURVE SMOOTH",
"292 288 OFFCURVE",
"266 281 OFFCURVE",
"245 281 CURVE SMOOTH",
"240 281 OFFCURVE",
"236 282 OFFCURVE",
"232 282 CURVE SMOOTH",
"189 287 OFFCURVE",
"168 307 OFFCURVE",
"168 343 CURVE SMOOTH",
"168 366 OFFCURVE",
"177 393 OFFCURVE",
"193 422 CURVE SMOOTH",
"210 453 OFFCURVE",
"222 470 OFFCURVE",
"240 487 CURVE SMOOTH",
"291 538 OFFCURVE",
"346 575 OFFCURVE",
"416 608 CURVE SMOOTH",
"468 633 OFFCURVE",
"542 659 OFFCURVE",
"618 679 CURVE",
"580 645 OFFCURVE",
"537 576 OFFCURVE",
"489 474 CURVE SMOOTH",
"425 338 OFFCURVE",
"358 216 OFFCURVE",
"300 120 CURVE SMOOTH",
"237 16 OFFCURVE",
"165 -45 OFFCURVE",
"87 -66 CURVE SMOOTH",
"80 -68 OFFCURVE",
"75 -68 OFFCURVE",
"67 -68 CURVE SMOOTH",
"29 -68 OFFCURVE",
"11 -56 OFFCURVE",
"7 -32 CURVE",
"15 -46 OFFCURVE",
"25 -52 OFFCURVE",
"42 -52 CURVE SMOOTH",
"71 -52 OFFCURVE",
"87 -36 OFFCURVE",
"87 -2 CURVE SMOOTH",
"87 11 OFFCURVE",
"85 18 OFFCURVE",
"76 28 CURVE SMOOTH",
"69 35 OFFCURVE",
"62 43 OFFCURVE",
"44 43 CURVE SMOOTH",
"27 43 OFFCURVE",
"12 36 OFFCURVE",
"0 20 CURVE SMOOTH",
"-12 5 OFFCURVE",
"-19 -11 OFFCURVE",
"-19 -29 CURVE SMOOTH",
"-18 -71 OFFCURVE",
"12 -96 OFFCURVE",
"68 -96 CURVE SMOOTH"
);
}
);
};
components = (
{
name = I.ss01;
},
{
alignment = -1;
name = strokeshortcomb;
transform = "{1.2, 0, 0, 1, 254, 25}";
}
);
layerId = "61E7180A-0B32-4047-B910-001D8BB62225";
width = 497;
}
);
unicode = 0197;
},
{
glyphname = J;
lastChange = "2023-09-25 18:06:14 +0000";
layers = (
{
anchors = (
{
name = bottom;
position = "{289, -374}";
},
{
name = top;
position = "{1221, 804}";
}
);
background = {
anchors = (
{
name = bottom;
position = "{289, -86}";
},
{
name = top;
position = "{1221, 1092}";
}
);
paths = (
{
closed = 1;
nodes = (
"289 -86 OFFCURVE",
"321 -84 OFFCURVE",
"354 -79 CURVE SMOOTH",
"485 -60 OFFCURVE",
"699 44 OFFCURVE",
"817 228 CURVE SMOOTH",
"997 507 OFFCURVE",
"1021 766 OFFCURVE",
"1152 989 CURVE",
"1160 989 OFFCURVE",
"1183 997 OFFCURVE",
"1195 997 CURVE",
"1234 1009 OFFCURVE",
"1276 1024 OFFCURVE",
"1277 1065 CURVE SMOOTH",
"1277 1085 OFFCURVE",
"1262 1095 OFFCURVE",
"1242 1095 CURVE SMOOTH",
"1235 1095 OFFCURVE",
"1228 1094 OFFCURVE",
"1221 1092 CURVE SMOOTH",
"1187 1081 OFFCURVE",
"1148 1026 OFFCURVE",
"1139 1012 CURVE",
"955 988 OFFCURVE",
"618 894 OFFCURVE",
"580 662 CURVE SMOOTH",
"578 651 OFFCURVE",
"577 641 OFFCURVE",
"577 631 CURVE SMOOTH",
"577 550 OFFCURVE",
"633 497 OFFCURVE",
"706 497 CURVE SMOOTH",
"724 497 OFFCURVE",
"743 500 OFFCURVE",
"762 507 CURVE SMOOTH",
"831 531 OFFCURVE",
"885 600 OFFCURVE",
"885 667 CURVE SMOOTH",
"885 683 OFFCURVE",
"882 698 OFFCURVE",
"876 713 CURVE",
"871 719 OFFCURVE",
"865 722 OFFCURVE",
"860 722 CURVE SMOOTH",
"854 722 OFFCURVE",
"849 718 OFFCURVE",
"849 713 CURVE SMOOTH",
"849 710 OFFCURVE",
"851 707 OFFCURVE",
"855 705 CURVE",
"859 701 OFFCURVE",
"863 688 OFFCURVE",
"863 672 CURVE SMOOTH",
"863 629 OFFCURVE",
"841 559 OFFCURVE",
"762 531 CURVE SMOOTH",
"747 526 OFFCURVE",
"734 523 OFFCURVE",
"722 523 CURVE SMOOTH",
"673 523 OFFCURVE",
"645 565 OFFCURVE",
"645 624 CURVE SMOOTH",
"645 634 OFFCURVE",
"645 644 OFFCURVE",
"647 655 CURVE SMOOTH",
"679 851 OFFCURVE",
"959 959 OFFCURVE",
"1122 985 CURVE",
"1100 950 OFFCURVE",
"1032 835 OFFCURVE",
"961 679 CURVE SMOOTH",
"867 470 OFFCURVE",
"694 32 OFFCURVE",
"342 -47 CURVE SMOOTH",
"319 -52 OFFCURVE",
"293 -54 OFFCURVE",
"267 -54 CURVE SMOOTH",
"130 -54 OFFCURVE",
"-32 15 OFFCURVE",
"-32 159 CURVE SMOOTH",
"-32 178 OFFCURVE",
"-29 200 OFFCURVE",
"-23 222 CURVE SMOOTH",
"1 304 OFFCURVE",
"70 366 OFFCURVE",
"105 381 CURVE SMOOTH",
"111 383 OFFCURVE",
"118 388 OFFCURVE",
"118 391 CURVE SMOOTH",
"118 393 OFFCURVE",
"115 394 OFFCURVE",
"109 394 CURVE SMOOTH",
"108 394 OFFCURVE",
"107 394 OFFCURVE",
"106 394 CURVE SMOOTH",
"74 393 OFFCURVE",
"-11 332 OFFCURVE",
"-38 267 CURVE SMOOTH",
"-57 222 OFFCURVE",
"-65 181 OFFCURVE",
"-65 144 CURVE SMOOTH",
"-65 -3 OFFCURVE",
"71 -86 OFFCURVE",
"258 -86 CURVE SMOOTH"
);
},
{
closed = 1;
nodes = (
"1187 1032 OFFCURVE",
"1217 1068 OFFCURVE",
"1229 1063 CURVE",
"1233 1063 OFFCURVE",
"1239 1058 OFFCURVE",
"1239 1051 CURVE SMOOTH",
"1239 1039 OFFCURVE",
"1225 1023 OFFCURVE",
"1170 1014 CURVE"
);
}
);
};
layerId = "61E7180A-0B32-4047-B910-001D8BB62225";
paths = (
{
closed = 1;
nodes = (
"289 -374 OFFCURVE",
"321 -372 OFFCURVE",
"354 -367 CURVE SMOOTH",
"486 -348 OFFCURVE",
"699 -244 OFFCURVE",
"817 -60 CURVE SMOOTH",
"1000 224 OFFCURVE",
"1021 478 OFFCURVE",
"1152 701 CURVE",
"1160 701 OFFCURVE",
"1183 709 OFFCURVE",
"1195 709 CURVE",
"1234 721 OFFCURVE",
"1277 736 OFFCURVE",
"1277 777 CURVE SMOOTH",
"1277 797 OFFCURVE",
"1262 807 OFFCURVE",
"1242 807 CURVE SMOOTH",
"1235 807 OFFCURVE",
"1228 806 OFFCURVE",
"1221 804 CURVE SMOOTH",
"1187 793 OFFCURVE",
"1148 738 OFFCURVE",
"1139 724 CURVE",
"955 700 OFFCURVE",
"618 606 OFFCURVE",
"580 374 CURVE SMOOTH",
"578 363 OFFCURVE",
"577 353 OFFCURVE",
"577 343 CURVE SMOOTH",
"577 262 OFFCURVE",
"633 209 OFFCURVE",
"706 209 CURVE SMOOTH",
"724 209 OFFCURVE",
"743 212 OFFCURVE",
"762 219 CURVE SMOOTH",
"831 243 OFFCURVE",
"885 312 OFFCURVE",
"885 379 CURVE SMOOTH",
"885 395 OFFCURVE",
"882 410 OFFCURVE",
"876 425 CURVE",
"871 431 OFFCURVE",
"865 434 OFFCURVE",
"860 434 CURVE SMOOTH",
"854 434 OFFCURVE",
"849 430 OFFCURVE",
"849 425 CURVE SMOOTH",
"849 422 OFFCURVE",
"851 419 OFFCURVE",
"855 417 CURVE",
"859 413 OFFCURVE",
"863 400 OFFCURVE",
"863 384 CURVE SMOOTH",
"863 341 OFFCURVE",
"841 271 OFFCURVE",
"762 243 CURVE SMOOTH",
"747 238 OFFCURVE",
"734 235 OFFCURVE",
"722 235 CURVE SMOOTH",
"673 235 OFFCURVE",
"645 277 OFFCURVE",
"645 336 CURVE SMOOTH",
"645 347 OFFCURVE",
"645 355 OFFCURVE",
"647 367 CURVE SMOOTH",
"679 563 OFFCURVE",
"959 671 OFFCURVE",
"1122 697 CURVE",
"1100 662 OFFCURVE",
"1032 547 OFFCURVE",
"961 391 CURVE SMOOTH",
"867 182 OFFCURVE",
"694 -256 OFFCURVE",
"342 -335 CURVE SMOOTH",
"319 -340 OFFCURVE",
"293 -342 OFFCURVE",
"267 -342 CURVE SMOOTH",
"130 -342 OFFCURVE",
"-32 -273 OFFCURVE",
"-32 -129 CURVE SMOOTH",
"-32 -110 OFFCURVE",
"-29 -88 OFFCURVE",
"-23 -66 CURVE SMOOTH",
"0 14 OFFCURVE",
"70 78 OFFCURVE",
"105 93 CURVE SMOOTH",
"111 95 OFFCURVE",
"118 100 OFFCURVE",
"118 103 CURVE SMOOTH",
"118 105 OFFCURVE",
"115 106 OFFCURVE",
"109 106 CURVE SMOOTH",
"106 106 LINE SMOOTH",
"74 106 OFFCURVE",
"-11 44 OFFCURVE",
"-38 -21 CURVE SMOOTH",
"-57 -66 OFFCURVE",
"-65 -107 OFFCURVE",
"-65 -144 CURVE SMOOTH",
"-65 -291 OFFCURVE",
"71 -374 OFFCURVE",
"258 -374 CURVE SMOOTH"
);
},
{
closed = 1;
nodes = (
"1187 744 OFFCURVE",
"1217 780 OFFCURVE",
"1229 775 CURVE",
"1233 775 OFFCURVE",
"1239 770 OFFCURVE",
"1239 763 CURVE SMOOTH",
"1239 751 OFFCURVE",
"1225 735 OFFCURVE",
"1170 726 CURVE"
);
}
);
width = 972;
}
);
note = J;
unicode = 004A;
},
{
color = 5;
glyphname = Jcrossedtail;
lastChange = "2023-09-25 18:06:14 +0000";
layers = (
{
background = {
anchors = (
{
name = bottom;
position = "{-61, -374}";
},
{
name = top;
position = "{871, 804}";
}
);
paths = (
{
closed = 1;
nodes = (
"837 744 OFFCURVE",
"867 780 OFFCURVE",
"879 775 CURVE",
"883 775 OFFCURVE",
"889 770 OFFCURVE",
"889 763 CURVE SMOOTH",
"889 751 OFFCURVE",
"875 735 OFFCURVE",
"820 726 CURVE"
);
},
{
closed = 1;
nodes = (
"611 143 OFFCURVE",
"683 499 OFFCURVE",
"802 701 CURVE",
"810 701 OFFCURVE",
"833 709 OFFCURVE",
"845 709 CURVE",
"884 721 OFFCURVE",
"927 736 OFFCURVE",
"927 777 CURVE SMOOTH",
"927 797 OFFCURVE",
"912 807 OFFCURVE",
"892 807 CURVE SMOOTH",
"885 807 OFFCURVE",
"878 806 OFFCURVE",
"871 804 CURVE SMOOTH",
"837 793 OFFCURVE",
"798 738 OFFCURVE",
"789 724 CURVE",
"605 700 OFFCURVE",
"268 606 OFFCURVE",
"230 374 CURVE SMOOTH",
"228 363 OFFCURVE",
"227 353 OFFCURVE",
"227 343 CURVE SMOOTH",
"227 262 OFFCURVE",
"283 209 OFFCURVE",
"356 209 CURVE SMOOTH",
"374 209 OFFCURVE",
"393 212 OFFCURVE",
"412 219 CURVE SMOOTH",
"481 243 OFFCURVE",
"535 312 OFFCURVE",
"535 379 CURVE SMOOTH",
"535 395 OFFCURVE",
"532 410 OFFCURVE",
"526 425 CURVE",
"521 431 OFFCURVE",
"515 434 OFFCURVE",
"510 434 CURVE SMOOTH",
"504 434 OFFCURVE",
"499 430 OFFCURVE",
"499 425 CURVE SMOOTH",
"499 422 OFFCURVE",
"501 419 OFFCURVE",
"505 417 CURVE",
"509 413 OFFCURVE",
"513 400 OFFCURVE",
"513 384 CURVE SMOOTH",
"513 341 OFFCURVE",
"491 271 OFFCURVE",
"412 243 CURVE SMOOTH",
"397 238 OFFCURVE",
"384 235 OFFCURVE",
"372 235 CURVE SMOOTH",
"323 235 OFFCURVE",
"295 277 OFFCURVE",
"295 336 CURVE SMOOTH",
"295 347 OFFCURVE",
"295 355 OFFCURVE",
"297 367 CURVE SMOOTH",
"329 563 OFFCURVE",
"609 671 OFFCURVE",
"772 697 CURVE",
"750 662 OFFCURVE",
"682 547 OFFCURVE",
"611 391 CURVE SMOOTH",
"568 296 OFFCURVE",
"452 26 OFFCURVE",
"367 -109 CURVE",
"471 -109 LINE",
"471 -109 LINE"
);
},
{
closed = 1;
nodes = (
"102 -88 OFFCURVE",
"-213 -178 OFFCURVE",
"-213 -398 CURVE SMOOTH",
"-213 -454 OFFCURVE",
"-170 -502 OFFCURVE",
"-55 -502 CURVE SMOOTH",
"194 -502 OFFCURVE",
"372 -269 OFFCURVE",
"460 -130 CURVE",
"489 -130 OFFCURVE",
"654 -128 OFFCURVE",
"697 -128 CURVE SMOOTH",
"712 -128 OFFCURVE",
"729 -88 OFFCURVE",
"704 -88 CURVE SMOOTH",
"656 -88 OFFCURVE",
"509 -88 OFFCURVE",
"423 -88 CURVE SMOOTH"
);
},
{
closed = 1;
nodes = (
"-148 -472 OFFCURVE",
"-173 -446 OFFCURVE",
"-173 -409 CURVE SMOOTH",
"-173 -209 OFFCURVE",
"110 -131 OFFCURVE",
"347 -131 CURVE",
"267 -274 OFFCURVE",
"45 -472 OFFCURVE",
"-95 -472 CURVE SMOOTH"
);
}
);
};
layerId = "61E7180A-0B32-4047-B910-001D8BB62225";
paths = (
{
closed = 1;
nodes = (
"166 -516 OFFCURVE",
"360 -304 OFFCURVE",
"471 -109 CURVE SMOOTH",
"550 30 OFFCURVE",
"613 222 OFFCURVE",
"663 369 CURVE SMOOTH",
"707 495 OFFCURVE",
"750 613 OFFCURVE",
"802 701 CURVE",
"815 703 OFFCURVE",
"833 706 OFFCURVE",
"845 709 CURVE SMOOTH",
"892 721 OFFCURVE",
"927 736 OFFCURVE",
"927 777 CURVE SMOOTH",
"927 797 OFFCURVE",
"912 807 OFFCURVE",
"892 807 CURVE SMOOTH",
"885 807 OFFCURVE",
"878 806 OFFCURVE",
"871 804 CURVE SMOOTH",
"837 793 OFFCURVE",
"798 738 OFFCURVE",
"789 724 CURVE",
"550 693 OFFCURVE",
"227 568 OFFCURVE",
"227 343 CURVE SMOOTH",
"227 262 OFFCURVE",
"283 209 OFFCURVE",
"356 209 CURVE SMOOTH",
"440 209 OFFCURVE",
"535 285 OFFCURVE",
"535 379 CURVE SMOOTH",
"535 400 OFFCURVE",
"529 434 OFFCURVE",
"510 434 CURVE SMOOTH",
"504 434 OFFCURVE",
"499 430 OFFCURVE",
"499 425 CURVE",
"508 415 OFFCURVE",
"513 400 OFFCURVE",
"513 384 CURVE SMOOTH",
"513 289 OFFCURVE",
"429 235 OFFCURVE",
"372 235 CURVE SMOOTH",
"323 235 OFFCURVE",
"295 277 OFFCURVE",
"295 336 CURVE SMOOTH",
"295 536 OFFCURVE",
"574 665 OFFCURVE",
"772 697 CURVE",
"718 611 OFFCURVE",
"644 465 OFFCURVE",
"601 369 CURVE SMOOTH",
"534 217 OFFCURVE",
"412 -60 OFFCURVE",
"329 -185 CURVE SMOOTH",
"203 -377 OFFCURVE",
"72 -484 OFFCURVE",
"-44 -484 CURVE SMOOTH",
"-125 -484 OFFCURVE",
"-137 -452 OFFCURVE",
"-137 -415 CURVE SMOOTH",
"-137 -382 OFFCURVE",
"-103 -264 OFFCURVE",
"125 -190 CURVE SMOOTH",
"226 -157 OFFCURVE",
"348 -122 OFFCURVE",
"423 -122 CURVE SMOOTH",
"546 -122 OFFCURVE",
"664 -131 OFFCURVE",
"664 -199 CURVE SMOOTH",
"664 -226 OFFCURVE",
"644 -253 OFFCURVE",
"621 -264 CURVE",
"621 -268 OFFCURVE",
"625 -270 OFFCURVE",
"634 -270 CURVE SMOOTH",
"655 -270 OFFCURVE",
"704 -233 OFFCURVE",
"704 -191 CURVE SMOOTH",
"705 -118 OFFCURVE",
"617 -90 OFFCURVE",
"443 -90 CURVE SMOOTH",
"409 -90 OFFCURVE",
"267 -112 OFFCURVE",
"173 -131 CURVE SMOOTH",
"84 -150 OFFCURVE",
"-174 -236 OFFCURVE",
"-174 -422 CURVE SMOOTH",
"-174 -503 OFFCURVE",
"-102 -516 OFFCURVE",
"-51 -516 CURVE SMOOTH"
);
},
{
closed = 1;
nodes = (
"837 744 OFFCURVE",
"856 775 OFFCURVE",
"879 775 CURVE SMOOTH",
"883 775 OFFCURVE",
"889 773 OFFCURVE",
"889 763 CURVE SMOOTH",
"889 751 OFFCURVE",
"875 735 OFFCURVE",
"820 726 CURVE"
);
}
);
width = 622;
}
);
unicode = A7B2;
},
{
color = 5;
glyphname = Jstroke;
lastChange = "2023-08-16 20:03:26 +0000";
layers = (
{
background = {
anchors = (
{
name = bottom;
position = "{289, -374}";
},
{
name = top;
position = "{881.898, 158}";
}
);
paths = (
{
closed = 1;
nodes = (
"289 -374 OFFCURVE",
"321 -372 OFFCURVE",
"354 -367 CURVE SMOOTH",
"486 -348 OFFCURVE",
"699 -244 OFFCURVE",
"817 -60 CURVE SMOOTH",
"1000 224 OFFCURVE",
"1021 478 OFFCURVE",
"1152 701 CURVE",
"1160 701 OFFCURVE",
"1183 709 OFFCURVE",
"1195 709 CURVE",
"1234 721 OFFCURVE",
"1277 736 OFFCURVE",
"1277 777 CURVE SMOOTH",
"1277 797 OFFCURVE",
"1262 807 OFFCURVE",
"1242 807 CURVE SMOOTH",
"1235 807 OFFCURVE",
"1228 806 OFFCURVE",
"1221 804 CURVE SMOOTH",
"1187 793 OFFCURVE",
"1148 738 OFFCURVE",
"1139 724 CURVE",
"955 700 OFFCURVE",
"618 606 OFFCURVE",
"580 374 CURVE SMOOTH",
"578 363 OFFCURVE",
"577 353 OFFCURVE",
"577 343 CURVE SMOOTH",
"577 262 OFFCURVE",
"633 209 OFFCURVE",
"706 209 CURVE SMOOTH",
"724 209 OFFCURVE",
"743 212 OFFCURVE",
"762 219 CURVE SMOOTH",
"831 243 OFFCURVE",
"885 312 OFFCURVE",
"885 379 CURVE SMOOTH",
"885 395 OFFCURVE",
"882 410 OFFCURVE",
"876 425 CURVE",
"871 431 OFFCURVE",
"865 434 OFFCURVE",
"860 434 CURVE SMOOTH",
"854 434 OFFCURVE",
"849 430 OFFCURVE",
"849 425 CURVE SMOOTH",
"849 422 OFFCURVE",
"851 419 OFFCURVE",
"855 417 CURVE",
"859 413 OFFCURVE",
"863 400 OFFCURVE",
"863 384 CURVE SMOOTH",
"863 341 OFFCURVE",
"841 271 OFFCURVE",
"762 243 CURVE SMOOTH",
"747 238 OFFCURVE",
"734 235 OFFCURVE",
"722 235 CURVE SMOOTH",
"673 235 OFFCURVE",
"645 277 OFFCURVE",
"645 336 CURVE SMOOTH",
"645 347 OFFCURVE",
"645 355 OFFCURVE",
"647 367 CURVE SMOOTH",
"679 563 OFFCURVE",
"959 671 OFFCURVE",
"1122 697 CURVE",
"1100 662 OFFCURVE",
"1032 547 OFFCURVE",
"961 391 CURVE SMOOTH",
"867 182 OFFCURVE",
"694 -256 OFFCURVE",
"342 -335 CURVE SMOOTH",
"319 -340 OFFCURVE",
"293 -342 OFFCURVE",
"267 -342 CURVE SMOOTH",
"130 -342 OFFCURVE",
"-32 -273 OFFCURVE",
"-32 -129 CURVE SMOOTH",
"-32 -110 OFFCURVE",
"-29 -88 OFFCURVE",
"-23 -66 CURVE SMOOTH",
"0 14 OFFCURVE",
"70 78 OFFCURVE",
"105 93 CURVE SMOOTH",
"111 95 OFFCURVE",
"118 100 OFFCURVE",
"118 103 CURVE SMOOTH",
"118 105 OFFCURVE",
"115 106 OFFCURVE",
"109 106 CURVE SMOOTH",
"108 106 OFFCURVE",
"107 106 OFFCURVE",
"106 106 CURVE SMOOTH",
"74 106 OFFCURVE",
"-11 44 OFFCURVE",
"-38 -21 CURVE SMOOTH",
"-57 -66 OFFCURVE",
"-65 -107 OFFCURVE",
"-65 -144 CURVE SMOOTH",
"-65 -291 OFFCURVE",
"71 -374 OFFCURVE",
"258 -374 CURVE SMOOTH"
);
},
{
closed = 1;
nodes = (
"1187 744 OFFCURVE",
"1217 780 OFFCURVE",
"1229 775 CURVE",
"1233 775 OFFCURVE",
"1239 770 OFFCURVE",
"1239 763 CURVE SMOOTH",
"1239 751 OFFCURVE",
"1225 735 OFFCURVE",
"1170 726 CURVE"
);
},
{
closed = 1;
nodes = (
"982 139 LINE",
"1006 145 OFFCURVE",
"1011 169 OFFCURVE",
"1011 176 CURVE",
"812 176 LINE",
"792 173 OFFCURVE",
"779 151 OFFCURVE",
"779 139 CURVE"
);
}
);
};
components = (
{
alignment = -1;
name = J;
},
{
alignment = -1;
name = strokeshortcomb;
transform = "{1.2, 0, 0, 1, 715, -44}";
}
);
layerId = "61E7180A-0B32-4047-B910-001D8BB62225";
width = 1002;
}
);
unicode = 0248;
},
{
glyphname = K;
lastChange = "2023-09-25 18:06:14 +0000";
layers = (
{
anchors = (
{
name = bottom;
position = "{795, -142}";
},
{
name = top;
position = "{1324, 821}";
}
);
background = {
anchors = (
{
name = bottom;
position = "{795, 146}";
},
{
name = top;
position = "{1324, 1109}";
}
);
paths = (
{
closed = 1;
nodes = (
"371 116 OFFCURVE",
"395 118 OFFCURVE",
"418 121 CURVE SMOOTH",
"872 189 OFFCURVE",
"902 716 OFFCURVE",
"1053 989 CURVE",
"1140 998 OFFCURVE",
"1173 1034 OFFCURVE",
"1173 1061 CURVE SMOOTH",
"1173 1080 OFFCURVE",
"1158 1095 OFFCURVE",
"1134 1095 CURVE SMOOTH",
"1128 1095 OFFCURVE",
"1122 1094 OFFCURVE",
"1115 1092 CURVE SMOOTH",
"1083 1081 OFFCURVE",
"1044 1024 OFFCURVE",
"1037 1012 CURVE",
"950 1004 OFFCURVE",
"829 1001 OFFCURVE",
"720 977 CURVE SMOOTH",
"523 933 OFFCURVE",
"448 819 OFFCURVE",
"448 722 CURVE SMOOTH",
"448 635 OFFCURVE",
"508 560 OFFCURVE",
"595 560 CURVE SMOOTH",
"614 560 OFFCURVE",
"634 563 OFFCURVE",
"655 571 CURVE SMOOTH",
"712 593 OFFCURVE",
"758 663 OFFCURVE",
"758 727 CURVE SMOOTH",
"758 742 OFFCURVE",
"756 757 OFFCURVE",
"750 771 CURVE SMOOTH",
"746 779 OFFCURVE",
"740 783 OFFCURVE",
"736 783 CURVE SMOOTH",
"734 783 OFFCURVE",
"732 782 OFFCURVE",
"732 779 CURVE SMOOTH",
"732 778 OFFCURVE",
"732 778 OFFCURVE",
"732 777 CURVE SMOOTH",
"734 767 OFFCURVE",
"735 757 OFFCURVE",
"735 746 CURVE SMOOTH",
"735 685 OFFCURVE",
"706 610 OFFCURVE",
"649 590 CURVE SMOOTH",
"632 584 OFFCURVE",
"617 581 OFFCURVE",
"602 581 CURVE SMOOTH",
"543 581 OFFCURVE",
"508 631 OFFCURVE",
"508 696 CURVE SMOOTH",
"508 786 OFFCURVE",
"575 903 OFFCURVE",
"732 947 CURVE SMOOTH",
"825 973 OFFCURVE",
"934 977 OFFCURVE",
"1024 988 CURVE",
"989 919 OFFCURVE",
"890 698 OFFCURVE",
"871 654 CURVE SMOOTH",
"795 482 OFFCURVE",
"666 241 OFFCURVE",
"379 176 CURVE SMOOTH",
"357 171 OFFCURVE",
"333 169 OFFCURVE",
"308 169 CURVE SMOOTH",
"180 169 OFFCURVE",
"24 233 OFFCURVE",
"24 393 CURVE SMOOTH",
"24 404 OFFCURVE",
"25 416 OFFCURVE",
"27 429 CURVE SMOOTH",
"39 519 OFFCURVE",
"109 572 OFFCURVE",
"127 580 CURVE SMOOTH",
"130 582 OFFCURVE",
"132 585 OFFCURVE",
"132 588 CURVE SMOOTH",
"132 591 OFFCURVE",
"129 594 OFFCURVE",
"122 594 CURVE SMOOTH",
"121 594 OFFCURVE",
"120 594 OFFCURVE",
"119 594 CURVE SMOOTH",
"94 591 OFFCURVE",
"23 545 OFFCURVE",
"4 473 CURVE SMOOTH",
"-3 445 OFFCURVE",
"-7 419 OFFCURVE",
"-7 395 CURVE SMOOTH",
"-7 218 OFFCURVE",
"167 116 OFFCURVE",
"348 116 CURVE SMOOTH"
);
},
{
closed = 1;
nodes = (
"1280 103 OFFCURVE",
"1384 170 OFFCURVE",
"1420 244 CURVE SMOOTH",
"1424 251 OFFCURVE",
"1425 256 OFFCURVE",
"1425 260 CURVE SMOOTH",
"1425 264 OFFCURVE",
"1423 266 OFFCURVE",
"1421 266 CURVE SMOOTH",
"1417 266 OFFCURVE",
"1411 261 OFFCURVE",
"1407 252 CURVE",
"1369 180 OFFCURVE",
"1277 146 OFFCURVE",
"1199 146 CURVE SMOOTH",
"1120 146 OFFCURVE",
"1061 205 OFFCURVE",
"1020 303 CURVE SMOOTH",
"978 397 OFFCURVE",
"956 505 OFFCURVE",
"956 538 CURVE SMOOTH",
"956 545 OFFCURVE",
"957 549 OFFCURVE",
"959 548 CURVE",
"1132 592 OFFCURVE",
"1469 840 OFFCURVE",
"1629 1108 CURVE SMOOTH",
"1634 1116 OFFCURVE",
"1636 1122 OFFCURVE",
"1636 1128 CURVE SMOOTH",
"1636 1135 OFFCURVE",
"1633 1139 OFFCURVE",
"1627 1139 CURVE SMOOTH",
"1621 1139 OFFCURVE",
"1613 1134 OFFCURVE",
"1604 1120 CURVE SMOOTH",
"1396 801 OFFCURVE",
"974 563 OFFCURVE",
"900 570 CURVE",
"895 567 OFFCURVE",
"893 554 OFFCURVE",
"893 534 CURVE SMOOTH",
"893 481 OFFCURVE",
"910 380 OFFCURVE",
"950 291 CURVE SMOOTH",
"998 185 OFFCURVE",
"1084 103 OFFCURVE",
"1194 103 CURVE SMOOTH"
);
},
{
closed = 1;
nodes = (
"1081 1026 OFFCURVE",
"1097 1047 OFFCURVE",
"1111 1056 CURVE SMOOTH",
"1120 1063 OFFCURVE",
"1127 1066 OFFCURVE",
"1133 1066 CURVE SMOOTH",
"1139 1066 OFFCURVE",
"1143 1062 OFFCURVE",
"1143 1056 CURVE SMOOTH",
"1143 1048 OFFCURVE",
"1135 1036 OFFCURVE",
"1116 1026 CURVE SMOOTH",
"1106 1021 OFFCURVE",
"1092 1017 OFFCURVE",
"1072 1014 CURVE"
);
}
);
};
layerId = "61E7180A-0B32-4047-B910-001D8BB62225";
paths = (
{
closed = 1;
nodes = (
"371 -172 OFFCURVE",
"395 -170 OFFCURVE",
"418 -167 CURVE SMOOTH",
"872 -99 OFFCURVE",
"902 428 OFFCURVE",
"1053 701 CURVE",
"1140 710 OFFCURVE",
"1173 746 OFFCURVE",
"1173 773 CURVE SMOOTH",
"1173 792 OFFCURVE",
"1158 807 OFFCURVE",
"1134 807 CURVE SMOOTH",
"1128 807 OFFCURVE",
"1122 806 OFFCURVE",
"1115 804 CURVE SMOOTH",
"1083 793 OFFCURVE",
"1044 736 OFFCURVE",
"1037 724 CURVE",
"950 716 OFFCURVE",
"829 713 OFFCURVE",
"720 689 CURVE SMOOTH",
"523 645 OFFCURVE",
"448 531 OFFCURVE",
"448 434 CURVE SMOOTH",
"448 347 OFFCURVE",
"508 272 OFFCURVE",
"595 272 CURVE SMOOTH",
"614 272 OFFCURVE",
"634 275 OFFCURVE",
"655 283 CURVE SMOOTH",
"712 305 OFFCURVE",
"758 375 OFFCURVE",
"758 439 CURVE SMOOTH",
"758 454 OFFCURVE",
"756 469 OFFCURVE",
"750 483 CURVE SMOOTH",
"746 491 OFFCURVE",
"740 495 OFFCURVE",
"736 495 CURVE SMOOTH",
"734 495 OFFCURVE",
"732 494 OFFCURVE",
"732 491 CURVE SMOOTH",
"732 489 LINE SMOOTH",
"734 479 OFFCURVE",
"735 469 OFFCURVE",
"735 458 CURVE SMOOTH",
"735 397 OFFCURVE",
"706 322 OFFCURVE",
"649 302 CURVE SMOOTH",
"632 296 OFFCURVE",
"617 293 OFFCURVE",
"602 293 CURVE SMOOTH",
"543 293 OFFCURVE",
"508 343 OFFCURVE",
"508 408 CURVE SMOOTH",
"508 498 OFFCURVE",
"575 615 OFFCURVE",
"732 659 CURVE SMOOTH",
"825 685 OFFCURVE",
"934 689 OFFCURVE",
"1024 700 CURVE",
"992 636 OFFCURVE",
"892 415 OFFCURVE",
"871 366 CURVE SMOOTH",
"795 194 OFFCURVE",
"666 -47 OFFCURVE",
"379 -112 CURVE SMOOTH",
"357 -117 OFFCURVE",
"333 -119 OFFCURVE",
"308 -119 CURVE SMOOTH",
"180 -119 OFFCURVE",
"24 -55 OFFCURVE",
"24 105 CURVE SMOOTH",
"24 116 OFFCURVE",
"25 128 OFFCURVE",
"27 141 CURVE SMOOTH",
"39 231 OFFCURVE",
"109 284 OFFCURVE",
"127 292 CURVE",
"130 294 OFFCURVE",
"132 297 OFFCURVE",
"132 300 CURVE SMOOTH",
"132 303 OFFCURVE",
"129 306 OFFCURVE",
"122 306 CURVE SMOOTH",
"119 306 LINE SMOOTH",
"95 303 OFFCURVE",
"23 257 OFFCURVE",
"4 185 CURVE SMOOTH",
"-3 157 OFFCURVE",
"-7 131 OFFCURVE",
"-7 107 CURVE SMOOTH",
"-7 -70 OFFCURVE",
"167 -172 OFFCURVE",
"348 -172 CURVE SMOOTH"
);
},
{
closed = 1;
nodes = (
"1280 -185 OFFCURVE",
"1384 -118 OFFCURVE",
"1420 -44 CURVE SMOOTH",
"1424 -37 OFFCURVE",
"1425 -32 OFFCURVE",
"1425 -28 CURVE SMOOTH",
"1425 -24 OFFCURVE",
"1423 -22 OFFCURVE",
"1421 -22 CURVE SMOOTH",
"1417 -22 OFFCURVE",
"1411 -27 OFFCURVE",
"1407 -36 CURVE SMOOTH",
"1369 -108 OFFCURVE",
"1277 -142 OFFCURVE",
"1199 -142 CURVE SMOOTH",
"1127 -142 OFFCURVE",
"1068 -86 OFFCURVE",
"1025 14 CURVE SMOOTH",
"983 111 OFFCURVE",
"961 216 OFFCURVE",
"961 250 CURVE SMOOTH",
"961 257 OFFCURVE",
"962 261 OFFCURVE",
"964 260 CURVE",
"1137 304 OFFCURVE",
"1469 552 OFFCURVE",
"1629 820 CURVE SMOOTH",
"1634 828 OFFCURVE",
"1636 834 OFFCURVE",
"1636 840 CURVE SMOOTH",
"1636 847 OFFCURVE",
"1633 851 OFFCURVE",
"1627 851 CURVE SMOOTH",
"1621 851 OFFCURVE",
"1613 846 OFFCURVE",
"1604 832 CURVE SMOOTH",
"1398 515 OFFCURVE",
"974 275 OFFCURVE",
"900 282 CURVE",
"895 279 OFFCURVE",
"893 266 OFFCURVE",
"893 246 CURVE SMOOTH",
"893 193 OFFCURVE",
"910 92 OFFCURVE",
"950 3 CURVE SMOOTH",
"998 -103 OFFCURVE",
"1084 -185 OFFCURVE",
"1194 -185 CURVE SMOOTH"
);
},
{
closed = 1;
nodes = (
"1081 738 OFFCURVE",
"1097 759 OFFCURVE",
"1111 768 CURVE SMOOTH",
"1120 775 OFFCURVE",
"1127 778 OFFCURVE",
"1133 778 CURVE SMOOTH",
"1139 778 OFFCURVE",
"1143 774 OFFCURVE",
"1143 768 CURVE SMOOTH",
"1143 760 OFFCURVE",
"1135 748 OFFCURVE",
"1116 738 CURVE SMOOTH",
"1109 734 OFFCURVE",
"1092 729 OFFCURVE",
"1072 726 CURVE"
);
}
);
width = 1150;
}
);
note = K;
unicode = 004B;
},
{
color = 5;
glyphname = Khook;
lastChange = "2023-09-25 18:06:14 +0000";
layers = (
{
anchors = (
{
name = bottom;
position = "{795, -142}";
},
{
name = top;
position = "{1324, 821}";
}
);
layerId = "61E7180A-0B32-4047-B910-001D8BB62225";
paths = (
{
closed = 1;
nodes = (
"371 -172 OFFCURVE",
"395 -170 OFFCURVE",
"418 -167 CURVE SMOOTH",
"872 -99 OFFCURVE",
"902 428 OFFCURVE",
"1053 701 CURVE",
"1140 710 OFFCURVE",
"1173 746 OFFCURVE",
"1173 773 CURVE SMOOTH",
"1173 792 OFFCURVE",
"1158 807 OFFCURVE",
"1134 807 CURVE SMOOTH",
"1128 807 OFFCURVE",
"1122 806 OFFCURVE",
"1115 804 CURVE SMOOTH",
"1083 793 OFFCURVE",
"1044 736 OFFCURVE",
"1037 724 CURVE",
"950 716 OFFCURVE",
"829 713 OFFCURVE",
"720 689 CURVE SMOOTH",
"523 645 OFFCURVE",
"448 531 OFFCURVE",
"448 434 CURVE SMOOTH",
"448 347 OFFCURVE",
"508 272 OFFCURVE",
"595 272 CURVE SMOOTH",
"614 272 OFFCURVE",
"634 275 OFFCURVE",
"655 283 CURVE SMOOTH",
"712 305 OFFCURVE",
"758 375 OFFCURVE",
"758 439 CURVE SMOOTH",
"758 454 OFFCURVE",
"756 469 OFFCURVE",
"750 483 CURVE SMOOTH",
"746 491 OFFCURVE",
"740 495 OFFCURVE",
"736 495 CURVE SMOOTH",
"734 495 OFFCURVE",
"732 494 OFFCURVE",
"732 491 CURVE SMOOTH",
"732 489 LINE SMOOTH",
"734 479 OFFCURVE",
"735 469 OFFCURVE",
"735 458 CURVE SMOOTH",
"735 397 OFFCURVE",
"706 322 OFFCURVE",
"649 302 CURVE SMOOTH",
"632 296 OFFCURVE",
"617 293 OFFCURVE",
"602 293 CURVE SMOOTH",
"543 293 OFFCURVE",
"508 343 OFFCURVE",
"508 408 CURVE SMOOTH",
"508 498 OFFCURVE",
"575 615 OFFCURVE",
"732 659 CURVE SMOOTH",
"825 685 OFFCURVE",
"934 689 OFFCURVE",
"1024 700 CURVE",
"992 636 OFFCURVE",
"892 415 OFFCURVE",
"871 366 CURVE SMOOTH",
"795 194 OFFCURVE",
"666 -47 OFFCURVE",
"379 -112 CURVE SMOOTH",
"357 -117 OFFCURVE",
"333 -119 OFFCURVE",
"308 -119 CURVE SMOOTH",
"180 -119 OFFCURVE",
"24 -55 OFFCURVE",
"24 105 CURVE SMOOTH",
"24 116 OFFCURVE",
"25 128 OFFCURVE",
"27 141 CURVE SMOOTH",
"39 231 OFFCURVE",
"109 284 OFFCURVE",
"127 292 CURVE",
"130 294 OFFCURVE",
"132 297 OFFCURVE",
"132 300 CURVE SMOOTH",
"132 303 OFFCURVE",
"129 306 OFFCURVE",
"122 306 CURVE SMOOTH",
"119 306 LINE SMOOTH",
"95 303 OFFCURVE",
"23 257 OFFCURVE",
"4 185 CURVE SMOOTH",
"-3 157 OFFCURVE",
"-7 131 OFFCURVE",
"-7 107 CURVE SMOOTH",
"-7 -70 OFFCURVE",
"167 -172 OFFCURVE",
"348 -172 CURVE SMOOTH"
);
},
{
closed = 1;
nodes = (
"1280 -185 OFFCURVE",
"1384 -118 OFFCURVE",
"1420 -44 CURVE SMOOTH",
"1424 -37 OFFCURVE",
"1425 -32 OFFCURVE",
"1425 -28 CURVE SMOOTH",
"1425 -24 OFFCURVE",
"1423 -22 OFFCURVE",
"1421 -22 CURVE SMOOTH",
"1417 -22 OFFCURVE",
"1411 -27 OFFCURVE",
"1407 -36 CURVE SMOOTH",
"1369 -108 OFFCURVE",
"1277 -142 OFFCURVE",
"1199 -142 CURVE SMOOTH",
"1127 -142 OFFCURVE",
"1068 -86 OFFCURVE",
"1025 14 CURVE SMOOTH",
"983 111 OFFCURVE",
"961 216 OFFCURVE",
"961 250 CURVE SMOOTH",
"961 257 OFFCURVE",
"962 261 OFFCURVE",
"962 262 CURVE",
"894 278 LINE",
"895 279 OFFCURVE",
"893 266 OFFCURVE",
"893 246 CURVE SMOOTH",
"893 193 OFFCURVE",
"910 92 OFFCURVE",
"950 3 CURVE SMOOTH",
"998 -103 OFFCURVE",
"1084 -185 OFFCURVE",
"1194 -185 CURVE SMOOTH"
);
},
{
closed = 1;
nodes = (
"1081 738 OFFCURVE",
"1097 759 OFFCURVE",
"1111 768 CURVE SMOOTH",
"1120 775 OFFCURVE",
"1127 778 OFFCURVE",
"1133 778 CURVE SMOOTH",
"1139 778 OFFCURVE",
"1143 774 OFFCURVE",
"1143 768 CURVE SMOOTH",
"1143 760 OFFCURVE",
"1135 748 OFFCURVE",
"1116 738 CURVE SMOOTH",
"1109 734 OFFCURVE",
"1092 729 OFFCURVE",
"1072 726 CURVE"
);
},
{
closed = 1;
nodes = (
"1735 620 OFFCURVE",
"1735 677 CURVE SMOOTH",
"1735 746 OFFCURVE",
"1657 760 OFFCURVE",
"1589 760 CURVE SMOOTH",
"1543 760 OFFCURVE",
"1497 751 OFFCURVE",
"1460 751 CURVE SMOOTH",
"1449 751 OFFCURVE",
"1438 751 OFFCURVE",
"1428 753 CURVE",
"1427 792 OFFCURVE",
"1405 815 OFFCURVE",
"1380 815 CURVE SMOOTH",
"1367 815 OFFCURVE",
"1359 803 OFFCURVE",
"1359 790 CURVE SMOOTH",
"1359 771 OFFCURVE",
"1375 756 OFFCURVE",
"1399 745 CURVE",
"1394 631 OFFCURVE",
"1139 345 OFFCURVE",
"894 278 CURVE",
"962 262 LINE",
"1215 392 OFFCURVE",
"1422 598 OFFCURVE",
"1429 735 CURVE",
"1445 729 OFFCURVE",
"1498 726 OFFCURVE",
"1532 726 CURVE SMOOTH",
"1592 726 OFFCURVE",
"1670 702 OFFCURVE",
"1670 645 CURVE SMOOTH",
"1670 608 OFFCURVE",
"1631 586 OFFCURVE",
"1583 584 CURVE",
"1579 582 OFFCURVE",
"1573 578 OFFCURVE",
"1573 573 CURVE SMOOTH",
"1573 564 OFFCURVE",
"1592 560 OFFCURVE",
"1603 560 CURVE SMOOTH",
"1662 560 OFFCURVE"
);
}
);
width = 1150;
}
);
unicode = 0198;
},
{
glyphname = L;
lastChange = "2023-09-25 18:06:14 +0000";
layers = (
{
anchors = (
{
name = bottom;
position = "{427, -87}";
},
{
name = center;
position = "{668, 229}";
},
{
name = top;
position = "{832, 802}";
},
{
name = topright;
position = "{999, 800}";
}
);
background = {
paths = (
{
closed = 1;
nodes = (
"813 -302 OFFCURVE",
"820 -300 OFFCURVE",
"829 -295 CURVE SMOOTH",
"838 -291 OFFCURVE",
"847 -281 OFFCURVE",
"855 -267 CURVE SMOOTH",
"861 -257 OFFCURVE",
"864 -241 OFFCURVE",
"864 -223 CURVE SMOOTH",
"864 -168 OFFCURVE",
"835 -88 OFFCURVE",
"761 -31 CURVE SMOOTH",
"671 39 OFFCURVE",
"532 94 OFFCURVE",
"433 118 CURVE",
"442 132 OFFCURVE",
"445 136 OFFCURVE",
"454 153 CURVE SMOOTH",
"500 236 OFFCURVE",
"513 265 OFFCURVE",
"543 326 CURVE",
"749 361 OFFCURVE",
"963 566 OFFCURVE",
"963 764 CURVE SMOOTH",
"963 772 OFFCURVE",
"963 775 OFFCURVE",
"962 787 CURVE SMOOTH",
"959 825 OFFCURVE",
"922 862 OFFCURVE",
"870 862 CURVE SMOOTH",
"797 862 OFFCURVE",
"692 792 OFFCURVE",
"600 562 CURVE",
"600 562 OFFCURVE",
"527 374 OFFCURVE",
"515 346 CURVE",
"498 344 OFFCURVE",
"483 343 OFFCURVE",
"468 343 CURVE SMOOTH",
"343 343 OFFCURVE",
"292 412 OFFCURVE",
"292 488 CURVE SMOOTH",
"292 576 OFFCURVE",
"361 673 OFFCURVE",
"466 686 CURVE SMOOTH",
"488 689 OFFCURVE",
"498 695 OFFCURVE",
"498 700 CURVE SMOOTH",
"498 703 OFFCURVE",
"493 706 OFFCURVE",
"483 706 CURVE SMOOTH",
"478 706 OFFCURVE",
"472 706 OFFCURVE",
"465 704 CURVE SMOOTH",
"310 668 OFFCURVE",
"243 585 OFFCURVE",
"243 506 CURVE SMOOTH",
"243 408 OFFCURVE",
"342 317 OFFCURVE",
"501 322 CURVE",
"465 247 OFFCURVE",
"433 186 OFFCURVE",
"395 127 CURVE",
"366 133 OFFCURVE",
"331 135 OFFCURVE",
"296 135 CURVE SMOOTH",
"240 135 OFFCURVE",
"186 129 OFFCURVE",
"144 117 CURVE SMOOTH",
"37 85 OFFCURVE",
"-5 32 OFFCURVE",
"-5 -18 CURVE SMOOTH",
"-5 -71 OFFCURVE",
"47 -117 OFFCURVE",
"122 -117 CURVE SMOOTH",
"153 -117 OFFCURVE",
"188 -109 OFFCURVE",
"225 -91 CURVE SMOOTH",
"291 -60 OFFCURVE",
"351 0 OFFCURVE",
"403 72 CURVE",
"531 48 OFFCURVE",
"670 19 OFFCURVE",
"766 -68 CURVE SMOOTH",
"812 -109 OFFCURVE",
"825 -164 OFFCURVE",
"825 -208 CURVE SMOOTH",
"825 -232 OFFCURVE",
"822 -252 OFFCURVE",
"816 -264 CURVE SMOOTH",
"809 -279 OFFCURVE",
"797 -302 OFFCURVE",
"809 -302 CURVE SMOOTH"
);
},
{
closed = 1;
nodes = (
"52 -88 OFFCURVE",
"16 -61 OFFCURVE",
"16 -28 CURVE SMOOTH",
"16 11 OFFCURVE",
"65 51 OFFCURVE",
"154 75 CURVE SMOOTH",
"190 85 OFFCURVE",
"229 89 OFFCURVE",
"265 89 CURVE SMOOTH",
"299 89 OFFCURVE",
"333 86 OFFCURVE",
"364 79 CURVE",
"316 11 OFFCURVE",
"264 -36 OFFCURVE",
"209 -63 CURVE SMOOTH",
"171 -81 OFFCURVE",
"137 -88 OFFCURVE",
"108 -88 CURVE SMOOTH"
);
},
{
closed = 1;
nodes = (
"598 438 OFFCURVE",
"646 527 OFFCURVE",
"646 527 CURVE",
"751 734 OFFCURVE",
"840 801 OFFCURVE",
"886 801 CURVE SMOOTH",
"908 801 OFFCURVE",
"921 785 OFFCURVE",
"921 762 CURVE SMOOTH",
"921 578 OFFCURVE",
"738 393 OFFCURVE",
"557 353 CURVE"
);
}
);
};
layerId = "61E7180A-0B32-4047-B910-001D8BB62225";
paths = (
{
closed = 1;
nodes = (
"821 -311 OFFCURVE",
"868 -286 OFFCURVE",
"868 -203 CURVE SMOOTH",
"868 -42 OFFCURVE",
"561 136 OFFCURVE",
"261 136 CURVE SMOOTH",
"80 136 OFFCURVE",
"-3 53 OFFCURVE",
"-3 -17 CURVE SMOOTH",
"-3 -68 OFFCURVE",
"42 -113 OFFCURVE",
"126 -113 CURVE SMOOTH",
"360 -113 OFFCURVE",
"491 200 OFFCURVE",
"540 307 CURVE SMOOTH",
"631 509 OFFCURVE",
"715 740 OFFCURVE",
"832 740 CURVE SMOOTH",
"866 740 OFFCURVE",
"882 716 OFFCURVE",
"882 679 CURVE SMOOTH",
"882 555 OFFCURVE",
"721 315 OFFCURVE",
"505 315 CURVE SMOOTH",
"327 315 OFFCURVE",
"276 393 OFFCURVE",
"276 468 CURVE SMOOTH",
"276 566 OFFCURVE",
"373 666 OFFCURVE",
"474 666 CURVE",
"474 671 OFFCURVE",
"472 682 OFFCURVE",
"462 682 CURVE SMOOTH",
"326 682 OFFCURVE",
"220 579 OFFCURVE",
"220 474 CURVE SMOOTH",
"220 387 OFFCURVE",
"288 295 OFFCURVE",
"505 295 CURVE SMOOTH",
"731 295 OFFCURVE",
"925 546 OFFCURVE",
"925 697 CURVE SMOOTH",
"925 752 OFFCURVE",
"897 790 OFFCURVE",
"832 790 CURVE SMOOTH",
"649 790 OFFCURVE",
"581 583 OFFCURVE",
"516 391 CURVE SMOOTH",
"477 276 OFFCURVE",
"349 -93 OFFCURVE",
"126 -93 CURVE SMOOTH",
"59 -93 OFFCURVE",
"22 -64 OFFCURVE",
"22 -31 CURVE SMOOTH",
"22 17 OFFCURVE",
"96 75 OFFCURVE",
"261 75 CURVE SMOOTH",
"549 75 OFFCURVE",
"829 -52 OFFCURVE",
"829 -203 CURVE SMOOTH",
"829 -277 OFFCURVE",
"810 -294 OFFCURVE",
"783 -300 CURVE",
"783 -305 OFFCURVE",
"786 -311 OFFCURVE",
"797 -311 CURVE SMOOTH",
"799 -311 LINE SMOOTH"
);
}
);
width = 716;
}
);
note = L;
unicode = 004C;
},
{
color = 5;
glyphname = Lbelt;
lastChange = "2023-09-25 18:06:14 +0000";
layers = (
{
anchors = (
{
name = bottom;
position = "{427, -87}";
},
{
name = center;
position = "{668, 229}";
},
{
name = top;
position = "{870, 862}";
},
{
name = topright;
position = "{1037, 860}";
}
);
background = {
paths = (
{
closed = 1;
nodes = (
"813 -302 OFFCURVE",
"820 -300 OFFCURVE",
"829 -295 CURVE SMOOTH",
"838 -291 OFFCURVE",
"847 -281 OFFCURVE",
"855 -267 CURVE SMOOTH",
"861 -257 OFFCURVE",
"864 -241 OFFCURVE",
"864 -223 CURVE SMOOTH",
"864 -168 OFFCURVE",
"835 -88 OFFCURVE",
"761 -31 CURVE SMOOTH",
"671 39 OFFCURVE",
"532 94 OFFCURVE",
"433 118 CURVE",
"442 132 OFFCURVE",
"445 136 OFFCURVE",
"454 153 CURVE SMOOTH",
"500 236 OFFCURVE",
"513 265 OFFCURVE",
"543 326 CURVE",
"749 361 OFFCURVE",
"963 566 OFFCURVE",
"963 764 CURVE SMOOTH",
"963 772 OFFCURVE",
"963 775 OFFCURVE",
"962 787 CURVE SMOOTH",
"959 825 OFFCURVE",
"922 862 OFFCURVE",
"870 862 CURVE SMOOTH",
"797 862 OFFCURVE",
"692 792 OFFCURVE",
"600 562 CURVE",
"600 562 OFFCURVE",
"527 374 OFFCURVE",
"515 346 CURVE",
"498 344 OFFCURVE",
"483 343 OFFCURVE",
"468 343 CURVE SMOOTH",
"343 343 OFFCURVE",
"292 412 OFFCURVE",
"292 488 CURVE SMOOTH",
"292 576 OFFCURVE",
"361 673 OFFCURVE",
"466 686 CURVE SMOOTH",
"488 689 OFFCURVE",
"498 695 OFFCURVE",
"498 700 CURVE SMOOTH",
"498 703 OFFCURVE",
"493 706 OFFCURVE",
"483 706 CURVE SMOOTH",
"478 706 OFFCURVE",
"472 706 OFFCURVE",
"465 704 CURVE SMOOTH",
"310 668 OFFCURVE",
"243 585 OFFCURVE",
"243 506 CURVE SMOOTH",
"243 408 OFFCURVE",
"342 317 OFFCURVE",
"501 322 CURVE",
"465 247 OFFCURVE",
"433 186 OFFCURVE",
"395 127 CURVE",
"366 133 OFFCURVE",
"331 135 OFFCURVE",
"296 135 CURVE SMOOTH",
"240 135 OFFCURVE",
"186 129 OFFCURVE",
"144 117 CURVE SMOOTH",
"37 85 OFFCURVE",
"-5 32 OFFCURVE",
"-5 -18 CURVE SMOOTH",
"-5 -71 OFFCURVE",
"47 -117 OFFCURVE",
"122 -117 CURVE SMOOTH",
"153 -117 OFFCURVE",
"188 -109 OFFCURVE",
"225 -91 CURVE SMOOTH",
"291 -60 OFFCURVE",
"351 0 OFFCURVE",
"403 72 CURVE",
"531 48 OFFCURVE",
"670 19 OFFCURVE",
"766 -68 CURVE SMOOTH",
"812 -109 OFFCURVE",
"825 -164 OFFCURVE",
"825 -208 CURVE SMOOTH",
"825 -232 OFFCURVE",
"822 -252 OFFCURVE",
"816 -264 CURVE SMOOTH",
"809 -279 OFFCURVE",
"797 -302 OFFCURVE",
"809 -302 CURVE SMOOTH"
);
},
{
closed = 1;
nodes = (
"52 -88 OFFCURVE",
"16 -61 OFFCURVE",
"16 -28 CURVE SMOOTH",
"16 11 OFFCURVE",
"65 51 OFFCURVE",
"154 75 CURVE SMOOTH",
"190 85 OFFCURVE",
"229 89 OFFCURVE",
"265 89 CURVE SMOOTH",
"299 89 OFFCURVE",
"333 86 OFFCURVE",
"364 79 CURVE",
"316 11 OFFCURVE",
"264 -36 OFFCURVE",
"209 -63 CURVE SMOOTH",
"171 -81 OFFCURVE",
"137 -88 OFFCURVE",
"108 -88 CURVE SMOOTH"
);
},
{
closed = 1;
nodes = (
"598 438 OFFCURVE",
"646 527 OFFCURVE",
"646 527 CURVE",
"751 734 OFFCURVE",
"840 801 OFFCURVE",
"886 801 CURVE SMOOTH",
"908 801 OFFCURVE",
"921 785 OFFCURVE",
"921 762 CURVE SMOOTH",
"921 578 OFFCURVE",
"738 393 OFFCURVE",
"557 353 CURVE"
);
}
);
};
layerId = "61E7180A-0B32-4047-B910-001D8BB62225";
paths = (
{
closed = 1;
nodes = (
"335 332 OFFCURVE",
"325 313 OFFCURVE",
"325 294 CURVE SMOOTH",
"325 278 OFFCURVE",
"332 261 OFFCURVE",
"348 245 CURVE SMOOTH",
"388 210 OFFCURVE",
"481 196 OFFCURVE",
"569 196 CURVE SMOOTH",
"639 196 OFFCURVE",
"706 205 OFFCURVE",
"740 219 CURVE SMOOTH",
"744 221 OFFCURVE",
"747 223 OFFCURVE",
"747 229 CURVE SMOOTH",
"747 232 OFFCURVE",
"746 238 OFFCURVE",
"736 238 CURVE SMOOTH",
"735 238 LINE SMOOTH",
"702 233 OFFCURVE",
"662 230 OFFCURVE",
"620 230 CURVE SMOOTH",
"531 230 OFFCURVE",
"436 243 OFFCURVE",
"403 277 CURVE SMOOTH",
"393 287 OFFCURVE",
"387 298 OFFCURVE",
"387 310 CURVE SMOOTH",
"387 322 OFFCURVE",
"393 336 OFFCURVE",
"407 350 CURVE SMOOTH",
"426 369 OFFCURVE",
"495 375 OFFCURVE",
"524 375 CURVE",
"526 377 OFFCURVE",
"534 381 OFFCURVE",
"534 385 CURVE SMOOTH",
"534 387 OFFCURVE",
"533 388 OFFCURVE",
"532 389 CURVE SMOOTH",
"525 396 OFFCURVE",
"509 400 OFFCURVE",
"488 400 CURVE SMOOTH",
"446 400 OFFCURVE",
"387 384 OFFCURVE",
"348 345 CURVE SMOOTH"
);
},
{
closed = 1;
nodes = (
"796 -335 OFFCURVE",
"803 -333 OFFCURVE",
"812 -328 CURVE SMOOTH",
"821 -324 OFFCURVE",
"830 -314 OFFCURVE",
"838 -300 CURVE SMOOTH",
"844 -290 OFFCURVE",
"847 -274 OFFCURVE",
"847 -256 CURVE SMOOTH",
"847 -201 OFFCURVE",
"818 -121 OFFCURVE",
"744 -64 CURVE SMOOTH",
"654 6 OFFCURVE",
"515 61 OFFCURVE",
"416 85 CURVE",
"425 99 OFFCURVE",
"428 103 OFFCURVE",
"437 120 CURVE SMOOTH",
"483 203 OFFCURVE",
"574 393 OFFCURVE",
"604 454 CURVE",
"771 454 OFFCURVE",
"963 566 OFFCURVE",
"963 764 CURVE SMOOTH",
"963 772 OFFCURVE",
"963 775 OFFCURVE",
"962 787 CURVE SMOOTH",
"959 825 OFFCURVE",
"922 862 OFFCURVE",
"870 862 CURVE SMOOTH",
"797 862 OFFCURVE",
"703 791 OFFCURVE",
"635 646 CURVE SMOOTH",
"614 602 OFFCURVE",
"574 502 OFFCURVE",
"562 474 CURVE",
"545 472 OFFCURVE",
"530 471 OFFCURVE",
"515 471 CURVE SMOOTH",
"390 471 OFFCURVE",
"339 540 OFFCURVE",
"339 616 CURVE SMOOTH",
"339 704 OFFCURVE",
"408 801 OFFCURVE",
"513 814 CURVE SMOOTH",
"535 817 OFFCURVE",
"545 823 OFFCURVE",
"545 828 CURVE SMOOTH",
"545 831 OFFCURVE",
"540 834 OFFCURVE",
"530 834 CURVE SMOOTH",
"525 834 OFFCURVE",
"519 834 OFFCURVE",
"512 832 CURVE SMOOTH",
"357 796 OFFCURVE",
"290 713 OFFCURVE",
"290 634 CURVE SMOOTH",
"290 536 OFFCURVE",
"389 445 OFFCURVE",
"548 450 CURVE",
"512 375 OFFCURVE",
"416 153 OFFCURVE",
"378 94 CURVE",
"349 100 OFFCURVE",
"314 102 OFFCURVE",
"279 102 CURVE SMOOTH",
"223 102 OFFCURVE",
"169 96 OFFCURVE",
"127 84 CURVE SMOOTH",
"20 52 OFFCURVE",
"-22 -1 OFFCURVE",
"-22 -51 CURVE SMOOTH",
"-22 -104 OFFCURVE",
"30 -150 OFFCURVE",
"105 -150 CURVE SMOOTH",
"136 -150 OFFCURVE",
"171 -142 OFFCURVE",
"208 -124 CURVE SMOOTH",
"274 -93 OFFCURVE",
"334 -33 OFFCURVE",
"386 39 CURVE",
"514 15 OFFCURVE",
"653 -14 OFFCURVE",
"749 -101 CURVE SMOOTH",
"795 -142 OFFCURVE",
"808 -197 OFFCURVE",
"808 -241 CURVE SMOOTH",
"808 -265 OFFCURVE",
"805 -285 OFFCURVE",
"799 -297 CURVE SMOOTH",
"792 -312 OFFCURVE",
"780 -335 OFFCURVE",
"792 -335 CURVE SMOOTH"
);
},
{
closed = 1;
nodes = (
"35 -121 OFFCURVE",
"-1 -94 OFFCURVE",
"-1 -61 CURVE SMOOTH",
"-1 -22 OFFCURVE",
"48 18 OFFCURVE",
"137 42 CURVE SMOOTH",
"173 52 OFFCURVE",
"212 56 OFFCURVE",
"248 56 CURVE SMOOTH",
"282 56 OFFCURVE",
"316 53 OFFCURVE",
"347 46 CURVE",
"299 -22 OFFCURVE",
"247 -69 OFFCURVE",
"192 -96 CURVE SMOOTH",
"154 -114 OFFCURVE",
"120 -121 OFFCURVE",
"91 -121 CURVE SMOOTH"
);
},
{
closed = 1;
nodes = (
"638 521 OFFCURVE",
"662 559 OFFCURVE",
"691 610 CURVE SMOOTH",
"754 722 OFFCURVE",
"840 801 OFFCURVE",
"886 801 CURVE SMOOTH",
"908 801 OFFCURVE",
"921 785 OFFCURVE",
"921 762 CURVE SMOOTH",
"921 578 OFFCURVE",
"775 481 OFFCURVE",
"618 481 CURVE"
);
}
);
width = 716;
}
);
unicode = A7AD;
},
{
color = 5;
glyphname = Ldoublebar;
lastChange = "2023-09-25 18:06:14 +0000";
layers = (
{
components = (
{
alignment = -1;
name = strokeshortcomb;
transform = "{1.2, 0, 0, 1, 294, 8}";
},
{
alignment = -1;
name = strokeshortcomb;
transform = "{1.2, 0, 0, 1, 325, 102}";
}
);
layerId = "61E7180A-0B32-4047-B910-001D8BB62225";
paths = (
{
closed = 1;
nodes = (
"821 -311 OFFCURVE",
"868 -286 OFFCURVE",
"868 -203 CURVE SMOOTH",
"868 -42 OFFCURVE",
"561 136 OFFCURVE",
"261 136 CURVE SMOOTH",
"80 136 OFFCURVE",
"-3 53 OFFCURVE",
"-3 -17 CURVE SMOOTH",
"-3 -68 OFFCURVE",
"42 -113 OFFCURVE",
"126 -113 CURVE SMOOTH",
"360 -113 OFFCURVE",
"516 283 OFFCURVE",
"565 390 CURVE SMOOTH",
"656 592 OFFCURVE",
"740 823 OFFCURVE",
"857 823 CURVE SMOOTH",
"891 823 OFFCURVE",
"907 799 OFFCURVE",
"907 762 CURVE SMOOTH",
"907 638 OFFCURVE",
"746 398 OFFCURVE",
"530 398 CURVE SMOOTH",
"352 398 OFFCURVE",
"301 476 OFFCURVE",
"301 551 CURVE SMOOTH",
"301 649 OFFCURVE",
"398 749 OFFCURVE",
"499 749 CURVE",
"499 754 OFFCURVE",
"497 765 OFFCURVE",
"487 765 CURVE SMOOTH",
"351 765 OFFCURVE",
"245 662 OFFCURVE",
"245 557 CURVE SMOOTH",
"245 470 OFFCURVE",
"313 378 OFFCURVE",
"530 378 CURVE SMOOTH",
"756 378 OFFCURVE",
"950 629 OFFCURVE",
"950 780 CURVE SMOOTH",
"950 835 OFFCURVE",
"922 873 OFFCURVE",
"857 873 CURVE SMOOTH",
"674 873 OFFCURVE",
"606 666 OFFCURVE",
"541 474 CURVE SMOOTH",
"502 359 OFFCURVE",
"349 -93 OFFCURVE",
"126 -93 CURVE SMOOTH",
"59 -93 OFFCURVE",
"22 -64 OFFCURVE",
"22 -31 CURVE SMOOTH",
"22 17 OFFCURVE",
"96 75 OFFCURVE",
"261 75 CURVE SMOOTH",
"549 75 OFFCURVE",
"829 -52 OFFCURVE",
"829 -203 CURVE SMOOTH",
"829 -277 OFFCURVE",
"810 -294 OFFCURVE",
"783 -300 CURVE",
"783 -305 OFFCURVE",
"786 -311 OFFCURVE",
"797 -311 CURVE SMOOTH",
"799 -311 LINE SMOOTH"
);
}
);
width = 716;
}
);
unicode = 2C60;
},
{
color = 5;
glyphname = Lmiddletilde;
lastChange = "2023-07-04 22:52:45 +0000";
layers = (
{
layerId = "61E7180A-0B32-4047-B910-001D8BB62225";
paths = (
{
closed = 1;
nodes = (
"796 -335 OFFCURVE",
"803 -333 OFFCURVE",
"812 -328 CURVE SMOOTH",
"821 -324 OFFCURVE",
"830 -314 OFFCURVE",
"838 -300 CURVE SMOOTH",
"844 -290 OFFCURVE",
"847 -274 OFFCURVE",
"847 -256 CURVE SMOOTH",
"847 -201 OFFCURVE",
"818 -121 OFFCURVE",
"744 -64 CURVE SMOOTH",
"654 6 OFFCURVE",
"515 61 OFFCURVE",
"416 85 CURVE",
"425 99 OFFCURVE",
"428 103 OFFCURVE",
"437 120 CURVE SMOOTH",
"483 203 OFFCURVE",
"574 393 OFFCURVE",
"604 454 CURVE",
"771 454 OFFCURVE",
"963 566 OFFCURVE",
"963 764 CURVE SMOOTH",
"963 772 OFFCURVE",
"963 775 OFFCURVE",
"962 787 CURVE SMOOTH",
"959 825 OFFCURVE",
"922 862 OFFCURVE",
"870 862 CURVE SMOOTH",
"797 862 OFFCURVE",
"703 791 OFFCURVE",
"635 646 CURVE SMOOTH",
"614 602 OFFCURVE",
"574 502 OFFCURVE",
"562 474 CURVE",
"545 472 OFFCURVE",
"530 471 OFFCURVE",
"515 471 CURVE SMOOTH",
"390 471 OFFCURVE",
"339 540 OFFCURVE",
"339 616 CURVE SMOOTH",
"339 704 OFFCURVE",
"408 801 OFFCURVE",
"513 814 CURVE SMOOTH",
"535 817 OFFCURVE",
"545 823 OFFCURVE",
"545 828 CURVE SMOOTH",
"545 831 OFFCURVE",
"540 834 OFFCURVE",
"530 834 CURVE SMOOTH",
"525 834 OFFCURVE",
"519 834 OFFCURVE",
"512 832 CURVE SMOOTH",
"357 796 OFFCURVE",
"290 713 OFFCURVE",
"290 634 CURVE SMOOTH",
"290 536 OFFCURVE",
"389 445 OFFCURVE",
"548 450 CURVE",
"512 375 OFFCURVE",
"416 153 OFFCURVE",
"378 94 CURVE",
"349 100 OFFCURVE",
"314 102 OFFCURVE",
"279 102 CURVE SMOOTH",
"223 102 OFFCURVE",
"169 96 OFFCURVE",
"127 84 CURVE SMOOTH",
"20 52 OFFCURVE",
"-22 -1 OFFCURVE",
"-22 -51 CURVE SMOOTH",
"-22 -104 OFFCURVE",
"30 -150 OFFCURVE",
"105 -150 CURVE SMOOTH",
"136 -150 OFFCURVE",
"171 -142 OFFCURVE",
"208 -124 CURVE SMOOTH",
"274 -93 OFFCURVE",
"334 -33 OFFCURVE",
"386 39 CURVE",
"514 15 OFFCURVE",
"653 -14 OFFCURVE",
"749 -101 CURVE SMOOTH",
"795 -142 OFFCURVE",
"808 -197 OFFCURVE",
"808 -241 CURVE SMOOTH",
"808 -265 OFFCURVE",
"805 -285 OFFCURVE",
"799 -297 CURVE SMOOTH",
"792 -312 OFFCURVE",
"780 -335 OFFCURVE",
"792 -335 CURVE SMOOTH"
);
},
{
closed = 1;
nodes = (
"35 -121 OFFCURVE",
"-1 -94 OFFCURVE",
"-1 -61 CURVE SMOOTH",
"-1 -22 OFFCURVE",
"48 18 OFFCURVE",
"137 42 CURVE SMOOTH",
"173 52 OFFCURVE",
"212 56 OFFCURVE",
"248 56 CURVE SMOOTH",
"282 56 OFFCURVE",
"316 53 OFFCURVE",
"347 46 CURVE",
"299 -22 OFFCURVE",
"247 -69 OFFCURVE",
"192 -96 CURVE SMOOTH",
"154 -114 OFFCURVE",
"120 -121 OFFCURVE",
"91 -121 CURVE SMOOTH"
);
},
{
closed = 1;
nodes = (
"638 521 OFFCURVE",
"662 559 OFFCURVE",
"691 610 CURVE SMOOTH",
"754 722 OFFCURVE",
"840 801 OFFCURVE",
"886 801 CURVE SMOOTH",
"908 801 OFFCURVE",
"921 785 OFFCURVE",
"921 762 CURVE SMOOTH",
"921 578 OFFCURVE",
"775 481 OFFCURVE",
"618 481 CURVE"
);
},
{
closed = 1;
nodes = (
"694 321 OFFCURVE",
"687 323 OFFCURVE",
"681 323 CURVE SMOOTH",
"677 323 OFFCURVE",
"674 322 OFFCURVE",
"673 320 CURVE SMOOTH",
"663 300 OFFCURVE",
"649 286 OFFCURVE",
"627 286 CURVE SMOOTH",
"584 286 OFFCURVE",
"452 321 OFFCURVE",
"406 321 CURVE SMOOTH",
"365 321 OFFCURVE",
"335 281 OFFCURVE",
"318 250 CURVE",
"317 247 OFFCURVE",
"324 245 OFFCURVE",
"331 245 CURVE SMOOTH",
"335 245 OFFCURVE",
"339 245 OFFCURVE",
"340 248 CURVE",
"349 265 OFFCURVE",
"365 279 OFFCURVE",
"386 279 CURVE SMOOTH",
"428 279 OFFCURVE",
"560 242 OFFCURVE",
"604 242 CURVE SMOOTH",
"646 242 OFFCURVE",
"677 284 OFFCURVE",
"693 318 CURVE SMOOTH"
);
}
);
width = 660;
}
);
unicode = 2C62;
},
{
color = 9;
glyphname = Lslash;
lastChange = "2023-07-04 22:52:45 +0000";
layers = (
{
background = {
paths = (
{
closed = 1;
nodes = (
"813 -14 OFFCURVE",
"820 -12 OFFCURVE",
"829 -7 CURVE SMOOTH",
"838 -3 OFFCURVE",
"847 7 OFFCURVE",
"855 21 CURVE SMOOTH",
"861 31 OFFCURVE",
"864 47 OFFCURVE",
"864 65 CURVE SMOOTH",
"864 120 OFFCURVE",
"835 200 OFFCURVE",
"762 256 CURVE SMOOTH",
"670 328 OFFCURVE",
"532 382 OFFCURVE",
"433 406 CURVE",
"441 418 OFFCURVE",
"448 429 OFFCURVE",
"454 441 CURVE SMOOTH",
"490 505 OFFCURVE",
"513 553 OFFCURVE",
"543 614 CURVE",
"749 649 OFFCURVE",
"963 854 OFFCURVE",
"963 1052 CURVE SMOOTH",
"963 1059 OFFCURVE",
"963 1067 OFFCURVE",
"962 1075 CURVE SMOOTH",
"959 1113 OFFCURVE",
"922 1150 OFFCURVE",
"870 1150 CURVE SMOOTH",
"797 1150 OFFCURVE",
"692 1080 OFFCURVE",
"600 850 CURVE",
"600 850 OFFCURVE",
"527 662 OFFCURVE",
"515 634 CURVE",
"498 632 OFFCURVE",
"483 631 OFFCURVE",
"468 631 CURVE SMOOTH",
"343 631 OFFCURVE",
"292 700 OFFCURVE",
"292 776 CURVE SMOOTH",
"292 864 OFFCURVE",
"361 961 OFFCURVE",
"466 974 CURVE SMOOTH",
"488 977 OFFCURVE",
"498 983 OFFCURVE",
"498 988 CURVE SMOOTH",
"498 991 OFFCURVE",
"493 994 OFFCURVE",
"483 994 CURVE SMOOTH",
"478 994 OFFCURVE",
"472 994 OFFCURVE",
"465 992 CURVE SMOOTH",
"310 956 OFFCURVE",
"243 873 OFFCURVE",
"243 794 CURVE SMOOTH",
"243 696 OFFCURVE",
"342 605 OFFCURVE",
"501 610 CURVE",
"465 535 OFFCURVE",
"433 474 OFFCURVE",
"395 415 CURVE",
"366 421 OFFCURVE",
"331 423 OFFCURVE",
"296 423 CURVE SMOOTH",
"242 423 OFFCURVE",
"186 417 OFFCURVE",
"143 405 CURVE SMOOTH",
"37 373 OFFCURVE",
"-5 319 OFFCURVE",
"-5 270 CURVE SMOOTH",
"-5 217 OFFCURVE",
"47 171 OFFCURVE",
"122 171 CURVE SMOOTH",
"153 171 OFFCURVE",
"188 179 OFFCURVE",
"225 197 CURVE SMOOTH",
"291 228 OFFCURVE",
"351 288 OFFCURVE",
"403 360 CURVE",
"531 336 OFFCURVE",
"670 307 OFFCURVE",
"766 220 CURVE SMOOTH",
"811 181 OFFCURVE",
"825 124 OFFCURVE",
"825 80 CURVE SMOOTH",
"825 56 OFFCURVE",
"822 36 OFFCURVE",
"816 24 CURVE SMOOTH",
"810 11 OFFCURVE",
"796 -14 OFFCURVE",
"809 -14 CURVE SMOOTH"
);
},
{
closed = 1;
nodes = (
"52 200 OFFCURVE",
"16 227 OFFCURVE",
"16 260 CURVE SMOOTH",
"16 295 OFFCURVE",
"56 337 OFFCURVE",
"155 363 CURVE SMOOTH",
"190 373 OFFCURVE",
"227 377 OFFCURVE",
"265 377 CURVE SMOOTH",
"299 377 OFFCURVE",
"333 374 OFFCURVE",
"364 367 CURVE",
"316 299 OFFCURVE",
"264 252 OFFCURVE",
"209 225 CURVE SMOOTH",
"171 207 OFFCURVE",
"137 200 OFFCURVE",
"108 200 CURVE SMOOTH"
);
},
{
closed = 1;
nodes = (
"366 498 OFFCURVE",
"563 509 OFFCURVE",
"655 509 CURVE SMOOTH",
"667 509 OFFCURVE",
"672 514 OFFCURVE",
"672 520 CURVE SMOOTH",
"672 527 OFFCURVE",
"664 535 OFFCURVE",
"651 536 CURVE SMOOTH",
"535 539 OFFCURVE",
"348 540 OFFCURVE",
"306 540 CURVE SMOOTH",
"294 540 OFFCURVE",
"289 531 OFFCURVE",
"289 521 CURVE SMOOTH",
"289 507 OFFCURVE",
"298 490 OFFCURVE",
"306 492 CURVE SMOOTH"
);
},
{
closed = 1;
nodes = (
"598 726 OFFCURVE",
"646 815 OFFCURVE",
"646 815 CURVE",
"751 1022 OFFCURVE",
"840 1089 OFFCURVE",
"886 1089 CURVE SMOOTH",
"908 1089 OFFCURVE",
"921 1073 OFFCURVE",
"921 1050 CURVE SMOOTH",
"921 866 OFFCURVE",
"738 681 OFFCURVE",
"557 641 CURVE"
);
}
);
};
layerId = "61E7180A-0B32-4047-B910-001D8BB62225";
paths = (
{
closed = 1;
nodes = (
"813 -302 OFFCURVE",
"820 -300 OFFCURVE",
"829 -295 CURVE SMOOTH",
"838 -291 OFFCURVE",
"847 -281 OFFCURVE",
"855 -267 CURVE SMOOTH",
"861 -257 OFFCURVE",
"864 -241 OFFCURVE",
"864 -223 CURVE SMOOTH",
"864 -168 OFFCURVE",
"835 -88 OFFCURVE",
"761 -31 CURVE SMOOTH",
"671 39 OFFCURVE",
"532 94 OFFCURVE",
"433 118 CURVE",
"442 132 OFFCURVE",
"445 136 OFFCURVE",
"454 153 CURVE SMOOTH",
"500 236 OFFCURVE",
"513 265 OFFCURVE",
"543 326 CURVE",
"749 361 OFFCURVE",
"963 566 OFFCURVE",
"963 764 CURVE SMOOTH",
"963 772 OFFCURVE",
"963 775 OFFCURVE",
"962 787 CURVE SMOOTH",
"959 825 OFFCURVE",
"922 862 OFFCURVE",
"870 862 CURVE SMOOTH",
"797 862 OFFCURVE",
"692 792 OFFCURVE",
"600 562 CURVE",
"600 562 OFFCURVE",
"527 374 OFFCURVE",
"515 346 CURVE",
"498 344 OFFCURVE",
"483 343 OFFCURVE",
"468 343 CURVE SMOOTH",
"343 343 OFFCURVE",
"292 412 OFFCURVE",
"292 488 CURVE SMOOTH",
"292 576 OFFCURVE",
"361 673 OFFCURVE",
"466 686 CURVE SMOOTH",
"488 689 OFFCURVE",
"498 695 OFFCURVE",
"498 700 CURVE SMOOTH",
"498 703 OFFCURVE",
"493 706 OFFCURVE",
"483 706 CURVE SMOOTH",
"478 706 OFFCURVE",
"472 706 OFFCURVE",
"465 704 CURVE SMOOTH",
"310 668 OFFCURVE",
"243 585 OFFCURVE",
"243 506 CURVE SMOOTH",
"243 408 OFFCURVE",
"342 317 OFFCURVE",
"501 322 CURVE",
"465 247 OFFCURVE",
"433 186 OFFCURVE",
"395 127 CURVE",
"366 133 OFFCURVE",
"331 135 OFFCURVE",
"296 135 CURVE SMOOTH",
"240 135 OFFCURVE",
"186 129 OFFCURVE",
"144 117 CURVE SMOOTH",
"37 85 OFFCURVE",
"-5 32 OFFCURVE",
"-5 -18 CURVE SMOOTH",
"-5 -71 OFFCURVE",
"47 -117 OFFCURVE",
"122 -117 CURVE SMOOTH",
"153 -117 OFFCURVE",
"188 -109 OFFCURVE",
"225 -91 CURVE SMOOTH",
"291 -60 OFFCURVE",
"351 0 OFFCURVE",
"403 72 CURVE",
"531 48 OFFCURVE",
"670 19 OFFCURVE",
"766 -68 CURVE SMOOTH",
"812 -109 OFFCURVE",
"825 -164 OFFCURVE",
"825 -208 CURVE SMOOTH",
"825 -232 OFFCURVE",
"822 -252 OFFCURVE",
"816 -264 CURVE SMOOTH",
"809 -279 OFFCURVE",
"797 -302 OFFCURVE",
"809 -302 CURVE SMOOTH"
);
},
{
closed = 1;
nodes = (
"52 -88 OFFCURVE",
"16 -61 OFFCURVE",
"16 -28 CURVE SMOOTH",
"16 11 OFFCURVE",
"65 51 OFFCURVE",
"154 75 CURVE SMOOTH",
"190 85 OFFCURVE",
"229 89 OFFCURVE",
"265 89 CURVE SMOOTH",
"299 89 OFFCURVE",
"333 86 OFFCURVE",
"364 79 CURVE",
"316 11 OFFCURVE",
"264 -36 OFFCURVE",
"209 -63 CURVE SMOOTH",
"171 -81 OFFCURVE",
"137 -88 OFFCURVE",
"108 -88 CURVE SMOOTH"
);
},
{
closed = 1;
nodes = (
"355 210 OFFCURVE",
"567 221 OFFCURVE",
"655 221 CURVE SMOOTH",
"667 221 OFFCURVE",
"672 226 OFFCURVE",
"672 232 CURVE SMOOTH",
"672 238 OFFCURVE",
"664 248 OFFCURVE",
"651 248 CURVE SMOOTH",
"552 251 OFFCURVE",
"348 252 OFFCURVE",
"306 252 CURVE SMOOTH",
"294 252 OFFCURVE",
"289 243 OFFCURVE",
"289 233 CURVE SMOOTH",
"289 219 OFFCURVE",
"297 203 OFFCURVE",
"307 204 CURVE SMOOTH"
);
},
{
closed = 1;
nodes = (
"598 438 OFFCURVE",
"646 527 OFFCURVE",
"646 527 CURVE",
"751 734 OFFCURVE",
"840 801 OFFCURVE",
"886 801 CURVE SMOOTH",
"908 801 OFFCURVE",
"921 785 OFFCURVE",
"921 762 CURVE SMOOTH",
"921 578 OFFCURVE",
"738 393 OFFCURVE",
"557 353 CURVE"
);
}
);
width = 750;
}
);
note = Lslash;
unicode = 0141;
},
